<?xml version="1.0" standalone="no"?>
<!DOCTYPE svg PUBLIC "-//W3C//DTD SVG 1.1//EN" "http://www.w3.org/Graphics/SVG/1.1/DTD/svg11.dtd" >
<svg>
<metadata>
Created by FontForge 20090622 at Thu Apr 16 19:40:17 2015
 By deploy user
Version 1.0/ created on 06-11-94/Copr.1994 by Dutch Type Library/ URW
</metadata>
<defs>
<font id="DTLNobelT-LightItalic" horiz-adv-x="700" >
  <font-face 
    font-family="DTLNobelT Light"
    font-weight="300"
    font-style="italic"
    font-stretch="normal"
    units-per-em="1000"
    panose-1="2 0 5 3 6 0 0 9 0 3"
    ascent="800"
    descent="-200"
    x-height="459"
    cap-height="784"
    bbox="-132 -244 1224 1074"
    underline-thickness="20"
    underline-position="-113"
    slope="-12"
    unicode-range="U+0020-U+FB02"
  />
<missing-glyph horiz-adv-x="500" 
 />
    <glyph glyph-name=".notdef" horiz-adv-x="500" 
 />
    <glyph glyph-name=".null" horiz-adv-x="0" 
 />
    <glyph glyph-name="nonmarkingreturn" horiz-adv-x="333" 
 />
    <glyph glyph-name="space" unicode=" " horiz-adv-x="200" 
 />
    <glyph glyph-name="exclam" unicode="!" horiz-adv-x="300" 
d="M254 784l-59 -306l-72 -278h-24l38 277l59 307h58zM121 80l-16 -78h-58l16 78h58z" />
    <glyph glyph-name="quotedbl" unicode="&#x22;" horiz-adv-x="457" 
d="M457 785l-67 -243h-39l29 243h77zM247 785l-67 -243h-39l29 243h77z" />
    <glyph glyph-name="numbersign" unicode="#" horiz-adv-x="800" 
d="M771 487h-171l-79 -214h180v-54h-200l-81 -218l-68 -1l80 219h-181l-81 -218l-68 -1l80 219h-146v54h166l79 214h-175v58h198l88 241h69l-91 -244h181l91 244h69l-91 -244h151v-55zM531 487h-181l-79 -214h181z" />
    <glyph glyph-name="dollar" unicode="$" 
d="M599 726l-39 -37q-41 54 -128 56l-61 -317l60 -38q100 -62 100 -166q0 -92 -63.5 -159t-180.5 -71l-17 -86h-23l17 86q-110 4 -178 92l39 38q62 -78 148 -83l65 335l-58 37q-98 62 -98 165q0 94 70 154t168 65l11 55h22l-11 -55q103 -3 157 -71zM410 744
q-68 -4 -116.5 -46.5t-48.5 -119.5q0 -73 76 -119l30 -19zM467 220q0 74 -77 123l-32 20l-62 -322q70 4 120.5 50t50.5 129z" />
    <glyph glyph-name="ampersand" unicode="&#x26;" 
d="M632 1l-63 -1l-68 95q-64 -54 -116 -81.5t-118 -27.5q-101 0 -150.5 44.5t-49.5 112.5q0 70 39.5 122.5t103.5 100.5l63 49l-48 62q-39 51 -39 114q0 86 67 143.5t156 57.5q67 0 103 -37.5t36 -96.5q0 -54 -33 -99t-101 -97l-69 -53l168 -239q51 52 66 76l35 -32
q-16 -23 -74 -83zM493 656q0 42 -27.5 67.5t-74.5 25.5q-56 0 -102.5 -46.5t-46.5 -114.5q0 -36 40 -89l36 -48l59 45q60 46 88 81.5t28 78.5zM470 133l-171 244l-61 -46q-115 -85 -115 -171q0 -63 43 -94.5t108 -31.5q42 0 98.5 30t97.5 69z" />
    <glyph glyph-name="quotesingle" unicode="'" horiz-adv-x="247" 
d="M247 785l-67 -243h-39l29 243h77z" />
    <glyph glyph-name="parenleft" unicode="(" horiz-adv-x="354" 
d="M373 813l-10 -53q-115 -92 -186 -256t-71 -334q0 -73 17 -142t30.5 -97t36.5 -72l-11 -54q-58 61 -97.5 166.5t-39.5 225.5q0 107 31.5 211t81.5 182.5t106.5 136.5t111.5 86z" />
    <glyph glyph-name="parenright" unicode=")" horiz-adv-x="354" 
d="M313 419q0 -107 -31.5 -211t-81.5 -182.5t-106.5 -136.5t-111.5 -86l10 53q115 92 186 256t71 334q0 73 -17 142t-30.5 97t-36.5 72l11 54q58 -61 97.5 -166.5t39.5 -225.5z" />
    <glyph glyph-name="asterisk" unicode="*" horiz-adv-x="420" 
d="M454 601l-145 -38l103 -138l-43 -28l-87 149l-93 -141l-43 31l111 127l-150 51l17 47l143 -62l-10 157h51l-9 -158l140 52z" />
    <glyph glyph-name="plus" unicode="+" horiz-adv-x="549" 
d="M508 270h-205v-269h-58v269h-205v50h205v244h58v-244h205v-50z" />
    <glyph glyph-name="comma" unicode="," horiz-adv-x="250" 
d="M187 80l-8 -41q-14 -69 -30.5 -101.5t-50.5 -69.5h-35q40 78 50 134l16 78h58z" />
    <glyph glyph-name="hyphen" unicode="-" horiz-adv-x="313" 
d="M267 266l-8 -40h-213l8 40h213z" />
    <glyph glyph-name="period" unicode="." horiz-adv-x="250" 
d="M162 80l-16 -78h-58l16 78h58z" />
    <glyph glyph-name="slash" unicode="/" horiz-adv-x="522" 
d="M507 783l-432 -781h-60l431 781h61z" />
    <glyph glyph-name="zero" unicode="0" 
d="M640 538q0 -134 -44 -258t-130 -206.5t-193 -82.5t-160 65.5t-53 186.5q0 134 44 258t130.5 206.5t194.5 82.5q106 0 158.5 -65.5t52.5 -186.5zM585 528q0 67 -13 112t-37.5 67t-51 30.5t-63.5 8.5q-82 0 -153 -69.5t-111.5 -183t-40.5 -240.5q0 -67 13 -111.5t38 -66.5
t52 -30.5t64 -8.5q80 0 150.5 69t111.5 182.5t41 240.5z" />
    <glyph glyph-name="one" unicode="1" 
d="M483 784l-152 -784h-56l130 670q-30 -31 -79.5 -51.5t-108.5 -20.5l13 52q41 0 75 11t60.5 33.5t42 41t37.5 48.5h38z" />
    <glyph glyph-name="two" unicode="2" 
d="M610 631q0 -135 -178 -313l-265 -267h373l-10 -51l-479 1l303 306l10 10l21.5 20.5l26.5 27.5t30.5 35l31.5 39.5t30 44.5t24 46.5t17 48.5t6 48q0 117 -147 117q-78 0 -134.5 -42.5t-75.5 -120.5h-50q19 93 90 151.5t177 58.5q89 0 144 -40t55 -120z" />
    <glyph glyph-name="three" unicode="3" 
d="M583 638q0 -80 -57 -149t-121 -81v-3q52 -3 91 -45.5t39 -109.5q0 -115 -85 -186t-210 -71q-121 0 -193 80l40 38q65 -72 161 -72q59 0 109.5 20.5t86 68.5t35.5 115q0 56 -37 95.5t-124 39.5h-57l9 51h58q87 0 144.5 65.5t57.5 144.5q0 107 -137 107q-51 0 -102 -23.5
t-86 -66.5l-30 31q38 49 102 78t127 29q92 0 135.5 -42t43.5 -114z" />
    <glyph glyph-name="four" unicode="4" 
d="M555 262l-11 -55h-115l-41 -207h-52l40 209h-351l11 59l471 516h33l-100 -522h115zM466 671l-372 -409h292z" />
    <glyph glyph-name="five" unicode="5" 
d="M614 784l-10 -47h-340l-64 -286q26 24 68 38t65.5 16.5t39.5 2.5q77 0 134.5 -49.5t57.5 -142.5q0 -54 -18 -108t-54.5 -103.5t-102.5 -80.5t-151 -31q-62 0 -112.5 24t-80.5 62l41 40q65 -80 168 -80q67 0 119 28.5t79.5 72t41 86t13.5 79.5q0 70 -40.5 112t-107.5 42
q-106 0 -193 -85l-30 16l90 394h387z" />
    <glyph glyph-name="six" unicode="6" 
d="M597 314q0 -132 -89.5 -225.5t-213.5 -93.5q-89 0 -140 58t-51 156q0 83 30 172t79 164.5t102.5 137t108.5 105.5h72q-84 -61 -169.5 -169t-121.5 -194l4 -1q69 85 196 85q83 0 138 -56.5t55 -138.5zM541 309q0 73 -46 113.5t-104 40.5q-39 0 -79 -15.5t-75.5 -45
t-57.5 -80t-22 -112.5q0 -74 39.5 -122.5t108.5 -48.5q94 0 165 80t71 190z" />
    <glyph glyph-name="seven" unicode="7" 
d="M640 784l-518 -784h-62l490 732h-417l10 52h497z" />
    <glyph glyph-name="eight" unicode="8" 
d="M631 633q0 -86 -48.5 -137.5t-115.5 -76.5q46 -16 75.5 -55.5t29.5 -103.5q0 -115 -87 -191t-208 -76q-96 0 -151.5 53.5t-55.5 139.5q0 79 54 146.5t122 87.5q-17 9 -27 16.5t-27.5 24t-27 42t-9.5 57.5q0 93 73 164t207 71q106 0 151 -47t45 -115zM577 629
q0 57 -40.5 89t-108.5 32q-93 0 -155 -51.5t-62 -131.5q0 -119 159 -119q86 0 146.5 46t60.5 135zM519 258q0 57 -36 99t-125 42q-60 0 -106.5 -19.5t-72.5 -51.5t-39 -67t-13 -72q0 -64 43.5 -107t116.5 -43q98 0 165 65t67 154z" />
    <glyph glyph-name="nine" unicode="9" 
d="M586 589q0 -46 -9 -92t-21.5 -84.5t-36.5 -80.5t-43 -71.5t-52 -67.5t-53 -59t-57 -55l-52 -47l-49 -42l-34 35q101 78 188 177.5t118 165.5l-3 2q-90 -92 -203 -92q-85 0 -134.5 56t-49.5 146q0 138 90.5 225t213.5 87q93 0 140 -54.5t47 -148.5zM534 587q0 70 -37 115
t-109 45q-103 0 -171.5 -76.5t-68.5 -192.5q0 -77 44.5 -115.5t103.5 -38.5q39 0 79.5 16t76.5 46.5t59 83t23 117.5z" />
    <glyph glyph-name="colon" unicode=":" horiz-adv-x="250" 
d="M200 466l-16 -78h-58l16 78h58zM125 80l-16 -78h-58l16 78h58z" />
    <glyph glyph-name="semicolon" unicode=";" horiz-adv-x="250" 
d="M225 466l-16 -78h-58l16 78h58zM150 80l-8 -41q-14 -69 -30.5 -101.5t-50.5 -69.5h-35q37 64 50 134l16 78h58z" />
    <glyph glyph-name="less" unicode="&#x3c;" horiz-adv-x="549" 
d="M439 16l-369 257v58l368 254v-78l-319 -205l320 -208v-78z" />
    <glyph glyph-name="equal" unicode="=" horiz-adv-x="549" 
d="M486 333h-425v59h425v-59zM486 120h-425v59h425v-59z" />
    <glyph glyph-name="greater" unicode="&#x3e;" horiz-adv-x="549" 
d="M438 269l-368 -254v78l319 205l-320 208v78l369 -257v-58z" />
    <glyph glyph-name="question" unicode="?" horiz-adv-x="522" 
d="M438 667q0 -45 -31 -101.5t-62 -91.5l-31 -34q-33 -39 -52 -64t-42 -73t-33 -102h-57q21 107 73 180q11 15 63 75t81 108.5t29 90.5q0 43 -30.5 62t-76.5 19q-15 0 -30.5 -3.5t-35 -12t-38 -26.5t-31.5 -43l-49 15q20 49 75 84.5t129 35.5q24 0 47.5 -5.5t47.5 -17.5
t39 -37t15 -59zM167 78l-16 -78h-58l16 78h58z" />
    <glyph glyph-name="at" unicode="@" horiz-adv-x="1000" 
d="M919 382q0 -50 -16 -97.5t-33 -74.5t-44 -61h-194v45q-71 -56 -173 -56q-70 0 -116 32.5t-46 110.5q0 63 51 109t159 46q80 0 125 -9v48q0 60 -37 83t-110 23q-75 0 -131 -36l-23 47q78 38 176 38q87 0 133 -31t46 -105v-289h108q68 95 68 177q0 163 -96 261t-266 98
q-150 0 -257 -112t-107 -268q0 -157 106.5 -268.5t257.5 -111.5h74v-55h-74q-173 0 -296 127.5t-123 307.5t123 307.5t296 127.5q191 0 305 -110t114 -304zM626 242v141q-54 9 -137 9q-66 0 -104.5 -28t-38.5 -87q0 -44 32.5 -69t90.5 -25q39 0 83 17t74 42z" />
    <glyph glyph-name="A" unicode="A" horiz-adv-x="673" 
d="M553 0h-57l-42 267h-277l-145 -267h-61l449 815zM445 315l-55 347l-186 -347h241z" />
    <glyph glyph-name="B" unicode="B" horiz-adv-x="662" 
d="M595 627q0 -77 -46.5 -144t-112.5 -87v-4q45 0 86 -43.5t41 -111.5q0 -97 -75 -167t-210 -70h-218l152 784h179q99 0 151.5 -43.5t52.5 -113.5zM535 621q0 113 -174 113h-101l-63 -325h121q93 0 155 62t62 150zM501 232q0 128 -178 128h-135l-60 -309h148q110 0 167.5 51
t57.5 130z" />
    <glyph glyph-name="C" unicode="C" horiz-adv-x="762" 
d="M739 710l-43 -37q-76 64 -199 64q-86 0 -163 -38t-128.5 -99t-81.5 -136.5t-30 -151.5q0 -122 72 -197t201 -75q135 0 263 100l28 -40q-65 -60 -146.5 -85.5t-154.5 -25.5q-149 0 -236.5 82.5t-87.5 232.5q0 131 64 243t173 177.5t236 65.5q154 0 233 -80z" />
    <glyph glyph-name="D" unicode="D" horiz-adv-x="813" 
d="M763 481q0 -114 -41 -207t-110.5 -151.5t-157 -89.5t-183.5 -31h-210l152 784h200q160 0 255 -76.5t95 -228.5zM702 475q0 54 -15 98.5t-49 82t-98 58.5t-153 21h-126l-133 -684h140q188 0 311 121t123 303z" />
    <glyph glyph-name="E" unicode="E" horiz-adv-x="624" 
d="M603 784l-9 -49h-333l-60 -306h320l-9 -50h-320l-64 -328h359l-10 -51h-416l152 784h390z" />
    <glyph glyph-name="F" unicode="F" horiz-adv-x="567" 
d="M602 784l-9 -49h-333l-60 -307h320l-9 -50h-321l-74 -378h-56l152 784h390z" />
    <glyph glyph-name="G" unicode="G" horiz-adv-x="846" 
d="M822 333q-47 -150 -169.5 -247t-284.5 -97q-150 0 -238 84t-88 233q0 97 38.5 186.5t103 154.5t153 104t183.5 39q150 0 258 -88l-38 -43q-94 78 -230 78q-111 0 -204.5 -59t-147 -157t-53.5 -210q0 -125 75.5 -197.5t194.5 -72.5q67 0 133 23.5t130 79.5t103 136h-247
l10 53h318z" />
    <glyph glyph-name="H" unicode="H" horiz-adv-x="852" 
d="M792 784l-152 -784h-56l72 378h-466l-74 -378h-56l152 784h56l-68 -356h466l70 356h56z" />
    <glyph glyph-name="I" unicode="I" horiz-adv-x="328" 
d="M268 784l-152 -784h-56l152 784h56z" />
    <glyph glyph-name="J" unicode="J" horiz-adv-x="328" 
d="M289 785l-112 -572q-23 -120 -86 -168t-163 -48l10 47q40 0 74 12t64.5 48t41.5 93l115 588h56z" />
    <glyph glyph-name="K" unicode="K" horiz-adv-x="698" 
d="M699 785l-438 -356l311 -429h-69l-307 416l-81 -416h-56l152 784h56l-66 -339l422 340h76z" />
    <glyph glyph-name="L" unicode="L" horiz-adv-x="538" 
d="M468 51l-10 -51h-398l152 784h56l-141 -733h341z" />
    <glyph glyph-name="M" unicode="M" horiz-adv-x="988" 
d="M931 812l-158 -812h-56l127 650l-378 -386l-226 386l-127 -650h-56l157 810l268 -456z" />
    <glyph glyph-name="N" unicode="N" horiz-adv-x="865" 
d="M807 798l-160 -823l-404 681l-128 -656h-56l158 815l405 -681l129 664h56z" />
    <glyph glyph-name="O" unicode="O" horiz-adv-x="885" 
d="M846 478q0 -91 -34 -178.5t-94.5 -157.5t-153 -112.5t-200.5 -42.5q-154 0 -239 89.5t-85 226.5q0 80 33.5 164t93 156.5t153 118.5t201.5 46q160 0 242.5 -87t82.5 -223zM784 475q0 124 -74 194t-199 70q-108 0 -203 -62t-150 -160.5t-55 -204.5q0 -123 76 -197t195 -74
q166 0 288 127.5t122 306.5z" />
    <glyph glyph-name="P" unicode="P" horiz-adv-x="650" 
d="M621 607q0 -48 -19.5 -94.5t-57 -86.5t-99.5 -64.5t-140 -24.5h-122l-67 -337h-56l152 784h196q100 0 156.5 -45.5t56.5 -131.5zM559 603q0 56 -36 94t-126 38h-137l-68 -348h118q114 0 181.5 60.5t67.5 155.5z" />
    <glyph glyph-name="Q" unicode="Q" horiz-adv-x="885" 
d="M847 478q0 -114 -51.5 -221t-144.5 -177q42 -29 100 -50l-34 -44q-55 23 -112 64q-110 -63 -240 -63q-154 0 -239 89.5t-85 226.5q0 80 33.5 164t93 156.5t153 118.5t201.5 46q160 0 242.5 -87t82.5 -223zM785 475q0 124 -74 194t-199 70q-108 0 -203 -62t-150 -160.5
t-55 -204.5q0 -123 76 -197t195 -74q99 0 186 48q-24 27 -44 55l38 32q26 -35 50 -58q82 60 131 154t49 203z" />
    <glyph glyph-name="R" unicode="R" horiz-adv-x="692" 
d="M616 608q0 -33 -9.5 -67.5t-33.5 -71t-60.5 -64.5t-96.5 -46t-135 -18l233 -341l-71 -1l-254 382l-74 -382h-56l152 784h199q91 0 148.5 -43.5t57.5 -131.5zM557 595q0 24 -6.5 45.5t-22.5 44.5t-50 36.5t-82 13.5h-138l-68 -348h109q117 0 187.5 62.5t70.5 145.5z" />
    <glyph glyph-name="S" unicode="S" horiz-adv-x="564" 
d="M539 726l-39 -37q-27 35 -60 45.5t-76 10.5q-72 0 -125.5 -43t-53.5 -124q0 -73 76 -119l110 -69q100 -62 100 -166q0 -94 -67 -162t-189 -68q-118 0 -189 92l39 38q66 -83 159 -83q73 0 128 46t55 133q0 74 -77 123l-110 70q-98 62 -98 165q0 97 74.5 158t176.5 61
q109 0 166 -71z" />
    <glyph glyph-name="T" unicode="T" horiz-adv-x="562" 
d="M605 784l-9 -49h-220l-144 -735h-56l142 735h-220l9 49h498z" />
    <glyph glyph-name="U" unicode="U" horiz-adv-x="858" 
d="M801 785l-92 -471q-12 -61 -41 -117.5t-73.5 -103t-109 -74t-138.5 -27.5q-123 0 -186 70t-63 181q0 36 8 81l90 461h56l-86 -440q-10 -50 -10 -94q0 -104 54.5 -155.5t147.5 -51.5q115 0 194.5 80t108.5 229l84 432h56z" />
    <glyph glyph-name="V" unicode="V" horiz-adv-x="624" 
d="M699 784l-479 -833l-125 833h60l101 -666l379 666h64z" />
    <glyph glyph-name="W" unicode="W" horiz-adv-x="980" 
d="M1024 784l-401 -838l-83 713l-368 -719l-76 844h60l56 -647l364 695l82 -693l304 645h62z" />
    <glyph glyph-name="X" unicode="X" horiz-adv-x="578" 
d="M644 784l-305 -372l178 -412h-64l-156 360l-295 -360h-69l340 415l-160 368h66l136 -316l260 317h69z" />
    <glyph glyph-name="Y" unicode="Y" horiz-adv-x="582" 
d="M646 784l-336 -417l-72 -367h-56l72 366l-177 417h61l155 -357l287 358h66z" />
    <glyph glyph-name="Z" unicode="Z" horiz-adv-x="696" 
d="M714 784l-622 -732h478l-10 -52h-579l621 735h-452l9 49h555z" />
    <glyph glyph-name="bracketleft" unicode="[" horiz-adv-x="428" 
d="M422 784l-8 -42l-170 -1l-172 -883h173l-8 -43h-230l188 969h227z" />
    <glyph glyph-name="backslash" unicode="\" horiz-adv-x="522" 
d="M355 2h-60l-128 781h61z" />
    <glyph glyph-name="bracketright" unicode="]" horiz-adv-x="428" 
d="M423 784l-188 -969h-230l8 43h173l172 883l-170 1l8 42h227z" />
    <glyph glyph-name="asciicircum" unicode="^" horiz-adv-x="800" 
d="M712 386h-58l-244 341l-245 -342h-58l277 401h53z" />
    <glyph glyph-name="underscore" unicode="_" horiz-adv-x="500" 
d="M481 -136h-465v54h465v-54z" />
    <glyph glyph-name="grave" unicode="`" horiz-adv-x="1000" 
d="M381 543h-51l-87 127h51z" />
    <glyph glyph-name="a" unicode="a" horiz-adv-x="550" 
d="M479 368q0 -12 -3 -24l-65 -344h-50l10 49q-85 -58 -187 -58q-52 0 -92.5 27t-40.5 91q0 28 12.5 57t39 57.5t74.5 46t111 17.5q81 0 126 -10l9 49q5 25 5 27q0 45 -34 63t-99 18q-72 0 -146 -38l-13 45q85 37 182 37q73 0 117 -29.5t44 -80.5zM404 234q-30 10 -137 10
q-71 0 -118.5 -38t-47.5 -89q0 -44 26 -64t79 -20q82 0 171 62z" />
    <glyph glyph-name="b" unicode="b" horiz-adv-x="582" 
d="M545 294q0 -116 -76 -209t-192 -93q-65 0 -108 29.5t-55 61.5l-18 -82h-49l157 784h50l-83 -403q25 39 79 67.5t124 28.5q79 0 125 -47.5t46 -136.5zM490 291q0 65 -33.5 103.5t-99.5 38.5q-89 0 -152.5 -74.5t-63.5 -172.5q0 -62 34.5 -106t108.5 -44q84 0 145 75.5
t61 179.5z" />
    <glyph glyph-name="c" unicode="c" horiz-adv-x="516" 
d="M484 401l-40 -33q-39 66 -134 66q-90 0 -149.5 -76t-59.5 -174q0 -69 39 -108t102 -39q93 0 168 68l22 -43q-47 -42 -93 -56.5t-104 -14.5q-86 0 -137.5 51t-51.5 138q0 120 79.5 210t205.5 90q48 0 90 -20.5t63 -58.5z" />
    <glyph glyph-name="d" unicode="d" horiz-adv-x="582" 
d="M593 786l-153 -786l-49 -1l16 85q-69 -92 -200 -92q-75 0 -123.5 48t-48.5 137q0 69 31 137.5t94 116.5t143 48q66 0 106 -28t56 -67l79 402h49zM439 284q0 62 -34.5 106t-108.5 44q-85 0 -145 -78t-60 -173q0 -66 34 -105.5t98 -39.5q94 0 155 75.5t61 170.5z" />
    <glyph glyph-name="e" unicode="e" horiz-adv-x="535" 
d="M495 309q0 -34 -7 -70h-387q-4 -23 -4 -46q0 -79 43.5 -117.5t102.5 -38.5q100 0 182 79l25 -42q-57 -43 -105.5 -62.5t-110.5 -19.5q-82 0 -137.5 52.5t-55.5 142.5q0 129 83 211t200 82q76 0 123.5 -42t47.5 -129zM443 311q0 55 -34.5 89.5t-91.5 34.5
q-62 0 -120 -37.5t-84 -111.5h328q2 18 2 25z" />
    <glyph glyph-name="f" unicode="f" horiz-adv-x="291" 
d="M366 788l-8 -46h-14q-53 0 -71 -13.5t-29 -74.5l-35 -187h94l-9 -45h-94l-83 -422h-52l82 422h-77l9 45h77l38 196q7 34 19.5 58t26.5 37t36.5 20t41 8.5t48.5 1.5z" />
    <glyph glyph-name="g" unicode="g" horiz-adv-x="581" 
d="M543 468l-86 -444q-14 -69 -41.5 -115.5t-66.5 -68t-75 -29.5t-82 -8q-106 0 -180 61l36 39q23 -24 66 -40t77 -16q89 0 141.5 35t69.5 118l19 90q-26 -37 -79 -66.5t-122 -29.5q-76 0 -124 47t-48 136q0 121 75 211.5t192 90.5q65 0 104.5 -27.5t57.5 -65.5l17 82h49z
M451 284q0 62 -34.5 106t-108.5 44q-85 0 -145 -73.5t-60 -180.5q0 -65 33.5 -103.5t99.5 -38.5q94 0 154.5 76t60.5 170z" />
    <glyph glyph-name="h" unicode="h" horiz-adv-x="583" 
d="M498 357q0 -19 -4 -36l-62 -321h-50l56 288q6 30 6 53q0 48 -25 68t-74 20q-66 0 -114.5 -44.5t-60.5 -108.5l-54 -276h-50l152 783h50l-76 -391q35 48 81 66t83 18q57 0 99.5 -28.5t42.5 -90.5z" />
    <glyph glyph-name="i" unicode="i" horiz-adv-x="274" 
d="M250 693l-22 -113h-50l22 113h50zM206 468l-91 -468h-50l91 468h50z" />
    <glyph glyph-name="j" unicode="j" horiz-adv-x="274" 
d="M252 693l-22 -113h-50l22 113h50zM208 466l-95 -487q-12 -62 -59.5 -103t-122.5 -41q-5 0 -15 2l9 43q57 2 85 20q43 27 55 91l93 475h50z" />
    <glyph glyph-name="k" unicode="k" horiz-adv-x="504" 
d="M489 468l-225 -190l150 -278h-64l-132 241l-67 -54l-36 -187h-49l153 785h50l-102 -527l253 210h69z" />
    <glyph glyph-name="l" unicode="l" horiz-adv-x="274" 
d="M268 784l-152 -784h-50l152 784h50z" />
    <glyph glyph-name="m" unicode="m" horiz-adv-x="882" 
d="M816 357q0 -23 -3 -36l-62 -321l-52 -1l58 298q5 27 5 47q0 85 -106 85q-63 0 -111 -49t-58 -104l-54 -277h-50l56 288q6 29 6 53q0 90 -100 90q-66 0 -114 -46t-61 -114l-53 -270h-50l91 468h50l-15 -75q56 84 178 84q41 0 78.5 -24t47.5 -70q62 94 181 94
q61 0 99.5 -31.5t38.5 -88.5z" />
    <glyph glyph-name="n" unicode="n" horiz-adv-x="583" 
d="M497 357q0 -19 -4 -36l-62 -321h-50l56 288q6 30 6 53q0 48 -24.5 68t-74.5 20q-66 0 -114.5 -44.5t-60.5 -108.5l-54 -277h-50l91 468h50l-15 -75q35 48 81 66t83 18q57 0 99.5 -28.5t42.5 -90.5z" />
    <glyph glyph-name="o" unicode="o" horiz-adv-x="578" 
d="M533 292q0 -72 -27.5 -132t-71 -97t-94 -57t-99.5 -20q-83 0 -139.5 49t-56.5 140q0 51 18.5 103.5t53.5 99t92.5 76t127.5 29.5q96 0 146 -53.5t50 -137.5zM477 287q0 72 -42.5 110t-107.5 38q-97 0 -162 -73t-65 -177q0 -69 40 -109.5t111 -40.5q92 0 159 74t67 178z
" />
    <glyph glyph-name="p" unicode="p" horiz-adv-x="582" 
d="M543 294q0 -117 -75 -209.5t-193 -92.5q-64 0 -107.5 30t-55.5 61l-54 -280h-49l129 664h49l-17 -82q26 36 79.5 64.5t122.5 28.5q79 0 125 -49t46 -135zM488 291q0 65 -33.5 103.5t-99.5 38.5q-88 0 -152 -74.5t-64 -172.5q0 -62 34.5 -106t108.5 -44q90 0 148 80
t58 175z" />
    <glyph glyph-name="q" unicode="q" horiz-adv-x="582" 
d="M529 468l-132 -669h-49l55 281q-25 -36 -76.5 -62t-121.5 -26q-75 0 -123.5 48t-48.5 137q0 73 33.5 142t96 114.5t138.5 45.5q120 0 162 -96l17 85h49zM437 284q0 62 -34.5 106t-108.5 44q-82 0 -143.5 -73.5t-61.5 -177.5q0 -66 34 -105.5t98 -39.5q91 0 153.5 74.5
t62.5 171.5z" />
    <glyph glyph-name="r" unicode="r" horiz-adv-x="394" 
d="M441 445l-35 -48q-23 29 -73 29q-60 0 -106.5 -42.5t-57.5 -95.5l-56 -288h-50l91 468h50l-15 -78q31 49 75.5 68t84.5 19q53 0 92 -32z" />
    <glyph glyph-name="s" unicode="s" horiz-adv-x="435" 
d="M396 450l-28 -42q-44 29 -101 29q-55 0 -83 -27.5t-28 -63.5q0 -28 17 -45t47 -32l44 -22q56 -29 74 -53q19 -24 19 -56q0 -59 -46 -102t-138 -43q-85 0 -134 37l27 46q50 -38 115 -38q58 0 89.5 25t31.5 67q0 12 -4.5 22t-8.5 16.5t-15 14t-15.5 10t-19 9t-15.5 7.5
l-44 22q-77 39 -77 106q0 60 46 101.5t123 41.5q79 0 124 -30z" />
    <glyph glyph-name="t" unicode="t" horiz-adv-x="314" 
d="M302 468l-8 -42h-97l-53 -267q-6 -36 -6 -46q0 -44 16.5 -59t63.5 -15q18 0 34 4l-7 -40q-17 -6 -52 -6q-109 0 -109 104q0 14 6 48l53 277h-70l8 42h70l35 174h52l-33 -174h97z" />
    <glyph glyph-name="u" unicode="u" horiz-adv-x="583" 
d="M508 468l-91 -468h-50l15 75q-35 -48 -81 -66t-83 -18q-57 0 -99.5 28.5t-42.5 90.5q0 10 4 36l62 321h50l-56 -288q-7 -35 -7 -53q0 -48 25 -68t75 -20q66 0 114.5 44.5t60.5 108.5l54 277h50z" />
    <glyph glyph-name="v" unicode="v" horiz-adv-x="435" 
d="M441 468l-290 -496l-96 496h53l68 -364l211 364h54z" />
    <glyph glyph-name="w" unicode="w" horiz-adv-x="688" 
d="M701 468l-283 -500l-58 369l-204 -369l-89 500h55l60 -361l206 377l58 -371l200 355h55z" />
    <glyph glyph-name="x" unicode="x" horiz-adv-x="443" 
d="M448 468l-184 -219l114 -249h-56l-94 205l-173 -205h-60l211 251l-99 217h57l79 -174l146 174h59z" />
    <glyph glyph-name="y" unicode="y" horiz-adv-x="459" 
d="M451 468l-262 -529q-71 -141 -175 -141q-44 0 -67 10l21 44q27 -10 53 -10q44 0 82.5 46t47.5 80l-74 500h54l62 -422l206 422h52z" />
    <glyph glyph-name="z" unicode="z" horiz-adv-x="479" 
d="M472 459l-377 -411h291l-9 -48h-390l380 411h-274l9 48h370z" />
    <glyph glyph-name="braceleft" unicode="{" horiz-adv-x="435" 
d="M309 -199h-35q-100 0 -129 40.5t-12 127.5l33 169q6 35 7.5 63t-15.5 45.5t-54 17.5h-24l11 54h24q55 0 75.5 27.5t32.5 85.5l36 186q17 88 62 128.5t145 40.5h35l-9 -47h-38q-66 0 -92 -30.5t-37 -88.5l-32 -163q-2 -9 -5.5 -28.5t-5 -27t-6 -23t-10 -23t-15.5 -19
t-23 -18.5t-32 -15t-43 -14q21 -8 36.5 -17.5t25.5 -17.5t15.5 -20.5t8 -20t1 -23.5t-3 -23.5l-5.5 -28t-6 -29.5l-28 -143q-5 -33 -5 -59.5t21.5 -43t66.5 -16.5h38z" />
    <glyph glyph-name="bar" unicode="|" horiz-adv-x="292" 
d="M176 -187h-60v973h60v-973z" />
    <glyph glyph-name="braceright" unicode="}" horiz-adv-x="435" 
d="M344 264h-24q-54 0 -76 -32t-34 -94l-33 -169q-17 -87 -62 -127.5t-145 -40.5h-35l9 46h38q65 0 91.5 30.5t37.5 88.5l28 143q2 9 5.5 29.5t5 28t6.5 23.5t10.5 23.5t15.5 20t23 20.5t32 17.5t44 17.5q-19 6 -34 12t-24.5 14t-16.5 15t-9.5 17.5t-4 17.5t0.5 21t3.5 21.5
l5 24l5.5 25.5l32 163q5 33 5 59.5t-21.5 43t-66.5 16.5h-38l9 47h35q100 0 129 -40.5t12 -128.5l-36 -186q-6 -33 -7 -58t16 -40t55 -15h24z" />
    <glyph glyph-name="asciitilde" unicode="~" horiz-adv-x="549" 
d="M509 346q-7 -50 -33 -85t-61 -35q-39 0 -139 38t-108 38q-15 0 -22 -1t-20.5 -5t-22 -17t-13.5 -33h-50q7 50 33 84.5t61 34.5q42 0 131.5 -37.5t115.5 -37.5h17t17 2.5t19 8t13.5 17t11.5 28.5h50z" />
    <glyph glyph-name="nbspace" unicode="&#xa0;" horiz-adv-x="200" 
 />
    <glyph glyph-name="exclamdown" unicode="&#xa1;" horiz-adv-x="300" 
d="M258 597l-15 -78h-58l15 78h58zM197 399l-36 -277l-60 -307h-58l60 306l74 278h20z" />
    <glyph glyph-name="cent" unicode="&#xa2;" 
d="M610 476l-45 -34q-45 61 -140 66l-90 -460q92 4 178 77l30 -32q-54 -45 -101 -68t-116 -25l-18 -93h-31l18 94q-36 3 -70 16t-65 37.5t-50 66t-19 95.5q0 136 86.5 238.5t226.5 106.5l18 91h31l-18 -92q71 -4 116 -31t59 -53zM394 509q-53 -2 -97 -24t-71.5 -53
t-46 -69.5t-26 -72t-7.5 -61.5q0 -78 44.5 -126t113.5 -54z" />
    <glyph glyph-name="sterling" unicode="&#xa3;" 
d="M642 644q0 -18 -2 -34h-53v13q0 55 -37.5 88t-111.5 33q-82 0 -139.5 -51.5t-57.5 -111.5q0 -16 3 -31.5t10.5 -31.5t11.5 -23.5t15 -24.5t12 -18q58 -89 60 -96h179l-4 -20h-166q10 -26 10 -53h146l-4 -20h-143q-8 -68 -84 -160q62 -59 139 -59q106 0 134 106h59l1 -12
q0 -67 -58 -106t-140 -39q-90 0 -164 70q-25 -32 -48.5 -48.5t-36.5 -19t-33 -2.5q-38 0 -60 24.5t-22 52.5q0 44 28 69t80 25q38 0 85 -39q63 78 63 138h-155l4 20h150q-1 30 -17 53h-123l4 20h106l-45 67q0 1 -7.5 11.5t-8.5 12l-7.5 11.5t-8 13.5t-7 13t-7 14.5t-5 14
t-4.5 16t-2 15.5t-1 17.5q0 91 73.5 161.5t195.5 70.5q98 0 145.5 -44.5t47.5 -105.5zM224 86l-12 10q-12 9 -18 13t-19 8.5t-25 4.5q-14 0 -27.5 -11.5t-13.5 -37.5q0 -15 12.5 -25t34.5 -10q24 0 68 48z" />
    <glyph glyph-name="currency" unicode="&#xa4;" horiz-adv-x="500" 
d="M472 677l-95 -93q21 -34 21 -77q0 -50 -32 -90l104 -104l-26 -25l-103 104q-42 -29 -91 -29q-39 0 -75 21l-94 -94l-25 26l91 90q-41 44 -41 105q0 50 30 88l-79 80l26 25l79 -80q40 31 92 31q61 0 102 -43l91 91zM364 507q0 47 -31.5 80.5t-78.5 33.5t-80.5 -31.5
t-33.5 -78.5t31.5 -80.5t78.5 -33.5t80.5 31.5t33.5 78.5z" />
    <glyph glyph-name="yen" unicode="&#xa5;" 
d="M653 784l-304 -409l-15 -76h218l-5 -28h-218l-17 -87h218l-6 -27h-217l-31 -157h-56l30 157h-203l6 27h203l16 87h-202l5 28h203l15 75l-137 410h57l118 -372l273 372h49z" />
    <glyph glyph-name="brokenbar" unicode="&#xa6;" horiz-adv-x="292" 
d="M176 397h-60v389h60v-389zM176 -188h-60v389h60v-389z" />
    <glyph glyph-name="section" unicode="&#xa7;" horiz-adv-x="688" 
d="M625 764l-22 -41q-27 15 -69.5 26t-78.5 11q-74 0 -129.5 -32t-55.5 -86q0 -57 96 -95l129 -51q58 -22 88.5 -53.5t30.5 -91.5q0 -45 -21.5 -83.5t-57.5 -64.5t-71 -42.5t-72 -26.5q80 -44 80 -114q0 -74 -67 -119.5t-178 -45.5q-47 0 -93.5 11t-69.5 23l22 41
q27 -15 69.5 -26t78.5 -11q74 0 129.5 32t55.5 86q0 57 -96 95l-129 51q-58 22 -88.5 53.5t-30.5 91.5q0 45 21.5 83.5t57.5 64.5t71 42.5t72 26.5q-80 44 -80 114q0 74 67 119.5t178 45.5q47 0 93.5 -11t69.5 -23zM564 344q0 68 -104 109l-108 42q-227 -59 -227 -186
q0 -68 104 -109l108 -42q227 59 227 186z" />
    <glyph glyph-name="dieresis" unicode="&#xa8;" horiz-adv-x="624" 
d="M436 604l-11 -61h-56l11 61h56zM255 604l-11 -61h-56l11 61h56z" />
    <glyph glyph-name="copyright" unicode="&#xa9;" horiz-adv-x="604" 
d="M567 527q0 -109 -77.5 -187t-187.5 -78t-187.5 78t-77.5 187t77.5 187t187.5 78t187.5 -78t77.5 -187zM520 527q0 90 -64 154.5t-154 64.5t-153 -64.5t-63 -154.5t63 -154.5t153 -64.5t154 64.5t64 154.5zM427 428q-37 -68 -121 -68q-69 0 -108.5 45.5t-39.5 119.5
q0 71 41.5 116.5t105.5 45.5q66 0 110 -45l-30 -36q-33 34 -82 34q-43 0 -70.5 -31.5t-27.5 -83.5q0 -49 29.5 -84t75.5 -35t81 50z" />
    <glyph glyph-name="ordfeminine" unicode="&#xaa;" horiz-adv-x="324" 
d="M335 720q0 -3 -1.5 -8t-1.5 -6l-40 -208h-32l4 26q-50 -33 -109 -33q-32 0 -57 17t-25 57q0 39 35.5 73.5t108.5 34.5q44 0 74 -5l5 27q0 2 1.5 7.5t1.5 8.5q0 46 -78 46q-46 0 -88 -21l-9 29q54 23 111 23q45 0 72.5 -18.5t27.5 -49.5zM285 638q-25 5 -80 5
q-42 0 -69.5 -22t-27.5 -52q0 -48 60 -48q46 0 101 37z" />
    <glyph glyph-name="guillemotleft" unicode="&#xab;" horiz-adv-x="450" 
d="M429 410l-13 -65l-133 -112l91 -103l-11 -60l-126 141l11 58zM213 410l-13 -65l-133 -112l91 -103l-11 -60l-126 141l11 58z" />
    <glyph glyph-name="logicalnot" unicode="&#xac;" horiz-adv-x="549" 
d="M468 194h-58v187h-330v56h388v-243z" />
    <glyph glyph-name="registered" unicode="&#xae;" horiz-adv-x="604" 
d="M567 527q0 -109 -77.5 -187t-187.5 -78t-187.5 78t-77.5 187t77.5 187t187.5 78t187.5 -78t77.5 -187zM520 527q0 90 -64 154.5t-154 64.5t-153 -64.5t-63 -154.5t63 -154.5t153 -64.5t154 64.5t64 154.5zM423 381h-61l-108 138v-138h-45v299h104q41 0 67 -21.5t26 -63.5
q0 -37 -23.5 -62.5t-64.5 -25.5zM358 598q0 14 -2.5 21.5t-18 15.5t-45.5 8l-38 -2v-104l40 -2q21 -1 35 4.5t19.5 17t7.5 20.5t2 21z" />
    <glyph glyph-name="macron" unicode="&#xaf;" horiz-adv-x="500" 
d="M369 705l-15 -78h-222l15 78h222z" />
    <glyph glyph-name="degree" unicode="&#xb0;" horiz-adv-x="310" 
d="M276 580q0 -50 -35 -82.5t-88 -32.5q-57 0 -88 32t-31 83q0 47 35.5 81t86.5 34q53 0 86.5 -32.5t33.5 -82.5zM226 580q0 31 -20 51.5t-51 20.5t-51.5 -21t-20.5 -51q0 -33 20 -53t52 -20t51.5 20.5t19.5 52.5z" />
    <glyph glyph-name="plusminus" unicode="&#xb1;" horiz-adv-x="549" 
d="M467 263h-167v-166h-55v166h-165v55h165v166h55v-166h167v-55zM470 0h-391v55h391v-55z" />
    <glyph glyph-name="twosuperior" unicode="&#xb2;" horiz-adv-x="500" 
d="M411 735q0 -67 -89 -131l-136 -98h181l-10 -38h-267l219 167q49 41 49 84q0 56 -59 56q-34 0 -57 -18t-28 -44l-2 -12h-45l1 8q6 46 47.5 73.5t97.5 27.5q98 0 98 -75z" />
    <glyph glyph-name="threesuperior" unicode="&#xb3;" horiz-adv-x="500" 
d="M394 741q0 -33 -24 -62.5t-63 -43.5q26 -3 42 -19.5t16 -35.5q0 -51 -43.5 -85.5t-108.5 -34.5q-64 0 -107 28l28 30q39 -25 94 -25q37 0 64.5 22t27.5 56q0 45 -68 45h-34l9 34h40q34 0 58.5 23.5t24.5 54.5q0 19 -11 29t-22 11.5t-28 1.5q-16 0 -38.5 -10.5
t-39.5 -29.5l-24 24q50 50 126 50q42 0 61.5 -18t19.5 -45z" />
    <glyph glyph-name="acute" unicode="&#xb4;" horiz-adv-x="624" 
d="M381 670l-87 -127h-51l87 127h51z" />
    <glyph glyph-name="mu" unicode="&#xb5;" horiz-adv-x="541" 
d="M531 68q-21 -89 -110 -89q-33 0 -48.5 20.5t-24.5 55.5q-21 -21 -61 -43t-85 -22q-57 0 -84 30v-28q0 -29 14 -74t14 -60q0 -61 -44 -61q-40 0 -40 61q0 15 12 60t12 74v327q0 54 -9.5 69t-43.5 15h-7v22h12q12 0 29 -1t29 -1q10 0 25 1t25 1h13v-286q0 -46 21 -67.5
t69 -21.5q54 0 99 28v241q0 55 -9 69.5t-43 14.5h-9v22h14q11 0 28 -1t28 -1q10 0 25 1t25 1h14v-289q0 -58 9.5 -78t32.5 -20q7 0 13 1t9.5 2.5t8 5t6 5t6.5 8t7 8.5h18z" />
    <glyph glyph-name="paragraph" unicode="&#xb6;" horiz-adv-x="762" 
d="M714 723h-294v-663h293v-62h-300q-167 0 -286 112.5t-119 279.5q0 168 121.5 281.5t290.5 113.5h294v-62zM612 150h-64v479h64v-479z" />
    <glyph glyph-name="periodcentered" unicode="&#xb7;" horiz-adv-x="500" 
d="M361 313l-101 -119l-104 123l104 119z" />
    <glyph glyph-name="cedilla" unicode="&#xb8;" horiz-adv-x="500" 
d="M308 -95q0 -11 -3 -23q-19 -97 -162 -97q-53 0 -95 22l42 47q28 -14 66 -14q15 0 24 1t22 4.5t21 13t11 24.5v6q0 24 -46 24q-21 0 -51 -10l-16 23l76 114l59 -23l-44 -61q21 3 32 3q64 0 64 -54z" />
    <glyph glyph-name="onesuperior" unicode="&#xb9;" horiz-adv-x="500" 
d="M334 791l-88 -324h-45l72 268q-52 -42 -107 -45l10 39q74 4 125 62h33z" />
    <glyph glyph-name="ordmasculine" unicode="&#xba;" horiz-adv-x="356" 
d="M363 672q0 -86 -56 -136.5t-122 -50.5q-51 0 -85.5 30.5t-34.5 86.5q0 68 47.5 127t129.5 59q59 0 90 -32.5t31 -83.5zM324 669q0 42 -25 64t-63 22q-57 0 -95 -43t-38 -104q0 -41 23.5 -64.5t64.5 -23.5q54 0 93.5 43.5t39.5 105.5z" />
    <glyph glyph-name="guillemotright" unicode="&#xbb;" horiz-adv-x="450" 
d="M429 267l-11 -58l-181 -141l13 65l133 112l-91 103l11 60zM213 267l-11 -58l-181 -141l13 65l133 112l-91 103l11 60z" />
    <glyph glyph-name="onequarter" unicode="&#xbc;" 
d="M459 791l-88 -324h-45l72 268q-52 -42 -107 -45l10 39q74 4 125 62h33zM600 410l-7 -29h-493l7 29h493zM416 104l-10 -37h-60l-16 -67h-40l17 68h-170l7 33l242 233h27l-57 -230h60zM358 274l-178 -171h135z" />
    <glyph glyph-name="onehalf" unicode="&#xbd;" 
d="M459 791l-88 -324h-45l72 268q-52 -42 -107 -45l10 39q74 4 125 62h33zM600 410l-7 -29h-493l7 29h493zM441 267q0 -67 -89 -131l-136 -98h181l-10 -38h-267l219 167q49 41 49 84q0 56 -59 56q-34 0 -57 -18t-28 -44l-2 -12h-45l1 8q6 46 47.5 73.5t97.5 27.5
q98 0 98 -75z" />
    <glyph glyph-name="threequarters" unicode="&#xbe;" 
d="M505 741q0 -33 -24 -62.5t-63 -43.5q26 -3 42 -19.5t16 -35.5q0 -51 -43.5 -85.5t-108.5 -34.5q-64 0 -107 28l28 30q39 -25 94 -25q37 0 64.5 22t27.5 56q0 45 -68 45h-34l9 34h40q34 0 58.5 23.5t24.5 54.5q0 19 -11 29t-22 11.5t-28 1.5q-16 0 -38.5 -10.5
t-39.5 -29.5l-24 24q50 50 126 50q42 0 61.5 -18t19.5 -45zM600 410l-7 -29h-493l7 29h493zM416 104l-10 -37h-60l-16 -67h-40l17 68h-170l7 33l242 233h27l-57 -230h60zM358 274l-178 -171h135z" />
    <glyph glyph-name="questiondown" unicode="&#xbf;" horiz-adv-x="522" 
d="M430 598l-16 -78h-58l16 78h58zM438 -68q-20 -49 -75 -84.5t-129 -35.5q-24 0 -47.5 5.5t-47.5 17.5t-39 37t-15 59q0 45 31 101.5t62 91.5l31 34q33 39 52 64t42 73t33 102h57q-21 -107 -73 -180q-11 -15 -63 -75t-81 -108.5t-29 -90.5q0 -43 30.5 -62t76.5 -19
q15 0 30.5 3.5t35 12t38 26.5t31.5 43z" />
    <glyph glyph-name="Agrave" unicode="&#xc0;" horiz-adv-x="673" 
d="M461 843h-51l-87 127h51zM553 0h-57l-42 267h-277l-145 -267h-61l449 815zM445 315l-55 347l-186 -347h241z" />
    <glyph glyph-name="Aacute" unicode="&#xc1;" horiz-adv-x="673" 
d="M541 970l-87 -127h-51l87 127h51zM553 0h-57l-42 267h-277l-145 -267h-61l449 815zM445 315l-55 347l-186 -347h241z" />
    <glyph glyph-name="Acircumflex" unicode="&#xc2;" horiz-adv-x="673" 
d="M535 843h-43l-46 104l-85 -104h-43l107 129h51zM553 0h-57l-42 267h-277l-145 -267h-61l449 815zM445 315l-55 347l-186 -347h241z" />
    <glyph glyph-name="Atilde" unicode="&#xc3;" horiz-adv-x="673" 
d="M568 914q-5 -36 -28.5 -53.5t-47.5 -17.5q-22 0 -61.5 13t-59.5 13q-34 0 -40 -36h-34q5 31 25 51.5t47 20.5q23 0 62.5 -13.5t60.5 -13.5q37 0 40 36h36zM553 0h-57l-42 267h-277l-145 -267h-61l449 815zM445 315l-55 347l-186 -347h241z" />
    <glyph glyph-name="Adieresis" unicode="&#xc4;" horiz-adv-x="673" 
d="M556 904l-11 -61h-56l11 61h56zM375 904l-11 -61h-56l11 61h56zM553 0h-57l-42 267h-277l-145 -267h-61l449 815zM445 315l-55 347l-186 -347h241z" />
    <glyph glyph-name="Aring" unicode="&#xc5;" horiz-adv-x="673" 
d="M445 315l-55 347l-186 -347h241zM533 958q0 35 -21.5 57t-55.5 22q-42 0 -76.5 -35.5t-34.5 -77.5q0 -37 21 -58t56 -21q42 0 76.5 34t34.5 79zM416 808h-1q-49 0 -80.5 30t-31.5 76q0 62 51 111t114 49q48 0 79 -30.5t31 -76.5q0 -62 -47.5 -109t-109.5 -50l132 -808
h-57l-42 267h-277l-145 -267h-61z" />
    <glyph glyph-name="AE" unicode="&#xc6;" horiz-adv-x="1016" 
d="M995 784l-9 -47h-333l-60 -309h320l-9 -48h-320l-64 -331h358l-9 -49h-416l51 265h-302l-220 -265h-70l657 784h426zM597 740l-357 -427h273z" />
    <glyph glyph-name="Ccedilla" unicode="&#xc7;" horiz-adv-x="762" 
d="M739 710l-43 -37q-76 64 -199 64q-86 0 -163 -38t-128.5 -99t-81.5 -136.5t-30 -151.5q0 -122 72 -197t201 -75q135 0 263 100l28 -40q-61 -57 -137.5 -82.5t-148.5 -28.5l-33 -57q25 6 47 6q43 0 68.5 -20t25.5 -52q0 -49 -42 -79.5t-88 -30.5q-84 0 -136 44l30 35
q40 -38 104 -38q29 0 53.5 18t24.5 40q0 21 -19 32t-45 11q-45 0 -61 -11l-26 31l41 73q-131 11 -207 92.5t-76 220.5q0 131 64 243t173 177.5t236 65.5q154 0 233 -80z" />
    <glyph glyph-name="Egrave" unicode="&#xc8;" horiz-adv-x="624" 
d="M431 843h-51l-87 127h51zM603 784l-9 -49h-333l-60 -306h320l-9 -50h-320l-64 -328h359l-10 -51h-416l152 784h390z" />
    <glyph glyph-name="Eacute" unicode="&#xc9;" horiz-adv-x="624" 
d="M491 970l-87 -127h-51l87 127h51zM603 784l-9 -49h-333l-60 -306h320l-9 -50h-320l-64 -328h359l-10 -51h-416l152 784h390z" />
    <glyph glyph-name="Ecircumflex" unicode="&#xca;" horiz-adv-x="624" 
d="M510 843h-43l-46 104l-85 -104h-43l107 129h51zM603 784l-9 -49h-333l-60 -306h320l-9 -50h-320l-64 -328h359l-10 -51h-416l152 784h390z" />
    <glyph glyph-name="Edieresis" unicode="&#xcb;" horiz-adv-x="624" 
d="M541 904l-11 -61h-56l11 61h56zM360 904l-11 -61h-56l11 61h56zM603 784l-9 -49h-333l-60 -306h320l-9 -50h-320l-64 -328h359l-10 -51h-416l152 784h390z" />
    <glyph glyph-name="Igrave" unicode="&#xcc;" horiz-adv-x="328" 
d="M281 843h-51l-87 127h51zM268 784l-152 -784h-56l152 784h56z" />
    <glyph glyph-name="Iacute" unicode="&#xcd;" horiz-adv-x="328" 
d="M351 970l-87 -127h-51l87 127h51zM268 784l-152 -784h-56l152 784h56z" />
    <glyph glyph-name="Icircumflex" unicode="&#xce;" horiz-adv-x="328" 
d="M353 843h-43l-46 104l-85 -104h-43l107 129h51zM268 784l-152 -784h-56l152 784h56z" />
    <glyph glyph-name="Idieresis" unicode="&#xcf;" horiz-adv-x="328" 
d="M376 904l-11 -61h-56l11 61h56zM195 904l-11 -61h-56l11 61h56zM268 784l-152 -784h-56l152 784h56z" />
    <glyph glyph-name="Eth" unicode="&#xd0;" horiz-adv-x="813" 
d="M761 481q0 -114 -41 -207t-110.5 -151.5t-157 -89.5t-183.5 -31h-208l73 378h-140l9 38h138l72 368h198q160 0 255 -76.5t95 -228.5zM700 475q0 54 -15 98.5t-49 82t-98 58.5t-153 21h-124l-62 -317h141l-9 -38h-139l-64 -329h138q188 0 311 121t123 303z" />
    <glyph glyph-name="Ntilde" unicode="&#xd1;" horiz-adv-x="865" 
d="M643 914q-5 -36 -28.5 -53.5t-47.5 -17.5q-22 0 -61.5 13t-59.5 13q-34 0 -40 -36h-34q4 31 24.5 51.5t47.5 20.5q23 0 62.5 -13.5t60.5 -13.5q37 0 40 36h36zM807 798l-160 -823l-404 681l-128 -656h-56l158 815l405 -681l129 664h56z" />
    <glyph glyph-name="Ograve" unicode="&#xd2;" horiz-adv-x="885" 
d="M581 843h-51l-87 127h51zM846 478q0 -91 -34 -178.5t-94.5 -157.5t-153 -112.5t-200.5 -42.5q-154 0 -239 89.5t-85 226.5q0 80 33.5 164t93 156.5t153 118.5t201.5 46q160 0 242.5 -87t82.5 -223zM784 475q0 124 -74 194t-199 70q-108 0 -203 -62t-150 -160.5
t-55 -204.5q0 -123 76 -197t195 -74q166 0 288 127.5t122 306.5z" />
    <glyph glyph-name="Oacute" unicode="&#xd3;" horiz-adv-x="885" 
d="M651 970l-87 -127h-51l87 127h51zM846 478q0 -91 -34 -178.5t-94.5 -157.5t-153 -112.5t-200.5 -42.5q-154 0 -239 89.5t-85 226.5q0 80 33.5 164t93 156.5t153 118.5t201.5 46q160 0 242.5 -87t82.5 -223zM784 475q0 124 -74 194t-199 70q-108 0 -203 -62t-150 -160.5
t-55 -204.5q0 -123 76 -197t195 -74q166 0 288 127.5t122 306.5z" />
    <glyph glyph-name="Ocircumflex" unicode="&#xd4;" horiz-adv-x="885" 
d="M650 843h-43l-46 104l-85 -104h-43l107 129h51zM846 478q0 -91 -34 -178.5t-94.5 -157.5t-153 -112.5t-200.5 -42.5q-154 0 -239 89.5t-85 226.5q0 80 33.5 164t93 156.5t153 118.5t201.5 46q160 0 242.5 -87t82.5 -223zM784 475q0 124 -74 194t-199 70q-108 0 -203 -62
t-150 -160.5t-55 -204.5q0 -123 76 -197t195 -74q166 0 288 127.5t122 306.5z" />
    <glyph glyph-name="Otilde" unicode="&#xd5;" horiz-adv-x="885" 
d="M678 914q-5 -36 -28.5 -53.5t-47.5 -17.5q-22 0 -61.5 13t-59.5 13q-34 0 -40 -36h-34q5 31 25 51.5t47 20.5q23 0 62.5 -13.5t60.5 -13.5q37 0 40 36h36zM846 478q0 -91 -34 -178.5t-94.5 -157.5t-153 -112.5t-200.5 -42.5q-154 0 -239 89.5t-85 226.5q0 80 33.5 164
t93 156.5t153 118.5t201.5 46q160 0 242.5 -87t82.5 -223zM784 475q0 124 -74 194t-199 70q-108 0 -203 -62t-150 -160.5t-55 -204.5q0 -123 76 -197t195 -74q166 0 288 127.5t122 306.5z" />
    <glyph glyph-name="Odieresis" unicode="&#xd6;" horiz-adv-x="885" 
d="M666 904l-11 -61h-56l11 61h56zM485 904l-11 -61h-56l11 61h56zM846 478q0 -91 -34 -178.5t-94.5 -157.5t-153 -112.5t-200.5 -42.5q-154 0 -239 89.5t-85 226.5q0 80 33.5 164t93 156.5t153 118.5t201.5 46q160 0 242.5 -87t82.5 -223zM784 475q0 124 -74 194t-199 70
q-108 0 -203 -62t-150 -160.5t-55 -204.5q0 -123 76 -197t195 -74q166 0 288 127.5t122 306.5z" />
    <glyph glyph-name="multiply" unicode="&#xd7;" horiz-adv-x="549" 
d="M486 100l-41 -45l-169 188l-164 -180l-41 45l164 180l-164 180l41 45l164 -180l169 188l41 -45l-169 -188z" />
    <glyph glyph-name="Oslash" unicode="&#xd8;" horiz-adv-x="885" 
d="M846 478q0 -91 -34 -178.5t-94.5 -157.5t-153 -112.5t-200.5 -42.5q-107 0 -187 48l-82 -95l-32 22l83 95q-106 88 -106 246q0 80 33.5 164t93 156.5t153 118.5t201.5 46q129 0 211 -60l80 91l31 -20l-83 -95q86 -85 86 -226zM693 683q-70 56 -182 56q-108 0 -203 -62
t-150 -160.5t-55 -204.5q0 -131 86 -206zM784 475q0 113 -64 183l-501 -575q67 -42 155 -42q166 0 288 127.5t122 306.5z" />
    <glyph glyph-name="Ugrave" unicode="&#xd9;" horiz-adv-x="858" 
d="M531 843h-51l-87 127h51zM801 785l-92 -471q-12 -61 -41 -117.5t-73.5 -103t-109 -74t-138.5 -27.5q-123 0 -186 70t-63 181q0 36 8 81l90 461h56l-86 -440q-10 -50 -10 -94q0 -104 54.5 -155.5t147.5 -51.5q115 0 194.5 80t108.5 229l84 432h56z" />
    <glyph glyph-name="Uacute" unicode="&#xda;" horiz-adv-x="858" 
d="M581 970l-87 -127h-51l87 127h51zM801 785l-92 -471q-12 -61 -41 -117.5t-73.5 -103t-109 -74t-138.5 -27.5q-123 0 -186 70t-63 181q0 36 8 81l90 461h56l-86 -440q-10 -50 -10 -94q0 -104 54.5 -155.5t147.5 -51.5q115 0 194.5 80t108.5 229l84 432h56z" />
    <glyph glyph-name="Ucircumflex" unicode="&#xdb;" horiz-adv-x="858" 
d="M600 843h-43l-46 104l-85 -104h-43l107 129h51zM801 785l-92 -471q-12 -61 -41 -117.5t-73.5 -103t-109 -74t-138.5 -27.5q-123 0 -186 70t-63 181q0 36 8 81l90 461h56l-86 -440q-10 -50 -10 -94q0 -104 54.5 -155.5t147.5 -51.5q115 0 194.5 80t108.5 229l84 432h56z
" />
    <glyph glyph-name="Udieresis" unicode="&#xdc;" horiz-adv-x="858" 
d="M616 904l-11 -61h-56l11 61h56zM435 904l-11 -61h-56l11 61h56zM801 785l-92 -471q-12 -61 -41 -117.5t-73.5 -103t-109 -74t-138.5 -27.5q-123 0 -186 70t-63 181q0 36 8 81l90 461h56l-86 -440q-10 -50 -10 -94q0 -104 54.5 -155.5t147.5 -51.5q115 0 194.5 80
t108.5 229l84 432h56z" />
    <glyph glyph-name="Yacute" unicode="&#xdd;" horiz-adv-x="582" 
d="M491 970l-87 -127h-51l87 127h51zM646 784l-336 -417l-72 -367h-56l72 366l-177 417h61l155 -357l287 358h66z" />
    <glyph glyph-name="Thorn" unicode="&#xde;" horiz-adv-x="650" 
d="M592 467q0 -103 -81.5 -181.5t-232.5 -78.5h-122l-42 -207h-56l152 784h58l-28 -140h139q101 -4 157 -48t56 -129zM530 463q0 56 -36 94t-126 38h-137l-66 -338h118q115 0 181 56t66 150z" />
    <glyph glyph-name="germandbls" unicode="&#xdf;" horiz-adv-x="582" 
d="M541 669q0 -25 -7.5 -52.5t-25 -58.5t-54 -54t-86.5 -30l-1 -4q69 -19 109 -77t40 -131q0 -51 -16 -99t-46 -87.5t-79 -63.5t-110 -24q-38 0 -91 20l8 41q39 -18 92 -18q85 0 138 69t53 164q0 81 -51.5 126t-136.5 69l9 46h35q64 0 116 42t52 115q0 35 -22.5 59t-76.5 24
q-132 0 -165 -171l-111 -574h-52l115 592q21 106 82.5 151t139.5 45q61 0 101.5 -32t40.5 -87z" />
    <glyph glyph-name="agrave" unicode="&#xe0;" horiz-adv-x="550" 
d="M381 543h-51l-87 127h51zM479 368q0 -12 -3 -24l-65 -344h-50l10 49q-85 -58 -187 -58q-52 0 -92.5 27t-40.5 91q0 28 12.5 57t39 57.5t74.5 46t111 17.5q81 0 126 -10l9 49q5 25 5 27q0 45 -34 63t-99 18q-72 0 -146 -38l-13 45q85 37 182 37q73 0 117 -29.5t44 -80.5z
M404 234q-30 10 -137 10q-71 0 -118.5 -38t-47.5 -89q0 -44 26 -64t79 -20q82 0 171 62z" />
    <glyph glyph-name="aacute" unicode="&#xe1;" horiz-adv-x="550" 
d="M441 670l-87 -127h-51l87 127h51zM479 368q0 -12 -3 -24l-65 -344h-50l10 49q-85 -58 -187 -58q-52 0 -92.5 27t-40.5 91q0 28 12.5 57t39 57.5t74.5 46t111 17.5q81 0 126 -10l9 49q5 25 5 27q0 45 -34 63t-99 18q-72 0 -146 -38l-13 45q85 37 182 37q73 0 117 -29.5
t44 -80.5zM404 234q-30 10 -137 10q-71 0 -118.5 -38t-47.5 -89q0 -44 26 -64t79 -20q82 0 171 62z" />
    <glyph glyph-name="acircumflex" unicode="&#xe2;" horiz-adv-x="550" 
d="M440 543h-43l-46 104l-85 -104h-43l107 129h51zM479 368q0 -12 -3 -24l-65 -344h-50l10 49q-85 -58 -187 -58q-52 0 -92.5 27t-40.5 91q0 28 12.5 57t39 57.5t74.5 46t111 17.5q81 0 126 -10l9 49q5 25 5 27q0 45 -34 63t-99 18q-72 0 -146 -38l-13 45q85 37 182 37
q73 0 117 -29.5t44 -80.5zM404 234q-30 10 -137 10q-71 0 -118.5 -38t-47.5 -89q0 -44 26 -64t79 -20q82 0 171 62z" />
    <glyph glyph-name="atilde" unicode="&#xe3;" horiz-adv-x="550" 
d="M478 614q-5 -36 -28.5 -53.5t-47.5 -17.5q-22 0 -61.5 13t-59.5 13q-34 0 -40 -36h-34q5 31 25 51.5t47 20.5q23 0 62.5 -13.5t60.5 -13.5q37 0 40 36h36zM479 368q0 -12 -3 -24l-65 -344h-50l10 49q-85 -58 -187 -58q-52 0 -92.5 27t-40.5 91q0 28 12.5 57t39 57.5
t74.5 46t111 17.5q81 0 126 -10l9 49q5 25 5 27q0 45 -34 63t-99 18q-72 0 -146 -38l-13 45q85 37 182 37q73 0 117 -29.5t44 -80.5zM404 234q-30 10 -137 10q-71 0 -118.5 -38t-47.5 -89q0 -44 26 -64t79 -20q82 0 171 62z" />
    <glyph glyph-name="adieresis" unicode="&#xe4;" horiz-adv-x="550" 
d="M456 604l-11 -61h-56l11 61h56zM275 604l-11 -61h-56l11 61h56zM479 368q0 -12 -3 -24l-65 -344h-50l10 49q-85 -58 -187 -58q-52 0 -92.5 27t-40.5 91q0 28 12.5 57t39 57.5t74.5 46t111 17.5q81 0 126 -10l9 49q5 25 5 27q0 45 -34 63t-99 18q-72 0 -146 -38l-13 45
q85 37 182 37q73 0 117 -29.5t44 -80.5zM404 234q-30 10 -137 10q-71 0 -118.5 -38t-47.5 -89q0 -44 26 -64t79 -20q82 0 171 62z" />
    <glyph glyph-name="aring" unicode="&#xe5;" horiz-adv-x="550" 
d="M508 667q0 -64 -50 -111.5t-113 -47.5q-49 0 -80.5 30t-31.5 76q0 62 51 111t114 49q48 0 79 -30.5t31 -76.5zM479 368q0 -12 -3 -24l-65 -344h-50l10 49q-85 -58 -187 -58q-52 0 -92.5 27t-40.5 91q0 28 12.5 57t39 57.5t74.5 46t111 17.5q81 0 126 -10l9 49q5 25 5 27
q0 45 -34 63t-99 18q-72 0 -146 -38l-13 45q85 37 182 37q73 0 117 -29.5t44 -80.5zM463 658q0 35 -21.5 57t-55.5 22q-42 0 -76.5 -35.5t-34.5 -77.5q0 -37 21 -58t56 -21q42 0 76.5 34t34.5 79zM404 234q-30 10 -137 10q-71 0 -118.5 -38t-47.5 -89q0 -44 26 -64t79 -20
q82 0 171 62z" />
    <glyph glyph-name="ae" unicode="&#xe6;" horiz-adv-x="896" 
d="M856 305q0 -35 -7 -71h-100h-285q-9 -32 -9 -59q0 -65 42 -102t105 -37q57 0 99 19.5t83 56.5l25 -42q-58 -43 -106 -62.5t-110 -19.5t-111 29t-72 73q-32 -29 -53.5 -45.5t-68 -35.5t-97.5 -19q-69 0 -106 28.5t-37 76.5q0 76 65 130.5t192 54.5h110l10 47q3 13 3 24
q0 28 -14 47t-36.5 25.5t-35 8t-26.5 1.5q-33 0 -63 -6t-47 -12.5t-47 -19.5l-11 45q87 37 177 37q69 0 111 -20.5t46 -78.5q30 47 86 72.5t117 25.5q76 0 123.5 -42t47.5 -129zM804 311q0 54 -35.5 87.5t-90.5 33.5t-116 -38t-86 -113h326q2 20 2 30zM408 237h-101
q-90 0 -146.5 -32.5t-56.5 -99.5q0 -35 24 -54t69 -19q48 0 100 24.5t92 75.5z" />
    <glyph glyph-name="ccedilla" unicode="&#xe7;" horiz-adv-x="516" 
d="M481 401l-40 -33q-39 66 -134 66q-90 0 -149.5 -76t-59.5 -174q0 -69 39 -108t102 -39q93 0 168 68l22 -43q-75 -68 -180 -71l-42 -57q23 5 41 5q35 0 55 -17.5t20 -43.5q0 -40 -29 -62t-71 -23q-46 0 -121 39l25 30q48 -30 96 -30q22 0 38 10.5t16 28.5q0 30 -53 30
q-34 0 -52 -10l-17 32l49 70q-74 8 -117.5 58t-43.5 129q0 120 79.5 210t205.5 90q48 0 90 -20.5t63 -58.5z" />
    <glyph glyph-name="egrave" unicode="&#xe8;" horiz-adv-x="535" 
d="M381 543h-51l-87 127h51zM495 309q0 -34 -7 -70h-387q-4 -23 -4 -46q0 -79 43.5 -117.5t102.5 -38.5q100 0 182 79l25 -42q-57 -43 -105.5 -62.5t-110.5 -19.5q-82 0 -137.5 52.5t-55.5 142.5q0 129 83 211t200 82q76 0 123.5 -42t47.5 -129zM443 311q0 55 -34.5 89.5
t-91.5 34.5q-62 0 -120 -37.5t-84 -111.5h328q2 18 2 25z" />
    <glyph glyph-name="eacute" unicode="&#xe9;" horiz-adv-x="535" 
d="M441 670l-87 -127h-51l87 127h51zM495 309q0 -34 -7 -70h-387q-4 -23 -4 -46q0 -79 43.5 -117.5t102.5 -38.5q100 0 182 79l25 -42q-57 -43 -105.5 -62.5t-110.5 -19.5q-82 0 -137.5 52.5t-55.5 142.5q0 129 83 211t200 82q76 0 123.5 -42t47.5 -129zM443 311
q0 55 -34.5 89.5t-91.5 34.5q-62 0 -120 -37.5t-84 -111.5h328q2 18 2 25z" />
    <glyph glyph-name="ecircumflex" unicode="&#xea;" horiz-adv-x="535" 
d="M430 543h-43l-46 104l-85 -104h-43l107 129h51zM495 309q0 -34 -7 -70h-387q-4 -23 -4 -46q0 -79 43.5 -117.5t102.5 -38.5q100 0 182 79l25 -42q-57 -43 -105.5 -62.5t-110.5 -19.5q-82 0 -137.5 52.5t-55.5 142.5q0 129 83 211t200 82q76 0 123.5 -42t47.5 -129z
M443 311q0 55 -34.5 89.5t-91.5 34.5q-62 0 -120 -37.5t-84 -111.5h328q2 18 2 25z" />
    <glyph glyph-name="edieresis" unicode="&#xeb;" horiz-adv-x="535" 
d="M446 604l-11 -61h-56l11 61h56zM265 604l-11 -61h-56l11 61h56zM495 309q0 -34 -7 -70h-387q-4 -23 -4 -46q0 -79 43.5 -117.5t102.5 -38.5q100 0 182 79l25 -42q-57 -43 -105.5 -62.5t-110.5 -19.5q-82 0 -137.5 52.5t-55.5 142.5q0 129 83 211t200 82q76 0 123.5 -42
t47.5 -129zM443 311q0 55 -34.5 89.5t-91.5 34.5q-62 0 -120 -37.5t-84 -111.5h328q2 18 2 25z" />
    <glyph glyph-name="igrave" unicode="&#xec;" horiz-adv-x="274" 
d="M231 543h-51l-87 127h51zM206 468l-91 -468h-50l91 468h50z" />
    <glyph glyph-name="iacute" unicode="&#xed;" horiz-adv-x="274" 
d="M311 670l-87 -127h-51l87 127h51zM206 468l-91 -468h-50l91 468h50z" />
    <glyph glyph-name="icircumflex" unicode="&#xee;" horiz-adv-x="274" 
d="M295 539h-43l-46 104l-85 -104h-43l107 129h51zM206 468l-91 -468h-50l91 468h50z" />
    <glyph glyph-name="idieresis" unicode="&#xef;" horiz-adv-x="274" 
d="M316 604l-11 -61h-56l11 61h56zM135 604l-11 -61h-56l11 61h56zM206 468l-91 -468h-50l91 468h50z" />
    <glyph glyph-name="eth" unicode="&#xf0;" horiz-adv-x="579" 
d="M554 676q-116 -36 -117 -36q101 -165 101 -354q0 -133 -64.5 -214t-177.5 -81q-112 0 -179.5 72.5t-67.5 203.5q0 101 66 171.5t171 70.5q114 0 181 -86q-13 89 -81 201l-126 -38l-11 36l116 35q-57 85 -115 131h71q55 -56 95 -115l127 39zM479 262q0 57 -20.5 99t-52 62
t-60 28.5t-55.5 8.5q-67 0 -124.5 -52t-57.5 -143q0 -101 48 -164t137 -63q81 0 133 66.5t52 157.5z" />
    <glyph glyph-name="ntilde" unicode="&#xf1;" horiz-adv-x="583" 
d="M508 614q-5 -36 -28.5 -53.5t-47.5 -17.5q-22 0 -61.5 13t-59.5 13q-34 0 -40 -36h-34q5 31 25 51.5t47 20.5q23 0 62.5 -13.5t60.5 -13.5q37 0 40 36h36zM497 357q0 -19 -4 -36l-62 -321h-50l56 288q6 30 6 53q0 48 -24.5 68t-74.5 20q-66 0 -114.5 -44.5t-60.5 -108.5
l-54 -277h-50l91 468h50l-15 -75q35 48 81 66t83 18q57 0 99.5 -28.5t42.5 -90.5z" />
    <glyph glyph-name="ograve" unicode="&#xf2;" horiz-adv-x="578" 
d="M381 543h-51l-87 127h51zM533 292q0 -72 -27.5 -132t-71 -97t-94 -57t-99.5 -20q-83 0 -139.5 49t-56.5 140q0 51 18.5 103.5t53.5 99t92.5 76t127.5 29.5q96 0 146 -53.5t50 -137.5zM477 287q0 72 -42.5 110t-107.5 38q-97 0 -162 -73t-65 -177q0 -69 40 -109.5
t111 -40.5q92 0 159 74t67 178z" />
    <glyph glyph-name="oacute" unicode="&#xf3;" horiz-adv-x="578" 
d="M461 670l-87 -127h-51l87 127h51zM533 292q0 -72 -27.5 -132t-71 -97t-94 -57t-99.5 -20q-83 0 -139.5 49t-56.5 140q0 51 18.5 103.5t53.5 99t92.5 76t127.5 29.5q96 0 146 -53.5t50 -137.5zM477 287q0 72 -42.5 110t-107.5 38q-97 0 -162 -73t-65 -177q0 -69 40 -109.5
t111 -40.5q92 0 159 74t67 178z" />
    <glyph glyph-name="ocircumflex" unicode="&#xf4;" horiz-adv-x="578" 
d="M450 543h-43l-46 104l-85 -104h-43l107 129h51zM533 292q0 -72 -27.5 -132t-71 -97t-94 -57t-99.5 -20q-83 0 -139.5 49t-56.5 140q0 51 18.5 103.5t53.5 99t92.5 76t127.5 29.5q96 0 146 -53.5t50 -137.5zM477 287q0 72 -42.5 110t-107.5 38q-97 0 -162 -73t-65 -177
q0 -69 40 -109.5t111 -40.5q92 0 159 74t67 178z" />
    <glyph glyph-name="otilde" unicode="&#xf5;" horiz-adv-x="578" 
d="M488 614q-5 -36 -28.5 -53.5t-47.5 -17.5q-22 0 -61.5 13t-59.5 13q-34 0 -40 -36h-34q5 31 25 51.5t47 20.5q23 0 62.5 -13.5t60.5 -13.5q37 0 40 36h36zM533 292q0 -72 -27.5 -132t-71 -97t-94 -57t-99.5 -20q-83 0 -139.5 49t-56.5 140q0 51 18.5 103.5t53.5 99
t92.5 76t127.5 29.5q96 0 146 -53.5t50 -137.5zM477 287q0 72 -42.5 110t-107.5 38q-97 0 -162 -73t-65 -177q0 -69 40 -109.5t111 -40.5q92 0 159 74t67 178z" />
    <glyph glyph-name="odieresis" unicode="&#xf6;" horiz-adv-x="578" 
d="M476 604l-11 -61h-56l11 61h56zM295 604l-11 -61h-56l11 61h56zM533 292q0 -72 -27.5 -132t-71 -97t-94 -57t-99.5 -20q-83 0 -139.5 49t-56.5 140q0 51 18.5 103.5t53.5 99t92.5 76t127.5 29.5q96 0 146 -53.5t50 -137.5zM477 287q0 72 -42.5 110t-107.5 38
q-97 0 -162 -73t-65 -177q0 -69 40 -109.5t111 -40.5q92 0 159 74t67 178z" />
    <glyph glyph-name="divide" unicode="&#xf7;" horiz-adv-x="550" 
d="M328 371q0 -24 -16.5 -40t-41.5 -16q-22 0 -37.5 16.5t-15.5 39.5t16.5 39.5t39.5 16.5t39 -16t16 -40zM464 198h-379v55h379v-55zM328 81q0 -24 -16.5 -40t-41.5 -16q-22 0 -37.5 16.5t-15.5 39.5t16.5 39.5t39.5 16.5t39 -16t16 -40z" />
    <glyph glyph-name="oslash" unicode="&#xf8;" horiz-adv-x="578" 
d="M559 535l-85 -99q57 -52 57 -144q0 -72 -27.5 -132t-71 -97t-94 -57t-99.5 -20q-71 0 -124 36l-73 -84l-22 22l72 82q-49 51 -49 133q0 51 18.5 103.5t53.5 99t92.5 76t127.5 29.5q67 0 115 -29l88 101zM413 411q-36 24 -88 24q-97 0 -162 -73t-65 -177q0 -60 31 -100z
M475 287q0 67 -39 106l-285 -329q38 -29 98 -29q92 0 159 74t67 178z" />
    <glyph glyph-name="ugrave" unicode="&#xf9;" horiz-adv-x="583" 
d="M381 543h-51l-87 127h51zM508 468l-91 -468h-50l15 75q-35 -48 -81 -66t-83 -18q-57 0 -99.5 28.5t-42.5 90.5q0 10 4 36l62 321h50l-56 -288q-7 -35 -7 -53q0 -48 25 -68t75 -20q66 0 114.5 44.5t60.5 108.5l54 277h50z" />
    <glyph glyph-name="uacute" unicode="&#xfa;" horiz-adv-x="583" 
d="M431 670l-87 -127h-51l87 127h51zM508 468l-91 -468h-50l15 75q-35 -48 -81 -66t-83 -18q-57 0 -99.5 28.5t-42.5 90.5q0 10 4 36l62 321h50l-56 -288q-7 -35 -7 -53q0 -48 25 -68t75 -20q66 0 114.5 44.5t60.5 108.5l54 277h50z" />
    <glyph glyph-name="ucircumflex" unicode="&#xfb;" horiz-adv-x="583" 
d="M440 543h-43l-46 104l-85 -104h-43l107 129h51zM508 468l-91 -468h-50l15 75q-35 -48 -81 -66t-83 -18q-57 0 -99.5 28.5t-42.5 90.5q0 10 4 36l62 321h50l-56 -288q-7 -35 -7 -53q0 -48 25 -68t75 -20q66 0 114.5 44.5t60.5 108.5l54 277h50z" />
    <glyph glyph-name="udieresis" unicode="&#xfc;" horiz-adv-x="583" 
d="M466 604l-11 -61h-56l11 61h56zM285 604l-11 -61h-56l11 61h56zM508 468l-91 -468h-50l15 75q-35 -48 -81 -66t-83 -18q-57 0 -99.5 28.5t-42.5 90.5q0 10 4 36l62 321h50l-56 -288q-7 -35 -7 -53q0 -48 25 -68t75 -20q66 0 114.5 44.5t60.5 108.5l54 277h50z" />
    <glyph glyph-name="yacute" unicode="&#xfd;" horiz-adv-x="459" 
d="M381 670l-87 -127h-51l87 127h51zM451 468l-262 -529q-71 -141 -175 -141q-44 0 -67 10l21 44q27 -10 53 -10q44 0 82.5 46t47.5 80l-74 500h54l62 -422l206 422h52z" />
    <glyph glyph-name="thorn" unicode="&#xfe;" horiz-adv-x="582" 
d="M543 294q0 -117 -75 -209.5t-193 -92.5q-64 0 -107.5 30t-55.5 61l-54 -280h-49l193 983h49l-81 -401q26 36 79.5 64.5t122.5 28.5q79 0 125 -49t46 -135zM488 291q0 65 -33.5 103.5t-99.5 38.5q-88 0 -152 -74.5t-64 -172.5q0 -62 34.5 -106t108.5 -44q90 0 148 80
t58 175z" />
    <glyph glyph-name="ydieresis" unicode="&#xff;" horiz-adv-x="459" 
d="M393 604l-11 -61h-56l11 61h56zM212 604l-11 -61h-56l11 61h56zM451 468l-262 -529q-71 -141 -175 -141q-44 0 -67 10l21 44q27 -10 53 -10q44 0 82.5 46t47.5 80l-74 500h54l62 -422l206 422h52z" />
    <glyph glyph-name="dotlessi" unicode="&#x131;" horiz-adv-x="274" 
d="M206 468l-91 -468h-50l91 468h50z" />
    <glyph glyph-name="Lslash" unicode="&#x141;" horiz-adv-x="538" 
d="M467 51l-10 -51h-398l71 368l-119 -56l-19 35l147 69l72 368h56l-66 -339l117 54l19 -35l-144 -67l-67 -346h341z" />
    <glyph glyph-name="lslash" unicode="&#x142;" horiz-adv-x="274" 
d="M348 464l-156 -73l-76 -391h-50l71 365l-115 -53l-19 35l143 67l72 370h50l-67 -344l128 59z" />
    <glyph glyph-name="OE" unicode="&#x152;" horiz-adv-x="1242" 
d="M1224 784l-9 -47h-333l-60 -309h320l-9 -48h-320l-64 -331h358l-9 -49h-417l31 160q-147 -173 -347 -173q-148 0 -237 86t-89 233q0 86 37 172.5t99 155t150.5 111.5t183.5 43q104 0 179.5 -44t113.5 -125l32 165h390zM768 477q0 123 -72 192.5t-195 69.5
q-99 0 -192 -61.5t-150 -158.5t-57 -197q0 -129 73.5 -204.5t200.5 -75.5q86 0 160.5 38t124.5 99.5t78.5 139.5t28.5 158z" />
    <glyph glyph-name="oe" unicode="&#x153;" horiz-adv-x="961" 
d="M921 309q0 -34 -7 -70h-387q-4 -23 -4 -46q0 -79 43.5 -117.5t102.5 -38.5q100 0 182 79l25 -42q-57 -43 -105.5 -62.5t-110.5 -19.5t-112 37t-70 96q-43 -63 -109.5 -101t-129.5 -38q-83 0 -139.5 49t-56.5 140q0 51 18.5 103.5t53.5 99t92.5 76t127.5 29.5
q72 0 119 -36.5t66 -93.5q41 57 102 92t128 35q76 0 123.5 -42t47.5 -129zM869 311q0 55 -34.5 89.5t-91.5 34.5q-62 0 -120 -37.5t-84 -111.5h328q2 18 2 25zM475 287q0 72 -42.5 110t-107.5 38q-97 0 -162 -73t-65 -177q0 -69 40 -109.5t111 -40.5q92 0 159 74t67 178z
" />
    <glyph glyph-name="Scaron" unicode="&#x160;" horiz-adv-x="564" 
d="M510 973l-107 -129h-51l-59 129h43l46 -104l85 104h43zM539 726l-39 -37q-27 35 -60 45.5t-76 10.5q-72 0 -125.5 -43t-53.5 -124q0 -73 76 -119l110 -69q100 -62 100 -166q0 -94 -67 -162t-189 -68q-118 0 -189 92l39 38q66 -83 159 -83q73 0 128 46t55 133
q0 74 -77 123l-110 70q-98 62 -98 165q0 97 74.5 158t176.5 61q109 0 166 -71z" />
    <glyph glyph-name="scaron" unicode="&#x161;" horiz-adv-x="435" 
d="M410 673l-107 -129h-51l-59 129h43l46 -104l85 104h43zM396 450l-28 -42q-44 29 -101 29q-55 0 -83 -27.5t-28 -63.5q0 -28 17 -45t47 -32l44 -22q56 -29 74 -53q19 -24 19 -56q0 -59 -46 -102t-138 -43q-85 0 -134 37l27 46q50 -38 115 -38q58 0 89.5 25t31.5 67
q0 12 -4.5 22t-8.5 16.5t-15 14t-15.5 10t-19 9t-15.5 7.5l-44 22q-77 39 -77 106q0 60 46 101.5t123 41.5q79 0 124 -30z" />
    <glyph glyph-name="Ydieresis" unicode="&#x178;" horiz-adv-x="582" 
d="M486 904l-11 -61h-56l11 61h56zM305 904l-11 -61h-56l11 61h56zM646 784l-336 -417l-72 -367h-56l72 366l-177 417h61l155 -357l287 358h66z" />
    <glyph glyph-name="Zcaron" unicode="&#x17d;" horiz-adv-x="696" 
d="M540 973l-107 -129h-51l-59 129h43l46 -104l85 104h43zM714 784l-622 -732h478l-10 -52h-579l621 735h-452l9 49h555z" />
    <glyph glyph-name="zcaron" unicode="&#x17e;" horiz-adv-x="479" 
d="M400 673l-107 -129h-51l-59 129h43l46 -104l85 104h43zM472 459l-373 -411h287l-9 -48h-390l376 411h-270l9 48h370z" />
    <glyph glyph-name="florin" unicode="&#x192;" 
d="M643 787l-22 -44q-38 4 -50 4q-47 0 -72.5 -31.5t-49.5 -123.5l-42 -160h146l-11 -44h-146l-100 -395q-23 -88 -60.5 -124.5t-98.5 -36.5q-34 0 -80 11l18 50q30 -8 74 -8q61 0 86 95l104 408h-130l11 44h130l50 195q24 93 66.5 129.5t127.5 36.5q19 0 49 -6z" />
    <glyph glyph-name="circumflex" unicode="&#x2c6;" horiz-adv-x="322" 
d="M270 543h-43l-46 104l-85 -104h-43l107 129h51z" />
    <glyph glyph-name="caron" unicode="&#x2c7;" horiz-adv-x="322" 
d="M270 673l-107 -129h-51l-59 129h43l46 -104l85 104h43z" />
    <glyph glyph-name="breve" unicode="&#x2d8;" horiz-adv-x="500" 
d="M354 708l-13 -74q-15 -19 -64.5 -45.5t-105.5 -26.5q-40 0 -67 27t-33 49l20 72q10 -21 17.5 -34t29.5 -27.5t52 -14.5q49 0 96.5 25t67.5 49z" />
    <glyph glyph-name="dotaccent" unicode="&#x2d9;" horiz-adv-x="500" 
d="M398 633q0 -8 -1 -12q-5 -27 -28.5 -46.5t-50.5 -19.5q-24 0 -39 15t-15 38q0 8 1 12q5 27 28.5 46.5t50.5 19.5q24 0 39 -15t15 -38z" />
    <glyph glyph-name="ring" unicode="&#x2da;" horiz-adv-x="500" 
d="M388 667q0 -64 -50 -111.5t-113 -47.5q-49 0 -80.5 30t-31.5 76q0 62 51 111t114 49q48 0 79 -30.5t31 -76.5zM343 658q0 35 -21.5 57t-55.5 22q-42 0 -76.5 -35.5t-34.5 -77.5q0 -37 21 -58t56 -21q42 0 76.5 34t34.5 79z" />
    <glyph glyph-name="ogonek" unicode="&#x2db;" horiz-adv-x="500" 
d="M280 -142l-11 -60q-37 0 -64 2t-57 8.5t-46 21t-16 37.5q0 9 1 14q14 72 137 157l46 -28q-66 -58 -81 -78q-13 -18 -16 -35v-6q0 -34 75 -34q7 0 18 0.5t14 0.5z" />
    <glyph glyph-name="tilde" unicode="&#x2dc;" horiz-adv-x="884" 
d="M578 614q-5 -36 -28.5 -53.5t-47.5 -17.5q-22 0 -61.5 13t-59.5 13q-34 0 -40 -36h-34q5 31 25 51.5t47 20.5q23 0 62.5 -13.5t60.5 -13.5q37 0 40 36h36z" />
    <glyph glyph-name="hungarumlaut" unicode="&#x2dd;" horiz-adv-x="500" 
d="M473 671l-18 -96h-88l18 96h88zM302 671l-18 -96h-87l18 96h87z" />
    <glyph glyph-name="pi" unicode="&#x3c0;" horiz-adv-x="549" 
d="M506 136q0 -65 -31 -106t-73 -41q-35 0 -54.5 28t-19.5 76l18 257h-131l-22 -174q-16 -127 -30 -157q-15 -32 -44 -32q-25 0 -38.5 12t-13.5 31q0 17 10.5 32t23.5 25.5t26.5 34t18.5 54.5l27 174h-54q-22 0 -44 -14t-33 -42h-15l3 10q2 9 4.5 15l7 17.5t10 20.5t13 20
t17 19t21 15.5t26.5 11t32 3.5h338v-76h-111q-12 -142 -12 -174q0 -50 12 -78t48 -28q20 0 36 21t16 45h18z" />
    <glyph glyph-name="endash" unicode="&#x2013;" horiz-adv-x="500" 
d="M471 266l-8 -40h-433l8 40h433z" />
    <glyph glyph-name="emdash" unicode="&#x2014;" horiz-adv-x="1000" 
d="M971 266l-8 -40h-933l8 40h933z" />
    <glyph glyph-name="quoteleft" unicode="&#x2018;" horiz-adv-x="250" 
d="M187 786q-40 -78 -50 -134l-15 -78h-58l8 41q13 69 29.5 101.5t50.5 69.5h35z" />
    <glyph glyph-name="quoteright" unicode="&#x2019;" horiz-adv-x="250" 
d="M187 786l-8 -41q-14 -69 -30.5 -101.5t-49.5 -69.5h-35q39 80 50 134l15 78h58z" />
    <glyph glyph-name="quotesinglbase" unicode="&#x201a;" horiz-adv-x="250" 
d="M199 115q-18 -109 -48 -164q-7 -13 -16 -25.5t-15 -19.5l-18 -20t-17 -18h-34q10 10 18 21.5t12.5 18.5t11 22l8 18.5t8.5 23t8 21.5q10 33 21 91l6 31h55z" />
    <glyph glyph-name="quotedblleft" unicode="&#x201c;" horiz-adv-x="450" 
d="M399 784l-11.5 -13.5t-10.5 -14l-8 -12t-7 -13.5t-6 -12.5t-6 -14t-5 -13.5l-5.5 -16l-5.5 -16q-5 -15 -12 -45.5l-12 -53.5l-4 -23h-55q1 3 4 17t4 20q13 73 40 127q6 12 15 24l15.5 20t18.5 20.5t17 18.5h34zM199 784l-11.5 -13.5t-10.5 -14l-8 -12t-7 -13.5t-6 -12.5
t-6 -14t-5 -13.5l-5.5 -16l-5.5 -16q-5 -15 -12 -45.5l-12 -53.5l-4 -23h-55q1 3 4 17t4 20q13 73 40 127q6 12 15 24l15.5 20t18.5 20.5t17 18.5h34z" />
    <glyph glyph-name="quotedblright" unicode="&#x201d;" horiz-adv-x="450" 
d="M399 784q-5 -27 -7 -37q-16 -78 -40 -127q-8 -15 -18 -28t-27.5 -32t-21.5 -23h-34q6 6 11 12.5l9 11.5t8.5 12l7 11t6 12l5 11.5t5 13t4.5 12.5t5 14t5 15q5 15 12 45.5t11 53.5l4 23h55zM199 784q-5 -27 -7 -37q-16 -78 -40 -127q-8 -15 -18 -28t-27.5 -32t-21.5 -23
h-34q6 6 11 12.5l9 11.5t8.5 12l7 11t6 12l5 11.5t5 13t4.5 12.5t5 14t5 15q5 15 12 45.5t11 53.5l4 23h55z" />
    <glyph glyph-name="quotedblbase" unicode="&#x201e;" horiz-adv-x="250" 
d="M299 115q-18 -109 -48 -164q-7 -14 -16 -26.5t-15.5 -19.5l-18 -19t-16.5 -18h-34q10 10 18 21.5t12.5 18.5t11 22l8 18.5t8.5 23t8 21.5q10 33 21 91l6 31h55zM99 115q-18 -109 -48 -164q-7 -14 -16 -26.5t-15.5 -19.5l-18 -19t-16.5 -18h-34q10 10 18 21.5t12.5 18.5
t11 22l8 18.5t8.5 23t8 21.5q10 33 21 91l6 31h55z" />
    <glyph glyph-name="dagger" unicode="&#x2020;" horiz-adv-x="510" 
d="M558 551l-15 -52h-208l-189 -686h-55l188 686h-207l15 52h208l65 235h55l-65 -235h208z" />
    <glyph glyph-name="daggerdbl" unicode="&#x2021;" horiz-adv-x="510" 
d="M558 551l-14 -52h-207l-91 -337h223l-15 -50h-222l-82 -299h-55l82 299h-202l15 50h202l90 337h-205l14 52h207l64 235h55l-64 -235h205z" />
    <glyph glyph-name="bullet" unicode="&#x2022;" horiz-adv-x="500" 
d="M430 310l-168 -198l-174 204l173 198z" />
    <glyph glyph-name="ellipsis" unicode="&#x2026;" horiz-adv-x="1000" 
d="M838 80l-16 -78h-58l16 78h58zM549 80l-16 -78h-58l16 78h58zM237 80l-16 -78h-58l16 78h58z" />
    <glyph glyph-name="perthousand" unicode="&#x2030;" horiz-adv-x="1000" 
d="M454 657q0 -100 -76 -171t-179 -71q-67 0 -109 41.5t-42 105.5q0 99 78.5 170.5t176.5 71.5q68 0 109.5 -41.5t41.5 -105.5zM744 782l-432 -781h-60l431 781h61zM952 231q0 -100 -76 -171t-179 -71q-67 0 -109 41.5t-42 105.5q0 99 78.5 170.5t176.5 71.5
q68 0 109.5 -41.5t41.5 -105.5zM397 646q0 48 -29 80.5t-77 32.5q-75 0 -130.5 -55.5t-55.5 -132.5q0 -47 30.5 -78.5t77.5 -31.5q74 0 129 54.5t55 130.5zM895 220q0 48 -29 80.5t-77 32.5q-75 0 -130.5 -55.5t-55.5 -132.5q0 -47 30.5 -78.5t77.5 -31.5q74 0 129 54.5
t55 130.5z" />
    <glyph glyph-name="guilsinglleft" unicode="&#x2039;" horiz-adv-x="242" 
d="M217 410l-13 -65l-133 -112l91 -103l-11 -60l-126 141l11 58z" />
    <glyph glyph-name="guilsinglright" unicode="&#x203a;" horiz-adv-x="242" 
d="M217 267l-11 -58l-181 -141l13 65l133 112l-91 103l11 60z" />
    <glyph glyph-name="fraction" unicode="&#x2044;" horiz-adv-x="100" 
d="M207 786l-291 -785l-48 -1l290 786h49z" />
    <glyph glyph-name="trademark" unicode="&#x2122;" horiz-adv-x="840" 
d="M745 393h-40v325l-132 -197h-21l-136 198v-326h-39v393h51l137 -214l128 214h52v-393zM284 748h-103v-355h-43v355h-103v38h249v-38z" />
    <glyph glyph-name="Omega" unicode="&#x2126;" horiz-adv-x="768" 
d="M736 0h-295l16 140q62 24 107 86.5t45 177.5t-56.5 191t-167.5 76q-113 0 -168.5 -73.5t-55.5 -193.5q0 -116 46 -180t106 -84l16 -140h-295v150h25q9 -37 22 -49t44 -12h148l-2 28q-102 23 -158 106.5t-56 180.5q0 136 92 217.5t236 81.5q149 0 238.5 -81t89.5 -218
q0 -64 -20 -120.5t-70 -103.5t-124 -63l-3 -28h149q31 0 44 12t22 49h25v-150z" />
    <glyph glyph-name="partialdiff" unicode="&#x2202;" horiz-adv-x="494" 
d="M462 393q0 -107 -25.5 -196.5t-85 -150.5t-144.5 -61q-76 0 -121 47t-45 143q0 132 58.5 197.5t141.5 65.5q51 0 80 -14t61 -49q3 36 3 75q0 104 -39.5 156t-129.5 52q-17 0 -31.5 -1.5t-23.5 -3.5t-19.5 -6t-14 -6l-13 -7.5t-10.5 -6.5l-39 50q56 28 134 28
q125 0 194 -89.5t69 -222.5zM377 335q-16 18 -25.5 27t-34 20t-52.5 11q-70 0 -105.5 -58t-35.5 -160q0 -87 22.5 -122.5t69.5 -35.5q136 0 161 318z" />
    <glyph glyph-name="Delta" unicode="&#x2206;" horiz-adv-x="612" 
d="M608 0h-602l320 688zM484 49l-194 468l-218 -468h412z" />
    <glyph glyph-name="product" unicode="&#x220f;" horiz-adv-x="823" 
d="M803 -101h-306v23q49 0 72.5 16t23.5 65v693h-358v-693q0 -49 23.5 -65t73.5 -16v-23h-307v23q50 0 73.5 16t23.5 65v626q0 99 -95 99v23h773v-23q-94 0 -94 -99v-626q0 -49 23.5 -65t73.5 -16v-23z" />
    <glyph glyph-name="summation" unicode="&#x2211;" horiz-adv-x="713" 
d="M695 122q-30 -123 -43 -224q-72 11 -77 11h-503q-10 0 -29 -1.5t-29 -1.5l349 398l-347 454q8 0 46 -3.5t58 -3.5h497l6 -159h-20q-1 5 -4 13q-8 28 -14 41.5t-21.5 30t-43 23t-70.5 6.5h-263l273 -358l-294 -339h371q51 0 80 24t55 89h23z" />
    <glyph glyph-name="minus" unicode="&#x2212;" horiz-adv-x="549" 
d="M508 270h-468v50h468v-50z" />
    <glyph glyph-name="radical" unicode="&#x221a;" horiz-adv-x="549" 
d="M515 912l-150 -950l-243 502l-96 -47l-16 33l146 72l197 -403l127 798z" />
    <glyph glyph-name="infinity" unicode="&#x221e;" horiz-adv-x="713" 
d="M687 269q0 -62 -39 -103.5t-96 -41.5q-48 0 -86.5 22t-108.5 85q-62 -59 -104 -82.5t-99 -23.5q-58 0 -92.5 35.5t-34.5 98.5q0 62 39 103.5t96 41.5q48 0 86.5 -22t108.5 -85q63 59 104.5 82.5t98.5 23.5q58 0 92.5 -35.5t34.5 -98.5zM633 268q0 44 -26 65.5t-65 21.5
q-35 0 -67.5 -20t-84.5 -71q59 -50 93 -69t63 -19q87 0 87 92zM324 264q-59 50 -93 69t-63 19q-87 0 -87 -92q0 -44 26 -65.5t65 -21.5q35 0 67.5 20t84.5 71z" />
    <glyph glyph-name="integral" unicode="&#x222b;" horiz-adv-x="274" 
d="M291 822q0 -20 -15 -33t-37 -13q-14 0 -29.5 13t-20.5 13q-18 0 -18 -24q-1 -13 9 -133t10 -197l-1 -216q-1 -201 -38 -295q-32 -84 -93 -84q-26 0 -42 15t-16 34q0 18 12 34t34 16q23 0 36.5 -12t22.5 -12q6 0 11 13.5t8 38.5t2 54q-6 239 -6 314v144q0 222 26 310
q8 27 31 50.5t52 23.5q62 0 62 -54z" />
    <glyph glyph-name="approxequal" unicode="&#x2248;" horiz-adv-x="549" 
d="M479 310q-18 -34 -49 -53t-63 -19q-16 0 -33 5l-120 39q-19 4 -34 6q-15 0 -27.5 -4t-21.5 -12t-14 -13.5t-11 -14.5l-7 -10l-36 37q49 71 117 71q24 0 42 -6l121 -38q7 -2 24 -2q19 0 43 11.5t39 36.5zM479 180q-18 -34 -49 -52.5t-63 -18.5q-20 0 -33 4l-120 39
q-19 4 -34 6q-15 0 -27.5 -4t-21.5 -12t-14 -13.5t-11 -14.5l-7 -10l-36 37q49 71 117 71q24 0 42 -6l121 -38q14 -2 24 -2q19 0 43 11.5t39 36.5z" />
    <glyph glyph-name="notequal" unicode="&#x2260;" horiz-adv-x="549" 
d="M464 129h-202l-42 -107h-49l42 107h-128v55h149l30 82h-179v55h198l37 104h49l-36 -104h131v-55h-151l-30 -82h181v-55z" />
    <glyph glyph-name="lessequal" unicode="&#x2264;" horiz-adv-x="549" 
d="M455 101l-391 163v56l391 174v-57l-321 -143l321 -130v-63zM456 0h-391v55h391v-55z" />
    <glyph glyph-name="greaterequal" unicode="&#x2265;" horiz-adv-x="549" 
d="M482 265l-391 -164v57l321 133l-321 140v63l391 -173v-56zM484 0h-391v55h391v-55z" />
    <glyph glyph-name="lozenge" unicode="&#x25ca;" horiz-adv-x="494" 
d="M466 377l-194 -377h-60l-194 377l194 368h60zM406 377l-164 314l-164 -314l164 -323z" />
    <glyph glyph-name="fi" unicode="&#xfb01;" horiz-adv-x="540" 
d="M514 693l-22 -113h-50l22 113h50zM470 467l-92 -467h-50l82 422h-209l-83 -422h-52l81 422h-77l9 45h77l39 196q7 35 19.5 58.5t26.5 36t37 19t40.5 8t48.5 1.5l-8 -43h-9q-53 0 -73 -14t-32 -74l-35 -188h260z" />
    <glyph glyph-name="fl" unicode="&#xfb02;" horiz-adv-x="542" 
d="M533 785l-153 -785h-50l153 785h50zM368 786l-8 -43q-4 -1 -10 -1q-53 0 -73 -14t-32 -74l-35 -188h94l-9 -45h-94l-83 -422h-52l81 422h-77l9 45h77l39 196q9 43 23 69.5t37.5 37.5t43 14t54.5 3h15z" />
    <glyph glyph-name="percent" horiz-adv-x="1000" 
d="M454 657q0 -100 -76 -171t-179 -71q-67 0 -109 41.5t-42 105.5q0 99 78.5 170.5t176.5 71.5q68 0 109.5 -41.5t41.5 -105.5zM744 782l-432 -781h-60l431 781h61zM952 231q0 -100 -76 -171t-179 -71q-67 0 -109 41.5t-42 105.5q0 99 78.5 170.5t176.5 71.5
q68 0 109.5 -41.5t41.5 -105.5zM397 646q0 48 -29 80.5t-77 32.5q-75 0 -130.5 -55.5t-55.5 -132.5q0 -47 30.5 -78.5t77.5 -31.5q74 0 129 54.5t55 130.5zM895 220q0 48 -29 80.5t-77 32.5q-75 0 -130.5 -55.5t-55.5 -132.5q0 -47 30.5 -78.5t77.5 -31.5q74 0 129 54.5
t55 130.5z" />
    <glyph glyph-name="apple" horiz-adv-x="804" 
d="M672 272q0 -118 -64 -199.5t-139 -81.5q-29 0 -41.5 8.5t-18.5 8.5q-5 0 -19.5 -8.5t-48.5 -8.5q-23 0 -55 14.5t-68.5 45t-62 90.5t-25.5 138q0 164 135 164q44 0 71 -13t33 -13q9 0 14 6.5t5.5 18.5t-0.5 24t-3 29.5t-2 28.5q-2 105 54 146q15 11 43.5 19.5t50 13
t38.5 19t17 38.5h3q22 -59 4 -134q-8 -36 -39 -59.5t-62.5 -32.5t-56.5 -24t-25 -37q0 -59 29 -59q6 0 15.5 7t31.5 14.5t59 7.5q42 0 69.5 -14.5t39 -42.5t15 -52.5t3.5 -61.5zM582 709q-7 -16 -20 -30.5t-21 -21t-32 -22t-29 -19.5q-57 -39 -80 -104q13 25 27.5 42t24 24
t29 19.5l31.5 20.5q66 48 70 91zM312 137q-24 51 -24.5 83.5t10.5 58t11 42.5q0 41 -30 41q-28 0 -40 -18.5t-12 -43.5q0 -55 85 -163z" />
    </font>
</defs>
</svg>
