<?xml version="1.0" encoding="iso-8859-1"?>
<!-- Generator: Adobe Illustrator 18.1.1, SVG Export Plug-In . SVG Version: 6.00 Build 0)  -->
<svg version="1.1" id="Layer_1" xmlns="http://www.w3.org/2000/svg" xmlns:xlink="http://www.w3.org/1999/xlink" x="0px" y="0px"
	 viewBox="0 0 612 792" style="enable-background:new 0 0 612 792;" xml:space="preserve">
<path d="M467.323,357.011c16.053-4.519,27.093-22.456,27.093-39.771c0-34.112-22.832-53.056-74.254-53.056h-62.377v197.723h78.943
	c48.164,0,65.216-28.496,65.216-56.083C501.939,379.481,485.382,361.276,467.323,357.011 M400.154,301.846h20.526
	c21.815,0,29.842,10.267,29.842,20.055c0,12.292-6.016,22.314-29.607,22.314h-20.761V301.846z M428.4,424.246h-28.246v-47.077
	h26.029c23.331,0,32.62,8.865,32.62,24.918c0,15.549-12.555,22.159-29.866,22.159"/>
<path d="M0,527.815h612v-42.369H0V527.815z"/>
<path d="M259.808,463.876c57.693,0,79.146-37.629,79.146-79.268V264.185h-47.077v116.906c0,29.856-7.834,43.65-34.178,43.65
	c-26.589,0-36.438-13.539-36.438-43.65V264.185h-42.369v120.423C178.892,428.507,202.365,463.876,259.808,463.876"/>
<path d="M42.369,377.169h70.615v84.738h47.077V264.185h-47.077v80.031H42.369v-80.031H0v197.723h42.369V377.169z"/>
</svg>
