<?xml version="1.0" encoding="iso-8859-1"?>
<!-- Generator: Adobe Illustrator 18.1.1, SVG Export Plug-In . SVG Version: 6.00 Build 0)  -->
<svg version="1.1" id="Layer_1" xmlns="http://www.w3.org/2000/svg" xmlns:xlink="http://www.w3.org/1999/xlink" x="0px" y="0px"
	 viewBox="0 0 612 792" style="enable-background:new 0 0 612 792;" xml:space="preserve">
<path d="M251.229,592.039c-67.091,0-130.188-26.089-177.632-73.436C26.121,471.256,0,408.288,0,341.326
	c0-66.994,26.121-129.963,73.597-177.31c47.444-47.347,110.541-73.436,177.632-73.436s130.188,26.089,177.664,73.436
	c97.947,97.754,97.947,256.833,0,354.587C381.417,565.982,318.32,592.039,251.229,592.039z M251.229,153.258
	c-50.31,0-97.657,19.551-133.216,55.077c-35.623,35.526-55.206,82.777-55.206,132.99s19.583,97.464,55.206,132.958
	c35.559,35.494,82.906,55.077,133.216,55.077s97.657-19.551,133.248-55.077c73.436-73.34,73.436-192.641,0-265.948
	C348.886,172.841,301.571,153.258,251.229,153.258z"/>
<path d="M567.616,701.42L380.773,514.931l44.416-44.319l186.843,186.489L567.616,701.42z"/>
</svg>
