<?xml version="1.0" encoding="iso-8859-1"?>
<!-- Generator: Adobe Illustrator 18.1.1, SVG Export Plug-In . SVG Version: 6.00 Build 0)  -->
<svg version="1.1" id="Layer_1" xmlns="http://www.w3.org/2000/svg" xmlns:xlink="http://www.w3.org/1999/xlink" x="0px" y="0px"
	 viewBox="0 0 612 792" style="enable-background:new 0 0 612 792;" xml:space="preserve">
<path d="M409.335,239.388c-14.293,0-25.845-11.613-25.845-25.907c0-67.185-12.353-103.628-77.474-103.628
	c-65.491,0-77.474,34.902-77.474,103.628c0,14.324-11.552,25.907-25.814,25.907c-14.293,0-25.814-11.613-25.814-25.907
	c0-42.511,0-155.41,129.134-155.41s129.134,112.9,129.134,155.41C435.149,227.806,423.598,239.388,409.335,239.388z"/>
<path d="M555.935,293.327c-1.386-11.028-11.305-11.737-22.087-11.737H78.152c-10.782,0-20.67,0.709-22.087,11.737L0.339,703.186
	c-2.341,18.391,7.301,30.743,21.563,30.743h568.195c14.232,0,23.874-12.353,21.533-30.743L555.935,293.327z M189.789,368.892
	c-21.379,0-38.722-17.405-38.722-38.845s17.343-38.845,38.722-38.845s38.753,17.405,38.753,38.845
	C228.541,351.487,211.198,368.892,189.789,368.892z M422.242,368.892c-21.379,0-38.753-17.405-38.753-38.845
	s17.343-38.845,38.753-38.845c21.379,0,38.753,17.405,38.753,38.845C460.995,351.487,443.621,368.892,422.242,368.892z"/>
</svg>
