<?xml version="1.0" encoding="iso-8859-1"?>
<!-- Generator: Adobe Illustrator 18.1.1, SVG Export Plug-In . SVG Version: 6.00 Build 0)  -->
<svg version="1.1" id="Layer_1" xmlns="http://www.w3.org/2000/svg" xmlns:xlink="http://www.w3.org/1999/xlink" x="0px" y="0px"
	 viewBox="0 0 17.001 19.95" style="enable-background:new 0 0 17.001 19.95;" xml:space="preserve">
<path d="M11.262,12.208c-0.123-0.04-0.902-0.391-0.415-1.872h-0.007c1.268-1.307,2.238-3.411,2.238-5.482
	C13.077,1.669,10.96,0,8.501,0C6.04,0,3.936,1.669,3.936,4.854c0,2.079,0.964,4.192,2.24,5.496c0.497,1.305-0.392,1.79-0.578,1.858
	C3.022,13.14,0,14.84,0,16.517c0,0.453,0,0.179,0,0.628c0,2.286,4.428,2.805,8.525,2.805c4.104,0,8.475-0.519,8.475-2.805
	c0-0.45,0-0.176,0-0.628C17.001,14.789,13.964,13.103,11.262,12.208z"/>
</svg>
