<?xml version="1.0" encoding="iso-8859-1"?>
<!-- Generator: Adobe Illustrator 18.1.1, SVG Export Plug-In . SVG Version: 6.00 Build 0)  -->
<svg version="1.1" id="Layer_1" xmlns="http://www.w3.org/2000/svg" xmlns:xlink="http://www.w3.org/1999/xlink" x="0px" y="0px"
	 viewBox="0 0 14.976 16.99" style="enable-background:new 0 0 14.976 16.99;" xml:space="preserve">
<path d="M8.837,16.99c-3.696,0-6.097-2.005-6.947-5.277H0l0.212-1.751h1.381c0,0-0.107-0.697-0.085-1.899H0.212L0.425,6.31h1.21
	C2.359,2.385,5.226,0,9.262,0c3.803,0,5.544,1.667,5.544,1.667l-1.168,1.942c0,0-1.508-1.52-4.376-1.52
	c-2.889,0-4.589,1.688-5.163,4.221h6.48v1.752H3.93c-0.021,1.33,0.107,1.899,0.107,1.899h7.138v1.751H4.419
	c0.68,1.963,2.209,3.208,4.695,3.208c3.251,0,4.717-1.92,4.717-1.92l1.146,1.794C14.976,14.795,13.256,16.99,8.837,16.99z"/>
</svg>
