<?xml version="1.0" standalone="no"?>
<!DOCTYPE svg PUBLIC "-//W3C//DTD SVG 1.1//EN" "http://www.w3.org/Graphics/SVG/1.1/DTD/svg11.dtd" >
<svg>
<metadata>
Created by FontForge 20090622 at Thu Apr 16 19:36:41 2015
 By deploy user
Version 1.0/ created on 06-11-94/Copr.1994 by Dutch Type Library/ URW
</metadata>
<defs>
<font id="DTLNobelT-Bold" horiz-adv-x="500" >
  <font-face 
    font-family="DTLNobelT"
    font-weight="700"
    font-stretch="normal"
    units-per-em="1000"
    panose-1="2 0 8 5 5 0 0 2 0 3"
    ascent="800"
    descent="-200"
    x-height="469"
    cap-height="786"
    bbox="-166 -227 1386 1075"
    underline-thickness="20"
    underline-position="-113"
    unicode-range="U+0020-U+FB02"
  />
<missing-glyph 
 />
    <glyph glyph-name=".notdef" 
 />
    <glyph glyph-name=".null" horiz-adv-x="0" 
 />
    <glyph glyph-name="nonmarkingreturn" horiz-adv-x="333" 
 />
    <glyph glyph-name="space" unicode=" " horiz-adv-x="200" 
 />
    <glyph glyph-name="exclam" unicode="!" horiz-adv-x="300" 
d="M234 473l-31 -271h-107l-28 271v313h166v-313zM219 0h-139v142h139v-142z" />
    <glyph glyph-name="quotedbl" unicode="&#x22;" horiz-adv-x="457" 
d="M412 786l-25 -247h-112l-25 247h162zM202 786l-25 -247h-112l-25 247h162z" />
    <glyph glyph-name="numbersign" unicode="#" horiz-adv-x="800" 
d="M767 457h-149l-61 -156h140v-104h-180l-76 -197h-143l76 197h-127l-76 -197h-143l76 197h-104v104h144l60 156h-134v104h174l87 224h144l-87 -224h126l87 224h144l-87 -224h109v-104zM474 457h-126l-61 -156h127z" />
    <glyph glyph-name="dollar" unicode="$" horiz-adv-x="700" 
d="M624 225q0 -90 -55 -151.5t-158 -76.5v-102h-33v98q-10 -1 -32 -1h-15v-97h-33v99q-99 7 -216 93l95 128q52 -55 121 -72v197l-46 24q-74 39 -116.5 96t-42.5 120q0 83 56.5 141t148.5 73v70h33v-66q9 1 27 1q13 0 20 -1v66h33v-68q95 -12 180 -74l-90 -122
q-44 38 -90 50v-187l33 -16q180 -89 180 -222zM298 523v121q-33 -19 -33 -57q0 -39 33 -64zM378 480v177q-7 1 -20 1q-9 0 -27 -2v-152zM378 137v161l-47 25v-186q8 -1 24 -1t23 1zM449 215q0 35 -38 64v-132q38 20 38 68z" />
    <glyph glyph-name="ampersand" unicode="&#x26;" horiz-adv-x="790" 
d="M782 -2h-197l-62 64q-93 -77 -203 -77q-137 0 -204.5 64.5t-67.5 157.5q0 106 116 202l14 11l-25 30q-56 62 -56 137q0 94 58.5 151.5t150.5 57.5q96 0 146.5 -54t50.5 -136q0 -96 -87 -169l-35 -28l137 -141q10 9 21 26t17 30l6 12l109 -82q-32 -56 -57 -86zM355 601
q0 26 -14.5 42t-40.5 16q-24 0 -39.5 -17t-15.5 -44q0 -39 32 -80l15 -19l19 17q44 40 44 85zM424 162l-155 162l-15 -15q-50 -50 -50 -98q0 -44 34 -66.5t82 -22.5q58 0 104 40z" />
    <glyph glyph-name="quotesingle" unicode="'" horiz-adv-x="247" 
d="M205 786l-25 -247h-112l-25 247h162z" />
    <glyph glyph-name="parenleft" unicode="(" horiz-adv-x="354" 
d="M341 -189q-171 117 -240.5 233t-69.5 277q0 169 69 274.5t239 210.5v-143q-129 -103 -129 -337q0 -139 33.5 -226.5t97.5 -152.5v-136z" />
    <glyph glyph-name="parenright" unicode=")" horiz-adv-x="354" 
d="M323 321q0 -161 -69.5 -277t-240.5 -233v136q64 65 97.5 152.5t33.5 226.5q0 234 -129 337v143q170 -105 239 -210.5t69 -274.5z" />
    <glyph glyph-name="asterisk" unicode="*" horiz-adv-x="442" 
d="M448 578l-132 -30l92 -95l-125 -90l-63 117l-63 -114l-125 92l94 93l-131 23l50 148l119 -63l-18 135h155l-18 -138l119 69z" />
    <glyph glyph-name="plus" unicode="+" horiz-adv-x="549" 
d="M524 227h-175v-224h-150v224h-175v139h175v200h150v-200h175v-139z" />
    <glyph glyph-name="comma" unicode="," horiz-adv-x="250" 
d="M218 75q0 -98 -29 -160q-21 -44 -70 -91l-91 63q41 49 41 114v141h149v-67z" />
    <glyph glyph-name="hyphen" unicode="-" horiz-adv-x="313" 
d="M296 213h-276v143h276v-143z" />
    <glyph glyph-name="period" unicode="." horiz-adv-x="250" 
d="M218 0h-149v142h149v-142z" />
    <glyph glyph-name="slash" unicode="/" horiz-adv-x="556" 
d="M515 785l-304 -785l-153 -1l303 786h154z" />
    <glyph glyph-name="zero" unicode="0" horiz-adv-x="700" 
d="M637 399q0 -194 -73 -301.5t-217 -107.5q-143 0 -216.5 107.5t-73.5 301.5q0 191 74 294t216 103q146 0 218 -102t72 -295zM475 399q0 129 -38.5 181.5t-89.5 52.5q-50 0 -88 -52.5t-38 -181.5q0 -135 38 -189.5t88 -54.5q52 0 90 54.5t38 189.5z" />
    <glyph glyph-name="one" unicode="1" horiz-adv-x="700" 
d="M499 0h-171v575q-28 -15 -34 -18q-20 -8 -52.5 -16.5t-55.5 -12.5l-22 -5v123q86 21 131 52q17 12 38.5 34t34.5 38l13 16h118v-786z" />
    <glyph glyph-name="two" unicode="2" horiz-adv-x="700" 
d="M644 0h-606l293 350q2 2 13.5 15l19.5 22.5t21 26.5t22 32.5t18 33.5t14 37t5 36q0 40 -32 70t-79 30q-46 0 -75 -33.5t-29 -60.5v-46h-161v48q0 102 69 168t194 66q127 0 204.5 -56.5t77.5 -179.5q0 -54 -26.5 -114.5t-48 -90t-42.5 -53.5l-138 -158h286v-143z" />
    <glyph glyph-name="three" unicode="3" horiz-adv-x="700" 
d="M632 231q0 -112 -81.5 -176.5t-231.5 -64.5q-153 0 -258 81l84 116q82 -59 174 -59q58 0 100.5 28.5t42.5 73.5q0 48 -32.5 73t-110.5 25h-76v136h77q60 0 92.5 26t32.5 76q0 30 -12 49t-34 27t-40 10.5t-43 2.5q-71 0 -143 -58l-81 113q108 86 245 86q152 0 217 -60.5
t65 -159.5q0 -114 -84 -169q42 -25 69.5 -70.5t27.5 -105.5z" />
    <glyph glyph-name="four" unicode="4" horiz-adv-x="700" 
d="M641 148h-107v-148h-158v150h-324v118l368 518h114v-495h107v-143zM377 291v245l-179 -245h179z" />
    <glyph glyph-name="five" unicode="5" horiz-adv-x="700" 
d="M615 272q0 -128 -77.5 -205t-217.5 -77q-75 0 -144 32.5t-103 61.5l92 126q28 -25 72.5 -47.5t90.5 -22.5q55 0 91.5 34t36.5 99q0 52 -34 87t-83 35q-48 0 -74.5 -11t-59.5 -53l-88 27l24 428h439v-143h-316l-6 -124q22 22 102 22q103 0 179 -69t76 -200z" />
    <glyph glyph-name="six" unicode="6" horiz-adv-x="700" 
d="M641 283q0 -133 -75 -213t-218 -80q-75 0 -133.5 30.5t-91 79t-48.5 99.5t-16 100q0 125 41 209q3 7 9.5 19.5t30 51t50.5 75.5t72 86.5t95 91.5l100 -112q-38 -28 -96.5 -85t-90.5 -109q32 22 98 22q122 0 197.5 -73t75.5 -192zM475 282q0 56 -40 88t-92 32
q-44 0 -84 -32.5t-40 -88.5q0 -60 40 -94t87 -34q57 0 93 35.5t36 93.5z" />
    <glyph glyph-name="seven" unicode="7" horiz-adv-x="700" 
d="M668 786l-421 -786h-198l363 647h-367v139h623z" />
    <glyph glyph-name="eight" unicode="8" horiz-adv-x="700" 
d="M652 235q0 -107 -82.5 -176t-216.5 -69t-220.5 69.5t-86.5 175.5q0 61 40.5 116.5t91.5 73.5q-36 17 -67.5 54.5t-31.5 89.5q0 98 78 156.5t198 58.5q125 0 196 -57.5t71 -157.5q0 -52 -30.5 -90t-66.5 -54q51 -18 89 -73t38 -117zM455 573q0 34 -23.5 60.5t-75.5 26.5
q-49 0 -75.5 -25t-26.5 -62q0 -46 30.5 -70t71.5 -24q43 0 71 26t28 68zM484 245q0 41 -31.5 76t-99.5 35q-62 0 -96.5 -32t-34.5 -79q0 -46 38 -76.5t93 -30.5q65 0 98 29.5t33 77.5z" />
    <glyph glyph-name="nine" unicode="9" horiz-adv-x="700" 
d="M640 491q0 -75 -28.5 -160.5t-83.5 -161.5q-31 -44 -95 -119t-81 -87l-114 92q40 35 96 98t89 117q-24 -30 -94 -30q-122 0 -198 80.5t-76 185.5q0 131 81.5 210.5t211.5 79.5q77 0 135 -25t91 -68.5t49.5 -96.5t16.5 -115zM475 526q0 56 -40 88t-92 32q-44 0 -84 -32.5
t-40 -88.5q0 -60 40 -94t87 -34q57 0 93 35.5t36 93.5z" />
    <glyph glyph-name="colon" unicode=":" horiz-adv-x="250" 
d="M218 328h-149v142h149v-142zM218 0h-149v142h149v-142z" />
    <glyph glyph-name="semicolon" unicode=";" horiz-adv-x="250" 
d="M218 328h-149v142h149v-142zM218 75q0 -98 -29 -160q-21 -44 -70 -91l-91 63q41 49 41 114v141h149v-67z" />
    <glyph glyph-name="less" unicode="&#x3c;" horiz-adv-x="549" 
d="M455 -4l-401 251v110l400 248v-163l-253 -141l254 -142v-163z" />
    <glyph glyph-name="equal" unicode="=" horiz-adv-x="549" 
d="M502 296h-457v139h457v-139zM502 73h-457v139h457v-139z" />
    <glyph glyph-name="greater" unicode="&#x3e;" horiz-adv-x="549" 
d="M454 243l-400 -248v163l253 141l-254 142v163l401 -251v-110z" />
    <glyph glyph-name="question" unicode="?" horiz-adv-x="522" 
d="M466 602q0 -87 -98 -197q-34 -39 -50 -82t-15 -121h-148q0 66 6 105.5t12.5 54t25.5 49.5q11 21 41 60t49.5 72t19.5 57q0 28 -22.5 43t-52.5 15q-64 0 -137 -69l-85 102q105 96 242 96q30 0 58 -5.5t56.5 -19t49.5 -33.5t34.5 -53t13.5 -74zM299 0h-139v142h139v-142z
" />
    <glyph glyph-name="at" unicode="@" horiz-adv-x="1000" 
d="M953 360q0 -55 -19 -106.5t-39.5 -81t-54.5 -70.5h-144h-106v27q-70 -41 -141 -41q-81 0 -132 47t-51 120q0 79 70 126t181 47q40 0 73 -4v4q0 27 -27.5 45.5t-67.5 18.5q-57 0 -132 -46l-55 118q100 50 211 50q97 0 153 -41t56 -128v-222h48q53 70 53 137
q0 143 -87.5 232.5t-241.5 89.5q-135 0 -232.5 -102t-97.5 -240q0 -137 97 -235t233 -98h108v-120h-108q-187 0 -319.5 132.5t-132.5 320.5q0 123 60.5 227t164.5 164.5t227 60.5q207 0 330 -115t123 -317zM590 248v84q-10 1 -55 1q-52 0 -90.5 -15.5t-38.5 -49.5
q0 -25 19 -39.5t50 -14.5q60 0 115 34z" />
    <glyph glyph-name="A" unicode="A" horiz-adv-x="773" 
d="M773 0h-187l-81 179h-237l-81 -179h-187l385 822zM453 306l-72 145l-65 -145h137z" />
    <glyph glyph-name="B" unicode="B" horiz-adv-x="766" 
d="M703 222q0 -43 -14 -81.5t-43.5 -70.5t-81.5 -51t-121 -19h-320v786h254q296 0 296 -212q0 -53 -30.5 -99.5t-77.5 -59.5q57 -14 97.5 -66t40.5 -127zM498 562q0 33 -29.5 57.5t-89.5 24.5h-80v-173h81q118 0 118 91zM531 234q0 49 -30.5 72t-99.5 23h-102v-179h113
q119 0 119 84z" />
    <glyph glyph-name="C" unicode="C" horiz-adv-x="802" 
d="M771 163q-109 -176 -327 -176q-179 0 -292 113t-113 293q0 172 116 286.5t287 114.5q209 0 301 -124l-111 -110q-22 36 -73 58t-115 22q-95 0 -162.5 -68.5t-67.5 -178.5q0 -111 64.5 -183t173.5 -72q136 0 199 115z" />
    <glyph glyph-name="D" unicode="D" horiz-adv-x="821" 
d="M781 379q0 -71 -23.5 -137t-69.5 -121t-123.5 -88t-175.5 -33h-266v786h214q444 0 444 -407zM606 391q0 119 -66 185.5t-203 66.5h-38v-493h60q114 0 180.5 65t66.5 176z" />
    <glyph glyph-name="E" unicode="E" horiz-adv-x="674" 
d="M605 0h-482v786h458v-143h-282v-171h250v-142h-250v-181h306v-149z" />
    <glyph glyph-name="F" unicode="F" horiz-adv-x="604" 
d="M561 644h-262v-172h251v-142h-251v-330h-176v786h438v-142z" />
    <glyph glyph-name="G" unicode="G" horiz-adv-x="858" 
d="M829 389q0 -178 -106.5 -290t-274.5 -112q-179 0 -294 113t-115 293q0 174 116.5 287.5t300.5 113.5q170 0 297 -105l-98 -133q-85 85 -207 85q-102 0 -168 -71t-66 -177q0 -115 69.5 -185.5t173.5 -70.5q63 0 114.5 29t76.5 90h-207v133h388z" />
    <glyph glyph-name="H" unicode="H" horiz-adv-x="876" 
d="M753 0h-176v331h-278v-331h-176v786h176v-313h278v313h176v-786z" />
    <glyph glyph-name="I" unicode="I" horiz-adv-x="422" 
d="M299 0h-176v786h176v-786z" />
    <glyph glyph-name="J" unicode="J" horiz-adv-x="477" 
d="M374 244q0 -122 -73 -188t-207 -66h-67v149h46q68 0 96.5 28.5t28.5 91.5v527h176v-542z" />
    <glyph glyph-name="K" unicode="K" horiz-adv-x="790" 
d="M799 0h-229l-244 299l-27 -32v-267h-176v786h176v-284l242 284h217l-311 -355z" />
    <glyph glyph-name="L" unicode="L" horiz-adv-x="594" 
d="M578 0h-455v786h176v-637h279v-149z" />
    <glyph glyph-name="M" unicode="M" horiz-adv-x="1035" 
d="M912 0h-177v424l-215 -235l-221 237v-426h-176v813l400 -412l389 415v-816z" />
    <glyph glyph-name="N" unicode="N" horiz-adv-x="919" 
d="M796 -19l-496 459v-440h-177v808l497 -456v434h176v-805z" />
    <glyph glyph-name="O" unicode="O" horiz-adv-x="903" 
d="M864 391q0 -175 -113.5 -289.5t-298.5 -114.5q-181 0 -297 115.5t-116 288.5t116 288t297 115q182 0 297 -114.5t115 -288.5zM689 391q0 107 -64 178.5t-173 71.5q-107 0 -172.5 -72t-65.5 -178q0 -107 65.5 -180t172.5 -73q109 0 173 72.5t64 180.5z" />
    <glyph glyph-name="P" unicode="P" horiz-adv-x="680" 
d="M676 552q0 -111 -82 -184.5t-200 -73.5h-95v-294h-176v786h260q142 0 217.5 -65t75.5 -169zM500 551q0 92 -129 92h-72v-199h73q69 0 98.5 27.5t29.5 79.5z" />
    <glyph glyph-name="Q" unicode="Q" horiz-adv-x="903" 
d="M887 75l-83 -92q-87 10 -151 49q-90 -45 -201 -45q-186 0 -299.5 114.5t-113.5 289.5q0 173 116 288t297 115q182 0 297 -114.5t115 -288.5q0 -164 -102 -277q51 -27 125 -39zM689 391q0 106 -65 178t-172 72t-172.5 -72t-65.5 -178q0 -108 64 -180.5t174 -72.5
q36 0 73 10q-26 36 -43 76l98 80q23 -50 52 -85q57 69 57 172z" />
    <glyph glyph-name="R" unicode="R" horiz-adv-x="769" 
d="M764 0h-223l-242 368v-368h-176v786h263q130 0 210 -59.5t80 -173.5q0 -90 -47 -145t-116 -70zM499 551q0 40 -29 66t-90 26h-81v-199h82q64 0 91 31.5t27 75.5z" />
    <glyph glyph-name="S" unicode="S" horiz-adv-x="623" 
d="M579 225q0 -104 -71.5 -168.5t-206.5 -64.5q-158 0 -276 91l97 132q102 -79 188 -79q92 0 92 79q0 47 -57 77l-138 72q-159 84 -159 216q0 97 75 158t190 61q145 0 243 -72l-90 -127q-67 58 -153 58q-40 0 -65 -18.5t-25 -52.5q0 -32 16 -50t52 -36l108 -54
q82 -41 131 -93t49 -129z" />
    <glyph glyph-name="T" unicode="T" horiz-adv-x="562" 
d="M532 643h-163v-643h-176v643h-163v143h502v-143z" />
    <glyph glyph-name="U" unicode="U" horiz-adv-x="865" 
d="M752 305q0 -65 -17.5 -120t-53.5 -100t-99 -70.5t-146 -25.5q-163 0 -243 87.5t-80 228.5v468h176v-454q0 -91 34.5 -132.5t113.5 -41.5q77 0 108 41t31 133v454h176v-468z" />
    <glyph glyph-name="V" unicode="V" horiz-adv-x="684" 
d="M683 791l-345 -849l-344 849h176l168 -424l168 424h177z" />
    <glyph glyph-name="W" unicode="W" horiz-adv-x="1012" 
d="M1013 791l-294 -853l-213 490l-211 -490l-295 853h177l138 -435l192 470l192 -463l137 428h177z" />
    <glyph glyph-name="X" unicode="X" horiz-adv-x="738" 
d="M756 0h-217l-173 268l-172 -268h-216l280 417l-250 374h218l139 -221l143 221h213l-247 -371z" />
    <glyph glyph-name="Y" unicode="Y" horiz-adv-x="648" 
d="M668 791l-256 -429v-362h-177v363l-257 428h185l160 -263l160 263h185z" />
    <glyph glyph-name="Z" unicode="Z" horiz-adv-x="722" 
d="M707 785l-400 -636h376v-148h-676l410 642h-354v142h644z" />
    <glyph glyph-name="bracketleft" unicode="[" horiz-adv-x="460" 
d="M409 -188h-344v973h341v-130h-184v-712h187v-131z" />
    <glyph glyph-name="backslash" unicode="\" horiz-adv-x="572" 
d="M515 785l-304 -785l-153 -1l303 786h154z" />
    <glyph glyph-name="bracketright" unicode="]" horiz-adv-x="460" 
d="M401 -188h-344v131h187v712h-184v130h341v-973z" />
    <glyph glyph-name="asciicircum" unicode="^" horiz-adv-x="800" 
d="M744 385h-118l-216 283l-217 -284h-118l301 401h70z" />
    <glyph glyph-name="underscore" unicode="_" 
d="M501 -192h-501v139h501v-139z" />
    <glyph glyph-name="grave" unicode="`" horiz-adv-x="692" 
d="M416 832h-157l-126 183h157z" />
    <glyph glyph-name="a" unicode="a" horiz-adv-x="580" 
d="M515 0h-165v37q-69 -46 -157 -46q-72 0 -114.5 37.5t-42.5 101.5q0 102 128 150q37 14 84 18t75 1l28 -3v16q0 64 -111 64q-68 0 -126 -36l-48 102q31 17 88.5 28.5t108.5 11.5q127 0 189.5 -38t62.5 -126v-318zM349 125v89q-155 0 -155 -65q0 -48 55 -48q60 0 100 24z
" />
    <glyph glyph-name="b" unicode="b" horiz-adv-x="601" 
d="M581 223q0 -38 -11.5 -76t-36 -76t-71 -61.5t-107.5 -23.5q-81 0 -128 51v-37h-163v786h166v-356q42 50 128 50q40 0 75.5 -11.5t70.5 -38t56 -80t21 -127.5zM410 231q0 51 -24 85t-68 34q-45 0 -69.5 -30t-24.5 -80q0 -55 23.5 -88.5t68.5 -33.5q44 0 69 31.5t25 81.5z
" />
    <glyph glyph-name="c" unicode="c" horiz-adv-x="508" 
d="M484 88q-70 -103 -212 -103q-113 0 -182.5 68.5t-69.5 179.5q0 109 68.5 181t187.5 72t194 -75l-110 -109q-31 46 -79 46t-78 -29t-30 -78q0 -58 30 -89.5t75 -31.5q58 0 84 53z" />
    <glyph glyph-name="d" unicode="d" horiz-adv-x="601" 
d="M537 0h-163v37q-47 -51 -128 -51q-61 0 -107.5 23.5t-71 61.5t-36 76t-11.5 76q0 74 21 127.5t56 80t70.5 38t75.5 11.5q86 0 128 -50v356h166v-786zM377 240q0 50 -24.5 80t-69.5 30q-44 0 -68 -34t-24 -85q0 -50 25 -81.5t69 -31.5q45 0 68.5 33.5t23.5 88.5z" />
    <glyph glyph-name="e" unicode="e" horiz-adv-x="560" 
d="M524 205h-346q4 -36 26 -60t48 -33t55 -9q45 0 77.5 11.5t64.5 44.5l71 -94q-63 -48 -111 -64t-124 -16q-116 0 -190.5 66t-74.5 182q0 113 72 183t185 70q112 0 179.5 -77.5t67.5 -203.5zM354 293q-8 35 -33 60.5t-61 25.5q-33 0 -55 -24.5t-26 -61.5h175z" />
    <glyph glyph-name="f" unicode="f" horiz-adv-x="350" 
d="M313 344h-63v-344h-166v346h-59v123h59v161q0 80 43.5 117t114.5 37h71v-145q-38 0 -49.5 -14.5t-11.5 -45.5v-110h61v-125z" />
    <glyph glyph-name="g" unicode="g" horiz-adv-x="600" 
d="M537 44q0 -31 -1 -51t-5.5 -51.5t-12.5 -52t-24.5 -44.5t-39.5 -38t-59 -23.5t-81 -9.5q-131 0 -268 60l65 111q34 -19 85.5 -33t90.5 -14q59 0 77 36t15 105q-22 -22 -56 -37.5t-67 -15.5q-66 0 -114 22t-73.5 61t-37 82.5t-11.5 95.5q0 43 13 83t39 74.5t71.5 55
t105.5 20.5q73 0 122 -49v38h166v-425zM377 240q0 50 -24.5 80t-69.5 30q-44 0 -68 -34t-24 -85q0 -50 25 -81.5t69 -31.5q45 0 68.5 33.5t23.5 88.5z" />
    <glyph glyph-name="h" unicode="h" horiz-adv-x="596" 
d="M533 0h-166v275q0 40 -20 58t-50 18t-48.5 -19.5t-18.5 -55.5v-276h-166v787h166v-356q21 23 58.5 36t71.5 13q80 0 126.5 -45.5t46.5 -130.5v-304z" />
    <glyph glyph-name="i" unicode="i" horiz-adv-x="293" 
d="M230 550h-166v152h166v-152zM230 0h-166v469h166v-469z" />
    <glyph glyph-name="j" unicode="j" horiz-adv-x="293" 
d="M230 550h-166v149h166v-149zM230 16q0 -96 -45 -145.5t-122 -49.5h-70v149q42 0 56.5 10.5t14.5 47.5v441h166v-453z" />
    <glyph glyph-name="k" unicode="k" horiz-adv-x="598" 
d="M591 469l-177 -179l161 -290h-201l-85 162l-58 -56v-106h-167v787h167v-484l159 166h201z" />
    <glyph glyph-name="l" unicode="l" horiz-adv-x="293" 
d="M230 0h-166v788h166v-788z" />
    <glyph glyph-name="m" unicode="m" horiz-adv-x="894" 
d="M831 0h-166v275q0 39 -19.5 57.5t-46.5 18.5q-71 0 -71 -75v-276h-161v274q0 32 -15.5 54.5t-50.5 22.5q-71 0 -71 -77v-274h-166v469h166v-37q19 22 59 35t79 13q108 0 146 -62q48 61 152 61q20 0 39 -3.5t42.5 -15t41.5 -30t30 -53t12 -80.5v-297z" />
    <glyph glyph-name="n" unicode="n" horiz-adv-x="596" 
d="M533 0h-166v268q0 83 -65 83q-72 0 -72 -82v-269h-166v469h166v-37q17 19 54 33.5t73 14.5q79 0 127.5 -43.5t48.5 -131.5v-305z" />
    <glyph glyph-name="o" unicode="o" horiz-adv-x="541" 
d="M522 234q0 -104 -70 -176t-181 -72q-110 0 -180.5 72t-70.5 176t70.5 176t180.5 72q111 0 181 -72t70 -176zM364 234q0 46 -25 78t-68 32t-68 -32t-25 -78t25 -78t68 -32t68 32t25 78z" />
    <glyph glyph-name="p" unicode="p" horiz-adv-x="601" 
d="M581 246q0 -74 -21 -127.5t-56 -80t-70.5 -38t-75.5 -11.5q-86 0 -128 50v-266h-166v696h163v-37q47 51 128 51q61 0 107.5 -23.5t71 -61.5t36 -76t11.5 -76zM410 238q0 50 -25 81.5t-69 31.5q-45 0 -68.5 -33.5t-23.5 -88.5q0 -50 24.5 -80t69.5 -30q44 0 68 34t24 85z
" />
    <glyph glyph-name="q" unicode="q" horiz-adv-x="601" 
d="M537 -226h-166v266q-42 -50 -128 -50q-40 0 -75.5 11.5t-70.5 38t-56 80t-21 127.5q0 38 11.5 76t36 76t71 61.5t107.5 23.5q81 0 128 -51v37h163v-696zM377 230q0 55 -23.5 88.5t-68.5 33.5q-44 0 -69 -31.5t-25 -81.5q0 -51 24 -85t68 -34q45 0 69.5 30t24.5 80z" />
    <glyph glyph-name="r" unicode="r" horiz-adv-x="454" 
d="M443 443l-88 -153q-21 38 -68 38q-22 0 -39.5 -17.5t-17.5 -46.5v-264h-166v469h166v-57q17 33 50.5 50.5t58.5 17.5q39 0 60 -7.5t44 -29.5z" />
    <glyph glyph-name="s" unicode="s" horiz-adv-x="480" 
d="M441 126q0 -62 -49 -101.5t-136 -39.5q-142 0 -224 54l60 118q32 -26 72.5 -38t63.5 -12q38 0 38 23q0 20 -29 37l-69 37q-19 10 -38 24t-41 44t-22 62q0 75 52 110.5t127 35.5q95 0 179 -34l-57 -114q-48 41 -109 41q-25 0 -25 -22q0 -20 33 -38l66 -37
q108 -60 108 -150z" />
    <glyph glyph-name="t" unicode="t" horiz-adv-x="359" 
d="M343 344h-93v-121q0 -54 11 -67t62 -13h12v-143h-78q-90 0 -131.5 42t-41.5 144v160h-71v123h72v186h163v-186h95v-125z" />
    <glyph glyph-name="u" unicode="u" horiz-adv-x="597" 
d="M533 0h-159v40q-15 -18 -54.5 -34.5t-69.5 -16.5t-58.5 8t-59 26.5t-49.5 58.5t-19 96v291h166v-247q0 -52 12.5 -78.5t52.5 -26.5q39 0 55.5 27t16.5 88v237h166v-469z" />
    <glyph glyph-name="v" unicode="v" horiz-adv-x="502" 
d="M503 469l-251 -531l-251 531h167l83 -227l83 227h169z" />
    <glyph glyph-name="w" unicode="w" horiz-adv-x="764" 
d="M764 469l-213 -469h-90l-81 200l-86 -200h-89l-206 469h179l96 -230l112 267l106 -267l95 230h177z" />
    <glyph glyph-name="x" unicode="x" horiz-adv-x="522" 
d="M521 0h-190l-73 112l-77 -112h-185l177 246l-162 223h179l70 -103l70 103h174l-157 -226z" />
    <glyph glyph-name="y" unicode="y" horiz-adv-x="491" 
d="M490 469l-165 -520q-47 -150 -161 -150q-43 0 -122 20l34 130q34 -18 60 -18q51 0 33 55l-152 483h169l70 -278l72 278h162z" />
    <glyph glyph-name="z" unicode="z" horiz-adv-x="546" 
d="M530 469l-219 -327h193v-142h-488l232 327h-183v142h465z" />
    <glyph glyph-name="braceleft" unicode="{" 
d="M465 -200h-51q-220 0 -220 179v153q0 26 -1.5 41t-8 32t-21.5 25t-39 8h-40v104h40q24 0 39 6.5t21.5 21.5t8 28.5t1.5 37.5v170q0 179 220 179h51v-87h-34q-29 0 -46.5 -7t-24.5 -24t-8 -29t-1 -39v-148q0 -131 -125 -165q64 -22 94.5 -63.5t30.5 -109.5v-127
q0 -26 1 -39t7.5 -29.5t24.5 -23.5t47 -7h34v-87z" />
    <glyph glyph-name="bar" unicode="|" 
d="M325 -215h-152v1030h152v-1030z" />
    <glyph glyph-name="braceright" unicode="}" 
d="M416 238h-40q-24 0 -39 -8t-21.5 -25t-8 -32t-1.5 -41v-153q0 -179 -220 -179h-51v87h34q29 0 47 7t24.5 23.5t7.5 29.5t1 39v127q0 68 30.5 109.5t94.5 63.5q-125 34 -125 165v148q0 27 -1 39t-8 29t-24.5 24t-46.5 7h-34v87h51q220 0 220 -179v-170q0 -24 1.5 -37.5
t8 -28.5t21.5 -21.5t39 -6.5h40v-104z" />
    <glyph glyph-name="asciitilde" unicode="~" horiz-adv-x="549" 
d="M537 385q-3 -71 -43 -127.5t-89 -56.5q-36 0 -124.5 24t-95.5 24h-5h-5.5t-5.5 -0.5t-6 -1.5t-5.5 -3t-5.5 -5.5l-4.5 -8t-4 -10.5t-2.5 -14h-129q3 71 43 127.5t89 56.5q40 0 118 -24t102 -24h5h5.5t5.5 0.5t6 1.5t5.5 3t5.5 5.5l4.5 8t4 10.5t2.5 14h129z" />
    <glyph glyph-name="nbspace" unicode="&#xa0;" horiz-adv-x="200" 
 />
    <glyph glyph-name="exclamdown" unicode="&#xa1;" horiz-adv-x="300" 
d="M219 444h-139v142h139v-142zM234 -200h-166v313l28 291h107l31 -291v-313z" />
    <glyph glyph-name="cent" unicode="&#xa2;" horiz-adv-x="700" 
d="M635 109q-72 -112 -234 -122v-92h-53v92q-122 7 -195 92t-73 203q0 46 14 93t43.5 92.5t84 77.5t126.5 38v101h53v-99q75 -2 119.5 -22.5t95.5 -67.5l-128 -130q-37 51 -87 55v-273q31 4 53 19.5t29 29.5l7 14zM348 151v263q-84 -23 -84 -122q0 -51 22.5 -89.5
t61.5 -51.5z" />
    <glyph glyph-name="sterling" unicode="&#xa3;" horiz-adv-x="700" 
d="M673 139q0 -71 -63 -108.5t-148 -37.5q-54 0 -105.5 19t-82.5 46q-25 -29 -65 -48t-76 -19q-64 0 -97 37t-33 76q0 41 21 67t44.5 34t49.5 8q34 0 68.5 -9.5t50.5 -19.5q8 21 8 58q0 24 -23 46h-208v50h170l-52 57h-118v50h76q-46 62 -46 134q0 54 26.5 96.5t70.5 68
t96 38.5t107 13q123 0 193 -48t70 -147v-16h-151v14q0 81 -114 81q-15 0 -29.5 -2.5t-38 -10.5t-38 -30t-14.5 -55q0 -37 17 -67t51 -69h238v-50h-194q23 -30 35 -57h159v-50h-144q4 -26 4 -38q0 -54 -30 -96q47 -22 106 -22q28 0 42 14.5t14 38.5q0 26 -4 41h132
q25 -46 25 -87zM206 118q-28 21 -70 21q-34 0 -34 -30q0 -12 8 -19.5t16 -8.5l8 -1q20 0 41.5 12t30.5 26z" />
    <glyph glyph-name="currency" unicode="&#xa4;" 
d="M488 677l-87 -87q22 -39 22 -85q0 -52 -31 -94l86 -85l-56 -58l-91 90q-38 -20 -83 -20t-81 22l-88 -88l-56 57l86 87q-28 44 -28 97q0 41 19 76l-85 86l57 58l80 -86q47 33 104 33q50 0 92 -29l84 83zM342 507q0 37 -25.5 64.5t-62.5 27.5t-64.5 -25.5t-27.5 -62.5
t25.5 -64.5t62.5 -27.5t64.5 25.5t27.5 62.5z" />
    <glyph glyph-name="yen" unicode="&#xa5;" horiz-adv-x="700" 
d="M698 791l-256 -429v-47h170v-50h-170v-57h170v-50h-170v-158h-177v158h-167v50h167v57h-167v50h167v48l-257 428h185l160 -263l160 263h185z" />
    <glyph glyph-name="brokenbar" unicode="&#xa6;" 
d="M325 427h-152v388h152v-388zM325 -215h-152v388h152v-388z" />
    <glyph glyph-name="section" unicode="&#xa7;" horiz-adv-x="660" 
d="M637 296q0 -91 -119 -159q48 -43 48 -100q0 -96 -79 -146.5t-204 -50.5q-111 0 -207 56l56 123q4 -2 11 -6q31 -17 46.5 -24.5t40.5 -13.5t53 -6q123 0 123 49q0 8 -2 15t-5.5 12.5t-7.5 10t-10.5 8.5l-10.5 6.5t-12 5l-11 3.5t-10 3t-8 2l-110 33q-42 13 -73.5 28
t-62 39.5t-47 61t-16.5 84.5q0 97 123 169q-53 55 -53 100q0 94 79 145.5t205 51.5q101 0 209 -55l-59 -130q-19 22 -64.5 39t-85.5 17q-124 0 -124 -49q0 -9 3 -16.5t9 -13.5t11 -10.5t15 -8.5t14.5 -6t14.5 -5.5t11 -3.5l110 -35l35 -11.5t36.5 -14.5t39 -21t33 -27.5
t30 -37.5t18 -48.5t7.5 -62.5zM481 298q0 17 -3.5 27.5t-23 25t-57.5 28.5l-138 43q-27 -12 -55.5 -38t-28.5 -55q0 -23 15 -37t71 -33l137 -45q32 9 57.5 31.5t25.5 52.5z" />
    <glyph glyph-name="dieresis" unicode="&#xa8;" horiz-adv-x="692" 
d="M489 835h-139v142h139v-142zM286 835h-139v142h139v-142z" />
    <glyph glyph-name="copyright" unicode="&#xa9;" horiz-adv-x="672" 
d="M613 517q0 -115 -81 -196t-196 -81t-196 81t-81 196t81 196t196 81t196 -81t81 -196zM538 517q0 84 -60 148t-142 64t-142 -64t-60 -148t60 -148t142 -64t142 64t60 148zM455 445q-36 -73 -115 -73q-62 0 -98.5 40t-36.5 106q0 63 38 103.5t96 40.5q59 0 107 -50l-43 -51
q-30 35 -66 35q-28 0 -45.5 -21.5t-17.5 -56.5q0 -34 19 -57.5t50 -23.5q32 0 61 45z" />
    <glyph glyph-name="ordfeminine" unicode="&#xaa;" horiz-adv-x="514" 
d="M450 390h-150v23q-51 -30 -117 -30q-62 0 -98.5 32.5t-36.5 87.5q0 88 109 128q58 22 143 15v3q0 42 -79 42q-51 0 -104 -33l-47 100q74 36 169 36q106 0 158.5 -33t52.5 -107v-264zM299 505v56q-22 0 -36.5 -1t-32.5 -5t-27.5 -13t-9.5 -24q0 -29 35 -29q41 0 71 16z
" />
    <glyph glyph-name="guillemotleft" unicode="&#xab;" 
d="M472 63l-193 116v125l192 114v-128l-94 -53l95 -44v-130zM222 63l-193 116v125l192 114v-128l-94 -53l95 -44v-130z" />
    <glyph glyph-name="logicalnot" unicode="&#xac;" horiz-adv-x="549" 
d="M494 174h-140v134h-290v139h430v-273z" />
    <glyph glyph-name="registered" unicode="&#xae;" horiz-adv-x="672" 
d="M613 517q0 -115 -81 -196t-196 -81t-196 81t-81 196t81 196t196 81t196 -81t81 -196zM538 517q0 84 -60 148t-142 64t-142 -64t-60 -148t60 -148t142 -64t142 64t60 148zM458 386h-87l-66 83v-83h-64v267h98q38 0 63 -21t25 -61q0 -30 -16.5 -52.5t-43.5 -28.5zM361 573
q0 7 -1.5 11.5t-10.5 8t-26 3.5h-19v-59h20q37 0 37 36z" />
    <glyph glyph-name="macron" unicode="&#xaf;" 
d="M466 522h-142l-44 71l-44 -71h-146l137 173h106z" />
    <glyph glyph-name="degree" unicode="&#xb0;" horiz-adv-x="310" 
d="M276 580q0 -50 -35 -82.5t-88 -32.5q-57 0 -88 32t-31 83q0 47 35.5 81t86.5 34q53 0 86.5 -32.5t33.5 -82.5zM226 580q0 31 -20 51.5t-51 20.5t-51.5 -21t-20.5 -51q0 -33 20 -53t52 -20t51.5 20.5t19.5 52.5z" />
    <glyph glyph-name="plusminus" unicode="&#xb1;" horiz-adv-x="549" 
d="M467 263h-167v-166h-55v166h-165v55h165v166h55v-166h167v-55zM470 0h-391v55h391v-55z" />
    <glyph glyph-name="twosuperior" unicode="&#xb2;" 
d="M409 468h-326l170 170q45 45 45 65q0 21 -10.5 30t-35.5 9q-28 0 -43 -16.5t-15 -33.5v-22h-84v32q0 45 39 76.5t102 31.5q145 0 145 -95q0 -55 -70 -114l-64 -55h147v-78z" />
    <glyph glyph-name="threesuperior" unicode="&#xb3;" 
d="M399 565q0 -48 -39.5 -77t-111.5 -29q-76 0 -149 40l50 62q36 -39 99 -39q25 0 40.5 11t15.5 32q0 16 -14.5 26.5t-41.5 10.5h-55v54h55q19 0 31.5 13.5t12.5 30.5q0 36 -55 36q-33 0 -63 -45l-57 42q54 67 139 67q131 0 131 -97q0 -20 -14.5 -39t-31.5 -25
q23 -6 40.5 -27.5t17.5 -46.5z" />
    <glyph glyph-name="acute" unicode="&#xb4;" horiz-adv-x="802" 
d="M475 705l-126 -183h-160l126 183h160z" />
    <glyph glyph-name="mu" unicode="&#xb5;" horiz-adv-x="541" 
d="M531 68q-21 -89 -110 -89q-33 0 -48.5 20.5t-24.5 55.5q-21 -21 -61 -43t-85 -22q-57 0 -84 30v-28q0 -29 14 -74t14 -60q0 -61 -44 -61q-40 0 -40 61q0 15 12 60t12 74v327q0 54 -9.5 69t-43.5 15h-7v22h12q12 0 29 -1t29 -1q10 0 25 1t25 1h13v-286q0 -46 21 -67.5
t69 -21.5q54 0 99 28v241q0 55 -9 69.5t-43 14.5h-9v22h14q11 0 28 -1t28 -1q10 0 25 1t25 1h14v-289q0 -58 9.5 -78t32.5 -20q7 0 13 1t9.5 2.5t8 5t6 5t6.5 8t7 8.5h18z" />
    <glyph glyph-name="paragraph" unicode="&#xb6;" horiz-adv-x="762" 
d="M714 693h-294v-603h293v-92h-300q-167 0 -286 112.5t-119 279.5q0 168 121.5 281.5t290.5 113.5h294v-92zM622 150h-94v479h94v-479z" />
    <glyph glyph-name="periodcentered" unicode="&#xb7;" 
d="M361 313l-101 -119l-104 123l104 119z" />
    <glyph glyph-name="cedilla" unicode="&#xb8;" 
d="M398 644q0 -51 -33.5 -86.5t-82.5 -35.5t-83.5 34.5t-34.5 85.5q0 50 34 85.5t82 35.5q49 0 83.5 -35t34.5 -84zM340 642q0 23 -16 41.5t-43 18.5q-25 0 -42 -17t-17 -42q0 -26 20.5 -43t38.5 -17q23 0 41 18t18 41z" />
    <glyph glyph-name="onesuperior" unicode="&#xb9;" 
d="M322 468h-95v217q-39 -20 -87 -22v73q79 6 112 56h70v-324z" />
    <glyph glyph-name="ordmasculine" unicode="&#xba;" horiz-adv-x="536" 
d="M478 587q0 -87 -58.5 -147t-151.5 -60q-92 0 -151 60t-59 147t59 147t151 60q93 0 151.5 -60t58.5 -147zM333 587q0 33 -17.5 56t-47.5 23t-47.5 -23t-17.5 -56t17.5 -56t47.5 -23t47.5 23t17.5 56z" />
    <glyph glyph-name="guillemotright" unicode="&#xbb;" 
d="M467 176l-192 -114v128l94 53l-95 44v130l193 -116v-125zM217 176l-192 -114v128l94 53l-95 44v130l193 -116v-125z" />
    <glyph glyph-name="onequarter" unicode="&#xbc;" horiz-adv-x="700" 
d="M411 467h-95v217q-39 -20 -87 -22v73q79 6 112 56h70v-324zM594 373h-497v56h497v-56zM484 58h-60v-58h-90v59h-170v61l203 214h57v-199h60v-77zM334 131v105l-100 -105h100z" />
    <glyph glyph-name="onehalf" unicode="&#xbd;" horiz-adv-x="700" 
d="M401 467h-95v217q-39 -20 -87 -22v73q79 6 112 56h70v-324zM594 373h-497v56h497v-56zM500 0h-326l170 170q45 45 45 65q0 21 -10.5 30t-35.5 9q-28 0 -43 -16.5t-15 -33.5v-22h-84v32q0 45 39 76.5t102 31.5q145 0 145 -95q0 -55 -70 -114l-64 -55h147v-78z" />
    <glyph glyph-name="threequarters" unicode="&#xbe;" horiz-adv-x="700" 
d="M489 565q0 -48 -39.5 -77t-111.5 -29q-76 0 -149 40l50 62q36 -39 99 -39q25 0 40.5 11t15.5 32q0 16 -14.5 26.5t-41.5 10.5h-55v54h55q19 0 31.5 13.5t12.5 30.5q0 36 -55 36q-33 0 -63 -45l-57 42q54 67 139 67q131 0 131 -97q0 -19 -14.5 -38.5t-31.5 -25.5
q23 -6 40.5 -27.5t17.5 -46.5zM594 373h-497v56h497v-56zM484 58h-60v-58h-90v59h-170v61l203 214h57v-199h60v-77zM334 131v105l-100 -105h100z" />
    <glyph glyph-name="questiondown" unicode="&#xbf;" horiz-adv-x="522" 
d="M342 446h-139v142h139v-142zM490 -103q-105 -96 -242 -96q-30 0 -58 5.5t-56.5 19t-49.5 33.5t-34.5 53t-13.5 74q0 87 98 197q66 76 65 223h148q0 -95 -10 -139.5t-34 -89.5q-11 -21 -41 -60t-49.5 -72t-19.5 -57q0 -28 22.5 -43t52.5 -15q64 0 137 69z" />
    <glyph glyph-name="Agrave" unicode="&#xc0;" horiz-adv-x="773" 
d="M496 832h-157l-126 183h157zM773 0h-187l-81 179h-237l-81 -179h-187l385 822zM453 306l-72 145l-65 -145h137z" />
    <glyph glyph-name="Aacute" unicode="&#xc1;" horiz-adv-x="773" 
d="M566 1005l-126 -183h-160l126 183h160zM773 0h-187l-81 179h-237l-81 -179h-187l385 822zM453 306l-72 145l-65 -145h137z" />
    <glyph glyph-name="Acircumflex" unicode="&#xc2;" horiz-adv-x="773" 
d="M571 848h-142l-44 71l-44 -71h-146l137 173h106zM773 0h-187l-81 179h-237l-81 -179h-187l385 822zM453 306l-72 145l-65 -145h137z" />
    <glyph glyph-name="Atilde" unicode="&#xc3;" horiz-adv-x="773" 
d="M565 943q0 -57 -24 -87.5t-70 -30.5q-21 0 -73.5 20t-68.5 20q-9 0 -13.5 -2t-9.5 -11.5t-8 -29.5h-90q0 46 25.5 83.5t68.5 37.5q26 0 80 -21t65 -21q14 0 22 13.5t9 28.5h87zM773 0h-187l-81 179h-237l-81 -179h-187l385 822zM453 306l-72 145l-65 -145h137z" />
    <glyph glyph-name="Adieresis" unicode="&#xc4;" horiz-adv-x="773" 
d="M549 835h-139v142h139v-142zM346 835h-139v142h139v-142zM773 0h-187l-81 179h-237l-81 -179h-187l385 822zM453 306l-72 145l-65 -145h137z" />
    <glyph glyph-name="Aring" unicode="&#xc5;" horiz-adv-x="773" 
d="M492 956q0 -51 -33.5 -86.5t-82.5 -35.5t-83.5 34.5t-34.5 85.5q0 50 34 85.5t82 35.5q49 0 83.5 -35t34.5 -84zM773 0h-187l-81 179h-237l-81 -179h-187l385 822zM434 954q0 23 -16 41.5t-43 18.5q-25 0 -42 -17t-17 -42q0 -26 20.5 -43t38.5 -17q23 0 41 18t18 41z
M453 306l-72 145l-65 -145h137z" />
    <glyph glyph-name="AE" unicode="&#xc6;" horiz-adv-x="1020" 
d="M969 0h-482v199h-170l-118 -199h-201l504 784h443v-143h-282v-171h250v-142h-250v-181h306v-147zM487 336v151l-90 -151h90z" />
    <glyph glyph-name="Ccedilla" unicode="&#xc7;" horiz-adv-x="788" 
d="M767 165q-28 -50 -68.5 -86t-84 -54.5t-80 -26.5t-72.5 -10q24 -6 48 -29t24 -67q0 -37 -33.5 -63t-85.5 -26q-72 0 -125 28l16 44q41 -13 74 -15q9 -1 22.5 0.5t28.5 10t15 22.5q0 15 -8.5 24.5t-23.5 9.5t-26.5 -4t-17 -8.5t-16.5 -15.5l-35 38l57 53
q-153 25 -244.5 132.5t-91.5 270.5q0 121 57 213.5t149 139t202 46.5q77 0 154.5 -29.5t134.5 -99.5l-107 -106q-43 49 -92.5 66t-112.5 17q-88 0 -150 -66.5t-62 -180.5q0 -110 64.5 -183t165.5 -73q28 0 47 2.5t47.5 12.5t57 36t56.5 66z" />
    <glyph glyph-name="Egrave" unicode="&#xc8;" horiz-adv-x="674" 
d="M426 832h-157l-126 183h157zM605 0h-482v786h458v-143h-282v-171h250v-142h-250v-181h306v-149z" />
    <glyph glyph-name="Eacute" unicode="&#xc9;" horiz-adv-x="674" 
d="M514 1005l-126 -183h-160l126 183h160zM605 0h-482v786h458v-143h-282v-171h250v-142h-250v-181h306v-149z" />
    <glyph glyph-name="Ecircumflex" unicode="&#xca;" horiz-adv-x="773" 
d="M524 848h-142l-44 71l-44 -71h-146l137 173h106zM605 0h-482v786h458v-143h-282v-171h250v-142h-250v-181h306v-149z" />
    <glyph glyph-name="Edieresis" unicode="&#xcb;" horiz-adv-x="674" 
d="M523 835h-139v142h139v-142zM320 835h-139v142h139v-142zM605 0h-482v786h458v-143h-282v-171h250v-142h-250v-181h306v-149z" />
    <glyph glyph-name="Igrave" unicode="&#xcc;" horiz-adv-x="422" 
d="M303 832h-157l-126 183h157zM299 0h-176v786h176v-786z" />
    <glyph glyph-name="Iacute" unicode="&#xcd;" horiz-adv-x="422" 
d="M408 1005l-126 -183h-160l126 183h160zM299 0h-176v786h176v-786z" />
    <glyph glyph-name="Icircumflex" unicode="&#xce;" horiz-adv-x="422" 
d="M397 848h-142l-44 71l-44 -71h-146l137 173h106zM299 0h-176v786h176v-786z" />
    <glyph glyph-name="Idieresis" unicode="&#xcf;" horiz-adv-x="422" 
d="M386 825h-139v142h139v-142zM183 825h-139v142h139v-142zM299 0h-176v786h176v-786z" />
    <glyph glyph-name="Eth" unicode="&#xd0;" horiz-adv-x="821" 
d="M781 379q0 -71 -23.5 -137t-69.5 -121t-123.5 -88t-175.5 -33h-266v354h-114v84h114v348h214q444 0 444 -407zM606 391q0 119 -66 185.5t-203 66.5h-38v-205h97v-84h-97v-204h60q114 0 180.5 65t66.5 176z" />
    <glyph glyph-name="Ntilde" unicode="&#xd1;" horiz-adv-x="919" 
d="M615 943q0 -57 -24 -87.5t-70 -30.5q-21 0 -73.5 20t-68.5 20q-9 0 -13.5 -2t-9.5 -11.5t-8 -29.5h-90q0 46 25.5 83.5t68.5 37.5q26 0 80 -21t65 -21q14 0 22 13.5t9 28.5h87zM796 -19l-496 459v-440h-177v808l497 -456v434h176v-805z" />
    <glyph glyph-name="Ograve" unicode="&#xd2;" horiz-adv-x="903" 
d="M416 832h-157l-126 183h157zM864 391q0 -175 -113.5 -289.5t-298.5 -114.5q-181 0 -297 115.5t-116 288.5t116 288t297 115q182 0 297 -114.5t115 -288.5zM689 391q0 107 -64 178.5t-173 71.5q-107 0 -172.5 -72t-65.5 -178q0 -107 65.5 -180t172.5 -73q109 0 173 72.5
t64 180.5z" />
    <glyph glyph-name="Oacute" unicode="&#xd3;" horiz-adv-x="903" 
d="M631 1005l-126 -183h-160l126 183h160zM864 391q0 -175 -113.5 -289.5t-298.5 -114.5q-181 0 -297 115.5t-116 288.5t116 288t297 115q182 0 297 -114.5t115 -288.5zM689 391q0 107 -64 178.5t-173 71.5q-107 0 -172.5 -72t-65.5 -178q0 -107 65.5 -180t172.5 -73
q109 0 173 72.5t64 180.5z" />
    <glyph glyph-name="Ocircumflex" unicode="&#xd4;" horiz-adv-x="903" 
d="M639 848h-142l-44 71l-44 -71h-146l137 173h106zM864 391q0 -175 -113.5 -289.5t-298.5 -114.5q-181 0 -297 115.5t-116 288.5t116 288t297 115q182 0 297 -114.5t115 -288.5zM689 391q0 107 -64 178.5t-173 71.5q-107 0 -172.5 -72t-65.5 -178q0 -107 65.5 -180
t172.5 -73q109 0 173 72.5t64 180.5z" />
    <glyph glyph-name="Otilde" unicode="&#xd5;" horiz-adv-x="903" 
d="M635 943q0 -57 -24 -87.5t-70 -30.5q-21 0 -73.5 20t-68.5 20q-9 0 -13.5 -2t-9.5 -11.5t-8 -29.5h-90q0 46 25.5 83.5t68.5 37.5q26 0 80 -21t65 -21q14 0 22 13.5t9 28.5h87zM864 391q0 -175 -113.5 -289.5t-298.5 -114.5q-181 0 -297 115.5t-116 288.5t116 288
t297 115q182 0 297 -114.5t115 -288.5zM689 391q0 107 -64 178.5t-173 71.5q-107 0 -172.5 -72t-65.5 -178q0 -107 65.5 -180t172.5 -73q109 0 173 72.5t64 180.5z" />
    <glyph glyph-name="Odieresis" unicode="&#xd6;" horiz-adv-x="903" 
d="M621 835h-139v142h139v-142zM418 835h-139v142h139v-142zM864 391q0 -175 -113.5 -289.5t-298.5 -114.5q-181 0 -297 115.5t-116 288.5t116 288t297 115q182 0 297 -114.5t115 -288.5zM689 391q0 107 -64 178.5t-173 71.5q-107 0 -172.5 -72t-65.5 -178q0 -107 65.5 -180
t172.5 -73q109 0 173 72.5t64 180.5z" />
    <glyph glyph-name="multiply" unicode="&#xd7;" horiz-adv-x="549" 
d="M528 137l-103 -103l-147 147l-147 -147l-103 103l147 147l-146 146l103 103l146 -146l146 146l103 -103l-146 -146z" />
    <glyph glyph-name="Oslash" unicode="&#xd8;" horiz-adv-x="904" 
d="M864 391q0 -175 -113.5 -289.5t-298.5 -114.5q-145 0 -252 77l-89 -100l-48 46l86 98q-110 113 -110 283q0 173 116 288t297 115q139 0 241 -69l100 113l50 -48l-96 -108q117 -114 117 -291zM586 603q-57 38 -134 38q-107 0 -172.5 -72t-65.5 -178q0 -90 47 -157z
M689 391q0 98 -53 165l-329 -371q63 -47 145 -47q109 0 173 72.5t64 180.5z" />
    <glyph glyph-name="Ugrave" unicode="&#xd9;" horiz-adv-x="865" 
d="M416 832h-157l-126 183h157zM752 305q0 -65 -17.5 -120t-53.5 -100t-99 -70.5t-146 -25.5q-163 0 -243 87.5t-80 228.5v468h176v-454q0 -91 34.5 -132.5t113.5 -41.5q77 0 108 41t31 133v454h176v-468z" />
    <glyph glyph-name="Uacute" unicode="&#xda;" horiz-adv-x="865" 
d="M475 1005l-126 -183h-160l126 183h160zM756 301q0 -65 -17.5 -120t-53.5 -100t-99 -70.5t-146 -25.5q-163 0 -243 87.5t-80 228.5v468h176v-454q0 -91 34.5 -132.5t113.5 -41.5q77 0 108 41t31 133v454h176v-468z" />
    <glyph glyph-name="Ucircumflex" unicode="&#xdb;" horiz-adv-x="865" 
d="M587 848h-142l-44 71l-44 -71h-146l137 173h106zM752 305q0 -65 -17.5 -120t-53.5 -100t-99 -70.5t-146 -25.5q-163 0 -243 87.5t-80 228.5v468h176v-454q0 -91 34.5 -132.5t113.5 -41.5q77 0 108 41t31 133v454h176v-468z" />
    <glyph glyph-name="Udieresis" unicode="&#xdc;" horiz-adv-x="865" 
d="M600 835h-139v142h139v-142zM397 835h-139v142h139v-142zM752 305q0 -65 -17.5 -120t-53.5 -100t-99 -70.5t-146 -25.5q-163 0 -243 87.5t-80 228.5v468h176v-454q0 -91 34.5 -132.5t113.5 -41.5q77 0 108 41t31 133v454h176v-468z" />
    <glyph glyph-name="Yacute" unicode="&#xdd;" horiz-adv-x="648" 
d="M475 1005l-126 -183h-160l126 183h160zM668 791l-256 -429v-362h-177v363l-257 428h185l160 -263l160 263h185z" />
    <glyph glyph-name="Thorn" unicode="&#xde;" horiz-adv-x="680" 
d="M666 432q0 -111 -77 -179.5t-195 -68.5h-94v-184h-177v786h177v-130h83q142 0 212.5 -60t70.5 -164zM490 431q0 43 -24.5 62.5t-94.5 19.5h-71v-179h72q70 0 94 21t24 76z" />
    <glyph glyph-name="germandbls" unicode="&#xdf;" horiz-adv-x="622" 
d="M601 218q0 -118 -63.5 -174t-173.5 -56q-56 0 -92 18v128q22 -12 82 -12q36 0 57.5 25t21.5 78q0 79 -38 117.5t-128 60.5v101h31q99 0 99 91q0 27 -24.5 45t-52.5 18q-36 0 -63.5 -22.5t-27.5 -79.5v-556h-165v577q0 110 67.5 162t179.5 52t176 -44t64 -126
q0 -129 -120 -160q65 -20 117.5 -84.5t52.5 -158.5z" />
    <glyph glyph-name="agrave" unicode="&#xe0;" horiz-adv-x="580" 
d="M388 522h-157l-126 183h157zM515 0h-165v37q-69 -46 -157 -46q-72 0 -114.5 37.5t-42.5 101.5q0 102 128 150q37 14 84 18t75 1l28 -3v16q0 64 -111 64q-68 0 -126 -36l-48 102q31 17 88.5 28.5t108.5 11.5q127 0 189.5 -38t62.5 -126v-318zM349 125v89q-155 0 -155 -65
q0 -48 55 -48q60 0 100 24z" />
    <glyph glyph-name="aacute" unicode="&#xe1;" horiz-adv-x="580" 
d="M475 705l-126 -183h-160l126 183h160zM515 0h-165v37q-69 -46 -157 -46q-72 0 -114.5 37.5t-42.5 101.5q0 102 128 150q37 14 84 18t75 1l28 -3v16q0 64 -111 64q-68 0 -126 -36l-48 102q31 17 88.5 28.5t108.5 11.5q127 0 189.5 -38t62.5 -126v-318zM349 125v89
q-155 0 -155 -65q0 -48 55 -48q60 0 100 24z" />
    <glyph glyph-name="acircumflex" unicode="&#xe2;" horiz-adv-x="580" 
d="M476 522h-142l-44 71l-44 -71h-146l137 173h106zM515 0h-165v37q-69 -46 -157 -46q-72 0 -114.5 37.5t-42.5 101.5q0 102 128 150q37 14 84 18t75 1l28 -3v16q0 64 -111 64q-68 0 -126 -36l-48 102q31 17 88.5 28.5t108.5 11.5q127 0 189.5 -38t62.5 -126v-318zM349 125
v89q-155 0 -155 -65q0 -48 55 -48q60 0 100 24z" />
    <glyph glyph-name="atilde" unicode="&#xe3;" horiz-adv-x="580" 
d="M474 643q0 -57 -24 -87.5t-70 -30.5q-21 0 -73.5 20t-68.5 20q-9 0 -13.5 -2t-9.5 -11.5t-8 -29.5h-90q0 46 25.5 83.5t68.5 37.5q26 0 80 -21t65 -21q14 0 22 13.5t9 28.5h87zM515 0h-165v37q-69 -46 -157 -46q-72 0 -114.5 37.5t-42.5 101.5q0 102 128 150q37 14 84 18
t75 1l28 -3v16q0 64 -111 64q-68 0 -126 -36l-48 102q31 17 88.5 28.5t108.5 11.5q127 0 189.5 -38t62.5 -126v-318zM349 125v89q-155 0 -155 -65q0 -48 55 -48q60 0 100 24z" />
    <glyph glyph-name="adieresis" unicode="&#xe4;" horiz-adv-x="580" 
d="M464 522h-139v142h139v-142zM261 522h-139v142h139v-142zM515 0h-165v37q-69 -46 -157 -46q-72 0 -114.5 37.5t-42.5 101.5q0 102 128 150q37 14 84 18t75 1l28 -3v16q0 64 -111 64q-68 0 -126 -36l-48 102q31 17 88.5 28.5t108.5 11.5q127 0 189.5 -38t62.5 -126v-318z
M349 125v89q-155 0 -155 -65q0 -48 55 -48q60 0 100 24z" />
    <glyph glyph-name="aring" unicode="&#xe5;" horiz-adv-x="580" 
d="M408 644q0 -51 -33.5 -86.5t-82.5 -35.5t-83.5 34.5t-34.5 85.5q0 50 34 85.5t82 35.5q49 0 83.5 -35t34.5 -84zM515 0h-165v37q-69 -46 -157 -46q-72 0 -114.5 37.5t-42.5 101.5q0 102 128 150q37 14 84 18t75 1l28 -3v16q0 64 -111 64q-68 0 -126 -36l-48 102
q31 17 88.5 28.5t108.5 11.5q127 0 189.5 -38t62.5 -126v-318zM350 642q0 23 -16 41.5t-43 18.5q-25 0 -42 -17t-17 -42q0 -26 20.5 -43t38.5 -17q23 0 41 18t18 41zM349 125v89q-155 0 -155 -65q0 -48 55 -48q60 0 100 24z" />
    <glyph glyph-name="ae" unicode="&#xe6;" horiz-adv-x="892" 
d="M852 205h-346q3 -50 43.5 -76.5t89.5 -26.5q81 0 138 56l70 -92q-53 -44 -104 -62.5t-130 -18.5q-61 0 -115.5 20.5t-86.5 55.5l-19.5 -13.5l-21 -14.5l-19.5 -12.5t-22 -12.5l-21.5 -9t-26 -8t-27 -4t-31.5 -2q-187 0 -187 155q0 47 25.5 81.5t67 52.5t78 27t74.5 12
q11 1 35 2.5t35 2.5q0 14 -3 21.5t-5.5 9.5t-11.5 6q-24 11 -71 13q-53 2 -141 -28l-48 102q108 40 192 40q24 0 43 -1t32.5 -1.5t27 -3.5l20.5 -4.5t18 -6.5t14.5 -7l16 -9t16.5 -9q67 46 154 46q112 0 179.5 -77.5t67.5 -203.5zM682 293q-8 34 -33 60t-58 26t-56.5 -24.5
t-27.5 -61.5h175zM349 150v57q-1 9 -1 26q-31 -5 -69 -12q-85 -16 -85 -67q0 -39 50 -39q39 0 105 35z" />
    <glyph glyph-name="ccedilla" unicode="&#xe7;" horiz-adv-x="508" 
d="M499 88q-60 -88 -174 -101q23 -6 45.5 -29t22.5 -59q0 -31 -16 -52.5t-40 -29.5t-39 -11t-26 -3q-68 0 -123 28l16 44q42 -15 82 -15q21 0 39.5 7.5t18.5 25.5q0 34 -32 34q-21 0 -30 -4t-31 -23l-34 37l56 52q-91 16 -145 81.5t-54 162.5q0 109 68.5 181t187.5 72
q117 0 192 -75l-108 -109q-31 46 -79 46q-51 0 -79.5 -28.5t-28.5 -78.5q0 -58 29 -89.5t76 -31.5q28 0 51 14.5t33 38.5z" />
    <glyph glyph-name="egrave" unicode="&#xe8;" horiz-adv-x="560" 
d="M376 522h-157l-126 183h157zM524 205h-346q4 -36 26 -60t48 -33t55 -9q45 0 77.5 11.5t64.5 44.5l71 -94q-63 -48 -111 -64t-124 -16q-116 0 -190.5 66t-74.5 182q0 113 72 183t185 70q112 0 179.5 -77.5t67.5 -203.5zM354 293q-8 35 -33 60.5t-61 25.5q-33 0 -55 -24.5
t-26 -61.5h175z" />
    <glyph glyph-name="eacute" unicode="&#xe9;" horiz-adv-x="560" 
d="M475 705l-126 -183h-160l126 183h160zM524 205h-346q4 -36 26 -60t48 -33t55 -9q45 0 77.5 11.5t64.5 44.5l71 -94q-63 -48 -111 -64t-124 -16q-116 0 -190.5 66t-74.5 182q0 113 72 183t185 70q112 0 179.5 -77.5t67.5 -203.5zM354 293q-8 35 -33 60.5t-61 25.5
q-33 0 -55 -24.5t-26 -61.5h175z" />
    <glyph glyph-name="ecircumflex" unicode="&#xea;" horiz-adv-x="560" 
d="M476 522h-142l-44 71l-44 -71h-146l137 173h106zM524 205h-346q4 -36 26 -60t48 -33t55 -9q45 0 77.5 11.5t64.5 44.5l71 -94q-63 -48 -111 -64t-124 -16q-116 0 -190.5 66t-74.5 182q0 113 72 183t185 70q112 0 179.5 -77.5t67.5 -203.5zM354 293q-8 35 -33 60.5
t-61 25.5q-33 0 -55 -24.5t-26 -61.5h175z" />
    <glyph glyph-name="edieresis" unicode="&#xeb;" horiz-adv-x="560" 
d="M454 522h-139v142h139v-142zM251 522h-139v142h139v-142zM524 205h-346q4 -36 26 -60t48 -33t55 -9q45 0 77.5 11.5t64.5 44.5l71 -94q-63 -48 -111 -64t-124 -16q-116 0 -190.5 66t-74.5 182q0 113 72 183t185 70q112 0 179.5 -77.5t67.5 -203.5zM354 293
q-8 35 -33 60.5t-61 25.5q-33 0 -55 -24.5t-26 -61.5h175z" />
    <glyph glyph-name="igrave" unicode="&#xec;" horiz-adv-x="293" 
d="M236 522h-157l-126 183h157zM230 0h-166v469h166v-469z" />
    <glyph glyph-name="iacute" unicode="&#xed;" horiz-adv-x="293" 
d="M344 695l-133 -173h-106l-137 173h146l44 -71l44 71h142zM230 0h-166v469h166v-469z" />
    <glyph glyph-name="icircumflex" unicode="&#xee;" horiz-adv-x="293" 
d="M332 522h-142l-44 71l-44 -71h-146l137 173h106zM230 0h-166v469h166v-469z" />
    <glyph glyph-name="idieresis" unicode="&#xef;" horiz-adv-x="293" 
d="M321 522h-139v142h139v-142zM118 522h-139v142h139v-142zM230 0h-166v469h166v-469z" />
    <glyph glyph-name="eth" unicode="&#xf0;" horiz-adv-x="601" 
d="M603 299q0 -49 -16 -100t-48.5 -99.5t-91 -79t-133.5 -30.5q-143 0 -218 80t-75 213q0 119 75.5 192t197.5 73q66 0 98 -22q-23 37 -66 83l-124 -38l-25 81l80 24q-34 31 -52 44l100 112q57 -47 109 -108l133 41l25 -80l-101 -31q28 -37 50.5 -73.5t31.5 -54.5l9 -18
q41 -84 41 -209zM443 281q0 56 -40 88.5t-84 32.5q-52 0 -92 -32t-40 -88q0 -58 36 -93.5t93 -35.5q47 0 87 34t40 94z" />
    <glyph glyph-name="ntilde" unicode="&#xf1;" horiz-adv-x="596" 
d="M485 643q0 -57 -24 -87.5t-70 -30.5q-21 0 -73.5 20t-68.5 20q-9 0 -13.5 -2t-9.5 -11.5t-8 -29.5h-90q0 46 25.5 83.5t68.5 37.5q26 0 80 -21t65 -21q14 0 22 13.5t9 28.5h87zM533 0h-166v268q0 83 -65 83q-72 0 -72 -82v-269h-166v469h166v-37q17 19 54 33.5t73 14.5
q79 0 127.5 -43.5t48.5 -131.5v-305z" />
    <glyph glyph-name="ograve" unicode="&#xf2;" horiz-adv-x="541" 
d="M356 522h-157l-126 183h157zM522 234q0 -104 -70 -176t-181 -72q-110 0 -180.5 72t-70.5 176t70.5 176t180.5 72q111 0 181 -72t70 -176zM364 234q0 46 -25 78t-68 32t-68 -32t-25 -78t25 -78t68 -32t68 32t25 78z" />
    <glyph glyph-name="oacute" unicode="&#xf3;" horiz-adv-x="541" 
d="M475 705l-126 -183h-160l126 183h160zM522 234q0 -104 -70 -176t-181 -72q-110 0 -180.5 72t-70.5 176t70.5 176t180.5 72q111 0 181 -72t70 -176zM364 234q0 46 -25 78t-68 32t-68 -32t-25 -78t25 -78t68 -32t68 32t25 78z" />
    <glyph glyph-name="ocircumflex" unicode="&#xf4;" horiz-adv-x="541" 
d="M456 522h-142l-44 71l-44 -71h-146l137 173h106zM522 234q0 -104 -70 -176t-181 -72q-110 0 -180.5 72t-70.5 176t70.5 176t180.5 72q111 0 181 -72t70 -176zM364 234q0 46 -25 78t-68 32t-68 -32t-25 -78t25 -78t68 -32t68 32t25 78z" />
    <glyph glyph-name="otilde" unicode="&#xf5;" horiz-adv-x="541" 
d="M465 643q0 -57 -24 -87.5t-70 -30.5q-21 0 -73.5 20t-68.5 20q-9 0 -13.5 -2t-9.5 -11.5t-8 -29.5h-90q0 46 25.5 83.5t68.5 37.5q26 0 80 -21t65 -21q14 0 22 13.5t9 28.5h87zM522 234q0 -104 -70 -176t-181 -72q-110 0 -180.5 72t-70.5 176t70.5 176t180.5 72
q111 0 181 -72t70 -176zM364 234q0 46 -25 78t-68 32t-68 -32t-25 -78t25 -78t68 -32t68 32t25 78z" />
    <glyph glyph-name="odieresis" unicode="&#xf6;" horiz-adv-x="541" 
d="M444 522h-139v142h139v-142zM241 522h-139v142h139v-142zM522 234q0 -104 -70 -176t-181 -72q-110 0 -180.5 72t-70.5 176t70.5 176t180.5 72q111 0 181 -72t70 -176zM364 234q0 46 -25 78t-68 32t-68 -32t-25 -78t25 -78t68 -32t68 32t25 78z" />
    <glyph glyph-name="divide" unicode="&#xf7;" horiz-adv-x="550" 
d="M328 371q0 -24 -16.5 -40t-41.5 -16q-22 0 -37.5 16.5t-15.5 39.5t16.5 39.5t39.5 16.5t39 -16t16 -40zM464 198h-379v55h379v-55zM328 81q0 -24 -16.5 -40t-41.5 -16q-22 0 -37.5 16.5t-15.5 39.5t16.5 39.5t39.5 16.5t39 -16t16 -40z" />
    <glyph glyph-name="oslash" unicode="&#xf8;" horiz-adv-x="562" 
d="M542 234q0 -103 -74.5 -175.5t-186.5 -72.5q-78 0 -141 38l-65 -74l-51 49l61 69q-65 70 -65 166q0 103 75 175.5t186 72.5q76 0 139 -36l59 67l51 -46l-56 -64q68 -70 68 -169zM322 335q-20 9 -41 9q-44 0 -73.5 -32.5t-29.5 -77.5q0 -25 11 -49zM384 234q0 27 -13 53
l-134 -153q22 -10 44 -10q44 0 73.5 32.5t29.5 77.5z" />
    <glyph glyph-name="ugrave" unicode="&#xf9;" horiz-adv-x="597" 
d="M376 522h-157l-126 183h157zM533 0h-159v40q-15 -18 -54.5 -34.5t-69.5 -16.5t-58.5 8t-59 26.5t-49.5 58.5t-19 96v291h166v-247q0 -52 12.5 -78.5t52.5 -26.5q39 0 55.5 27t16.5 88v237h166v-469z" />
    <glyph glyph-name="uacute" unicode="&#xfa;" horiz-adv-x="597" 
d="M486 695l-133 -173h-106l-137 173h146l44 -71l44 71h142zM533 0h-159v40q-15 -18 -54.5 -34.5t-69.5 -16.5t-58.5 8t-59 26.5t-49.5 58.5t-19 96v291h166v-247q0 -52 12.5 -78.5t52.5 -26.5q39 0 55.5 27t16.5 88v237h166v-469z" />
    <glyph glyph-name="ucircumflex" unicode="&#xfb;" horiz-adv-x="597" 
d="M480 522h-142l-44 71l-44 -71h-146l137 173h106zM533 0h-159v40q-15 -18 -54.5 -34.5t-69.5 -16.5t-58.5 8t-59 26.5t-49.5 58.5t-19 96v291h166v-247q0 -52 12.5 -78.5t52.5 -26.5q39 0 55.5 27t16.5 88v237h166v-469z" />
    <glyph glyph-name="udieresis" unicode="&#xfc;" horiz-adv-x="597" 
d="M464 522h-139v142h139v-142zM261 522h-139v142h139v-142zM533 0h-159v40q-15 -18 -54.5 -34.5t-69.5 -16.5t-58.5 8t-59 26.5t-49.5 58.5t-19 96v291h166v-247q0 -52 12.5 -78.5t52.5 -26.5q39 0 55.5 27t16.5 88v237h166v-469z" />
    <glyph glyph-name="yacute" unicode="&#xfd;" horiz-adv-x="491" 
d="M475 705l-126 -183h-160l126 183h160zM490 469l-165 -520q-47 -150 -161 -150q-43 0 -122 20l34 130q34 -18 60 -18q51 0 33 55l-152 483h169l70 -278l72 278h162z" />
    <glyph glyph-name="thorn" unicode="&#xfe;" horiz-adv-x="601" 
d="M581 246q0 -74 -21 -127.5t-56 -80t-70.5 -38t-75.5 -11.5q-86 0 -128 50v-266h-166v1015h163v-356q47 51 128 51q61 0 107.5 -23.5t71 -61.5t36 -76t11.5 -76zM410 238q0 50 -25 81.5t-69 31.5q-45 0 -68.5 -33.5t-23.5 -88.5q0 -50 24.5 -80t69.5 -30q44 0 68 34t24 85
z" />
    <glyph glyph-name="ydieresis" unicode="&#xff;" horiz-adv-x="491" 
d="M426 522h-139v142h139v-142zM223 522h-139v142h139v-142zM490 469l-165 -520q-47 -150 -161 -150q-43 0 -122 20l34 130q34 -18 60 -18q51 0 33 55l-152 483h169l70 -278l72 278h162z" />
    <glyph glyph-name="dotlessi" unicode="&#x131;" horiz-adv-x="293" 
d="M230 0h-166v469h166v-469z" />
    <glyph glyph-name="Lslash" unicode="&#x141;" horiz-adv-x="594" 
d="M578 0h-455v330l-75 -34l-35 78l110 50v362h176v-281l80 37l35 -78l-115 -53v-262h279v-149z" />
    <glyph glyph-name="lslash" unicode="&#x142;" horiz-adv-x="293" 
d="M354 464l-124 -57v-407h-166v331l-76 -35l-35 78l111 51v363h166v-287l89 41z" />
    <glyph glyph-name="OE" unicode="&#x152;" horiz-adv-x="1232" 
d="M1163 0h-482v60q-100 -73 -239 -73q-169 0 -286 116t-117 287q0 172 116 288t287 116q136 0 239 -75v67h458v-143h-282v-171h250v-142h-250v-180h306v-150zM689 391q0 107 -64 178.5t-173 71.5q-107 0 -172.5 -72t-65.5 -178q0 -107 65.5 -180t172.5 -73q109 0 173 72.5
t64 180.5z" />
    <glyph glyph-name="oe" unicode="&#x153;" horiz-adv-x="913" 
d="M874 205h-346q4 -36 26 -60t48 -33t55 -9q45 0 77.5 11.5t64.5 44.5l71 -94q-63 -48 -111 -64t-124 -16q-127 0 -194 75q-61 -74 -170 -74q-110 0 -180.5 72t-70.5 176t70.5 176t180.5 72q67 0 104 -18.5t69 -56.5q64 79 183 79q112 0 179.5 -77.5t67.5 -203.5zM704 293
q-8 35 -33 60.5t-61 25.5q-33 0 -55 -24.5t-26 -61.5h175zM364 234q0 46 -25 78t-68 32t-68 -32t-25 -78t25 -78t68 -32t68 32t25 78z" />
    <glyph glyph-name="Scaron" unicode="&#x160;" horiz-adv-x="623" 
d="M466 995l-133 -173h-106l-137 173h146l44 -71l44 71h142zM579 225q0 -104 -71.5 -168.5t-206.5 -64.5q-158 0 -276 91l97 132q102 -79 188 -79q92 0 92 79q0 47 -57 77l-138 72q-159 84 -159 216q0 97 75 158t190 61q145 0 243 -72l-90 -127q-67 58 -153 58
q-40 0 -65 -18.5t-25 -52.5q0 -32 16 -50t52 -36l108 -54q82 -41 131 -93t49 -129z" />
    <glyph glyph-name="scaron" unicode="&#x161;" horiz-adv-x="480" 
d="M466 695l-133 -173h-106l-137 173h146l44 -71l44 71h142zM441 126q0 -62 -49 -101.5t-136 -39.5q-142 0 -224 54l60 118q32 -26 72.5 -38t63.5 -12q38 0 38 23q0 20 -29 37l-69 37q-19 10 -38 24t-41 44t-22 62q0 75 52 110.5t127 35.5q95 0 179 -34l-57 -114
q-48 41 -109 41q-25 0 -25 -22q0 -20 33 -38l66 -37q108 -60 108 -150z" />
    <glyph glyph-name="Ydieresis" unicode="&#x178;" horiz-adv-x="648" 
d="M495 835h-139v142h139v-142zM292 835h-139v142h139v-142zM668 791l-256 -429v-362h-177v363l-257 428h185l160 -263l160 263h185z" />
    <glyph glyph-name="Zcaron" unicode="&#x17d;" horiz-adv-x="722" 
d="M466 995l-133 -173h-106l-137 173h146l44 -71l44 71h142zM707 785l-400 -636h376v-148h-676l410 642h-354v142h644z" />
    <glyph glyph-name="zcaron" unicode="&#x17e;" horiz-adv-x="546" 
d="M466 695l-133 -173h-106l-137 173h146l44 -71l44 71h142zM530 469l-219 -327h193v-142h-488l232 327h-183v142h465z" />
    <glyph glyph-name="florin" unicode="&#x192;" horiz-adv-x="700" 
d="M673 780l-33 -115h-78q-24 0 -41 -12q-19 -13 -33 -63l-35 -124h144l-35 -128h-145l-93 -328q-50 -182 -222 -182q-77 0 -123 10l33 115h78q22 0 40 13q20 13 32 56l90 316h-128l35 128h128l40 143q53 182 223 182q78 0 123 -11z" />
    <glyph glyph-name="circumflex" unicode="&#x2c6;" 
d="M587 848h-142l-44 71l-44 -71h-146l137 173h106z" />
    <glyph glyph-name="caron" unicode="&#x2c7;" 
d="M466 695l-133 -173h-106l-137 173h146l44 -71l44 71h142z" />
    <glyph glyph-name="breve" unicode="&#x2d8;" 
d="M465 643q0 -57 -24 -87.5t-70 -30.5q-21 0 -73.5 20t-68.5 20q-9 0 -13.5 -2t-9.5 -11.5t-8 -29.5h-90q0 46 25.5 83.5t68.5 37.5q26 0 80 -21t65 -21q14 0 22 13.5t9 28.5h87z" />
    <glyph glyph-name="dotaccent" unicode="&#x2d9;" 
d="M376 522h-157l-126 183h157z" />
    <glyph glyph-name="ring" unicode="&#x2da;" 
d="M518 956q0 -51 -33.5 -86.5t-82.5 -35.5t-83.5 34.5t-34.5 85.5q0 50 34 85.5t82 35.5q49 0 83.5 -35t34.5 -84zM460 954q0 23 -16 41.5t-43 18.5q-25 0 -42 -17t-17 -42q0 -26 20.5 -43t38.5 -17q23 0 41 18t18 41z" />
    <glyph glyph-name="ogonek" unicode="&#x2db;" 
d="M162 0h-97v117h97v-117z" />
    <glyph glyph-name="tilde" unicode="&#x2dc;" 
d="M635 959q0 -57 -24 -87.5t-70 -30.5q-21 0 -73.5 20t-68.5 20q-9 0 -13.5 -2t-9.5 -11.5t-8 -29.5h-90q0 46 25.5 83.5t68.5 37.5q26 0 80 -21t65 -21q14 0 22 13.5t9 28.5h87z" />
    <glyph glyph-name="hungarumlaut" unicode="&#x2dd;" 
d="M162 0h-97v117h97v-117z" />
    <glyph glyph-name="pi" unicode="&#x3c0;" horiz-adv-x="549" 
d="M506 136q0 -65 -31 -106t-73 -41q-35 0 -54.5 28t-19.5 76l18 257h-131l-22 -174q-16 -127 -30 -157q-15 -32 -44 -32q-25 0 -38.5 12t-13.5 31q0 17 10.5 32t23.5 25.5t26.5 34t18.5 54.5l27 174h-54q-22 0 -44 -14t-33 -42h-15l3 10q2 9 4.5 15l7 17.5t10 20.5t13 20
t17 19t21 15.5t26.5 11t32 3.5h338v-76h-111q-12 -142 -12 -174q0 -50 12 -78t48 -28q20 0 36 21t16 45h18z" />
    <glyph glyph-name="endash" unicode="&#x2013;" 
d="M497 214h-497v114h497v-114z" />
    <glyph glyph-name="emdash" unicode="&#x2014;" horiz-adv-x="1000" 
d="M997 214h-997v114h997v-114z" />
    <glyph glyph-name="quoteleft" unicode="&#x2018;" horiz-adv-x="250" 
d="M210 729q-41 -49 -41 -114v-141h-149v67q0 98 29 160q21 44 70 91z" />
    <glyph glyph-name="quoteright" unicode="&#x2019;" horiz-adv-x="250" 
d="M217 722q0 -98 -29 -160q-21 -44 -70 -91l-91 63q41 49 41 114v141h149v-67z" />
    <glyph glyph-name="quotesinglbase" unicode="&#x201a;" horiz-adv-x="233" 
d="M207 72q0 -98 -29 -160q-21 -44 -70 -91l-91 63q41 49 41 114v141h149v-67z" />
    <glyph glyph-name="quotedblleft" unicode="&#x201c;" horiz-adv-x="450" 
d="M441 729q-41 -49 -41 -114v-141h-149v67q0 98 29 160q21 44 70 91zM210 729q-41 -49 -41 -114v-141h-149v67q0 98 29 160q21 44 70 91z" />
    <glyph glyph-name="quotedblright" unicode="&#x201d;" horiz-adv-x="450" 
d="M437 722q0 -98 -29 -160q-21 -44 -70 -91l-91 63q41 49 41 114v141h149v-67zM217 722q0 -98 -29 -160q-21 -44 -70 -91l-91 63q41 49 41 114v141h149v-67z" />
    <glyph glyph-name="quotedblbase" unicode="&#x201e;" horiz-adv-x="450" 
d="M446 72q0 -41 -9 -86.5t-19 -68.5q-21 -44 -81 -96l-91 63q20 20 36 48q30 54 15 144l-10 63h159v-67zM207 72q0 -98 -29 -160q-21 -44 -70 -91l-91 63q41 49 41 114v141h149v-67z" />
    <glyph glyph-name="dagger" unicode="&#x2020;" horiz-adv-x="510" 
d="M509 427h-170v-614h-170v614h-170v149h170v210h170v-210h170v-149z" />
    <glyph glyph-name="daggerdbl" unicode="&#x2021;" horiz-adv-x="510" 
d="M509 57h-170v-244h-170v244h-170v149h170v221h-170v149h170v210h170v-210h170v-149h-170v-221h170v-149z" />
    <glyph glyph-name="bullet" unicode="&#x2022;" 
d="M430 310l-168 -198l-174 204l173 198z" />
    <glyph glyph-name="ellipsis" unicode="&#x2026;" horiz-adv-x="1000" 
d="M852 0h-107v117h107v-117zM562 0h-107v117h107v-117zM252 0h-107v117h107v-117z" />
    <glyph glyph-name="perthousand" unicode="&#x2030;" horiz-adv-x="1418" 
d="M424 610q0 -81 -57.5 -138t-137.5 -57t-137 57t-57 138q0 80 57 137t137 57t137.5 -57t57.5 -137zM723 785l-304 -785l-143 -1l303 786h144zM1386 180q0 -81 -57.5 -138t-137.5 -57t-137 57t-57 138q0 80 57 137t137 57t137.5 -57t57.5 -137zM966 180q0 -81 -57.5 -138
t-137.5 -57t-137 57t-57 138q0 80 57 137t137 57t137.5 -57t57.5 -137zM317 611q0 36 -26 62.5t-62 26.5t-61.5 -26.5t-25.5 -62.5q0 -38 25.5 -65.5t61.5 -27.5t62 27.5t26 65.5zM1279 180q0 36 -26 63t-62 27t-61.5 -27t-25.5 -63q0 -37 25.5 -64t61.5 -27t62 27t26 64z
M859 180q0 36 -26 63t-62 27t-61.5 -27t-25.5 -63q0 -37 25.5 -64t61.5 -27t62 27t26 64z" />
    <glyph glyph-name="guilsinglleft" unicode="&#x2039;" horiz-adv-x="253" 
d="M223 63l-193 116v125l192 114v-128l-94 -53l95 -44v-130z" />
    <glyph glyph-name="guilsinglright" unicode="&#x203a;" horiz-adv-x="253" 
d="M223 176l-192 -114v128l94 53l-95 44v130l193 -116v-125z" />
    <glyph glyph-name="fraction" unicode="&#x2044;" horiz-adv-x="100" 
d="M241 785l-304 -785l-103 -1l303 786h104z" />
    <glyph glyph-name="trademark" unicode="&#x2122;" horiz-adv-x="840" 
d="M773 392h-96v226l-90 -116h-50l-93 117v-227h-95v393h94l121 -165l114 165h95v-393zM312 699h-103v-307h-99v307h-103v86h305v-86z" />
    <glyph glyph-name="Omega" unicode="&#x2126;" horiz-adv-x="768" 
d="M736 0h-295l16 140q62 24 107 86.5t45 177.5t-56.5 191t-167.5 76q-113 0 -168.5 -73.5t-55.5 -193.5q0 -116 46 -180t106 -84l16 -140h-295v150h25q9 -37 22 -49t44 -12h148l-2 28q-102 23 -158 106.5t-56 180.5q0 136 92 217.5t236 81.5q149 0 238.5 -81t89.5 -218
q0 -64 -20 -120.5t-70 -103.5t-124 -63l-3 -28h149q31 0 44 12t22 49h25v-150z" />
    <glyph glyph-name="partialdiff" unicode="&#x2202;" horiz-adv-x="494" 
d="M462 393q0 -107 -25.5 -196.5t-85 -150.5t-144.5 -61q-76 0 -121 47t-45 143q0 132 58.5 197.5t141.5 65.5q51 0 80 -14t61 -49q3 36 3 75q0 104 -39.5 156t-129.5 52q-17 0 -31.5 -1.5t-23.5 -3.5t-19.5 -6t-14 -6l-13 -7.5t-10.5 -6.5l-39 50q56 28 134 28
q125 0 194 -89.5t69 -222.5zM377 335q-16 18 -25.5 27t-34 20t-52.5 11q-70 0 -105.5 -58t-35.5 -160q0 -87 22.5 -122.5t69.5 -35.5q136 0 161 318z" />
    <glyph glyph-name="Delta" unicode="&#x2206;" horiz-adv-x="612" 
d="M608 0h-602l320 688zM484 49l-194 468l-218 -468h412z" />
    <glyph glyph-name="product" unicode="&#x220f;" horiz-adv-x="823" 
d="M803 -101h-306v23q49 0 72.5 16t23.5 65v693h-358v-693q0 -49 23.5 -65t73.5 -16v-23h-307v23q50 0 73.5 16t23.5 65v626q0 99 -95 99v23h773v-23q-94 0 -94 -99v-626q0 -49 23.5 -65t73.5 -16v-23z" />
    <glyph glyph-name="summation" unicode="&#x2211;" horiz-adv-x="713" 
d="M695 122q-30 -123 -43 -224q-72 11 -77 11h-503q-10 0 -29 -1.5t-29 -1.5l349 398l-347 454q8 0 46 -3.5t58 -3.5h497l6 -159h-20q-1 5 -4 13q-8 28 -14 41.5t-21.5 30t-43 23t-70.5 6.5h-263l273 -358l-294 -339h371q51 0 80 24t55 89h23z" />
    <glyph glyph-name="minus" unicode="&#x2212;" horiz-adv-x="549" 
d="M524 227h-500v139h500v-139z" />
    <glyph glyph-name="radical" unicode="&#x221a;" horiz-adv-x="549" 
d="M515 912l-150 -950l-243 502l-96 -47l-16 33l146 72l197 -403l127 798z" />
    <glyph glyph-name="infinity" unicode="&#x221e;" horiz-adv-x="713" 
d="M687 269q0 -62 -39 -103.5t-96 -41.5q-48 0 -86.5 22t-108.5 85q-62 -59 -104 -82.5t-99 -23.5q-58 0 -92.5 35.5t-34.5 98.5q0 62 39 103.5t96 41.5q48 0 86.5 -22t108.5 -85q63 59 104.5 82.5t98.5 23.5q58 0 92.5 -35.5t34.5 -98.5zM633 268q0 44 -26 65.5t-65 21.5
q-35 0 -67.5 -20t-84.5 -71q59 -50 93 -69t63 -19q87 0 87 92zM324 264q-59 50 -93 69t-63 19q-87 0 -87 -92q0 -44 26 -65.5t65 -21.5q35 0 67.5 20t84.5 71z" />
    <glyph glyph-name="integral" unicode="&#x222b;" horiz-adv-x="274" 
d="M291 822q0 -20 -15 -33t-37 -13q-14 0 -29.5 13t-20.5 13q-18 0 -18 -24q-1 -13 9 -133t10 -197l-1 -216q-1 -201 -38 -295q-32 -84 -93 -84q-26 0 -42 15t-16 34q0 18 12 34t34 16q23 0 36.5 -12t22.5 -12q6 0 11 13.5t8 38.5t2 54q-6 239 -6 314v144q0 222 26 310
q8 27 31 50.5t52 23.5q62 0 62 -54z" />
    <glyph glyph-name="approxequal" unicode="&#x2248;" horiz-adv-x="549" 
d="M479 310q-18 -34 -49 -53t-63 -19q-16 0 -33 5l-120 39q-19 4 -34 6q-15 0 -27.5 -4t-21.5 -12t-14 -13.5t-11 -14.5l-7 -10l-36 37q49 71 117 71q24 0 42 -6l121 -38q7 -2 24 -2q19 0 43 11.5t39 36.5zM479 180q-18 -34 -49 -52.5t-63 -18.5q-20 0 -33 4l-120 39
q-19 4 -34 6q-15 0 -27.5 -4t-21.5 -12t-14 -13.5t-11 -14.5l-7 -10l-36 37q49 71 117 71q24 0 42 -6l121 -38q14 -2 24 -2q19 0 43 11.5t39 36.5z" />
    <glyph glyph-name="notequal" unicode="&#x2260;" horiz-adv-x="549" 
d="M464 129h-202l-42 -107h-49l42 107h-128v55h149l30 82h-179v55h198l37 104h49l-36 -104h131v-55h-151l-30 -82h181v-55z" />
    <glyph glyph-name="lessequal" unicode="&#x2264;" horiz-adv-x="549" 
d="M455 101l-391 163v56l391 174v-57l-321 -143l321 -130v-63zM456 0h-391v55h391v-55z" />
    <glyph glyph-name="greaterequal" unicode="&#x2265;" horiz-adv-x="549" 
d="M482 265l-391 -164v57l321 133l-321 140v63l391 -173v-56zM484 0h-391v55h391v-55z" />
    <glyph glyph-name="lozenge" unicode="&#x25ca;" horiz-adv-x="494" 
d="M466 377l-194 -377h-60l-194 377l194 368h60zM406 377l-164 314l-164 -314l164 -323z" />
    <glyph glyph-name="fi" unicode="&#xfb01;" horiz-adv-x="644" 
d="M580 550h-166v152h166v-152zM580 0h-166v344h-164v-344h-166v346h-59v123h59v161q0 80 43.5 117t114.5 37h71v-145q-38 0 -49.5 -14.5t-11.5 -45.5v-110h328v-469z" />
    <glyph glyph-name="fl" unicode="&#xfb02;" horiz-adv-x="646" 
d="M582 0h-166v788h166v-788zM313 344h-63v-344h-166v346h-59v123h59v161q0 80 43.5 117t114.5 37h71v-145q-38 0 -49.5 -14.5t-11.5 -45.5v-110h61v-125z" />
    <glyph glyph-name="percent" horiz-adv-x="1000" 
d="M424 610q0 -81 -57.5 -138t-137.5 -57t-137 57t-57 138q0 80 57 137t137 57t137.5 -57t57.5 -137zM723 785l-304 -785l-143 -1l303 786h144zM966 180q0 -81 -57.5 -138t-137.5 -57t-137 57t-57 138q0 80 57 137t137 57t137.5 -57t57.5 -137zM317 611q0 36 -26 62.5
t-62 26.5t-61.5 -26.5t-25.5 -62.5q0 -38 25.5 -65.5t61.5 -27.5t62 27.5t26 65.5zM859 180q0 36 -26 63t-62 27t-61.5 -27t-25.5 -63q0 -37 25.5 -64t61.5 -27t62 27t26 64z" />
    <glyph glyph-name="apple" horiz-adv-x="621" 
d="M444 522h-139v142h139v-142zM241 522h-139v142h139v-142z" />
    </font>
</defs>
</svg>
