<?xml version="1.0" encoding="iso-8859-1"?>
<!-- Generator: Adobe Illustrator 19.0.0, SVG Export Plug-In . SVG Version: 6.00 Build 0)  -->
<svg version="1.1" id="Layer_1" xmlns="http://www.w3.org/2000/svg" xmlns:xlink="http://www.w3.org/1999/xlink" x="0px" y="0px"
	 viewBox="0 0 500 500" style="enable-background:new 0 0 500 500;" xml:space="preserve">
<polygon style="fill-rule:evenodd;clip-rule:evenodd;fill:#BABABA;" points="308.124,336.885 312.603,336.77 317.032,336.448 
	321.372,335.896 325.678,335.128 329.867,334.163 334.004,332.99 338.046,331.612 342.005,330.059 345.869,328.302 349.623,326.397 
	353.256,324.284 356.804,322.029 360.205,319.599 363.484,317.018 366.651,314.292 369.672,311.392 372.571,308.37 375.297,305.201 
	377.878,301.924 380.31,298.523 382.569,294.979 384.673,291.338 386.579,287.588 388.34,283.724 389.891,279.763 391.266,275.716 
	392.446,271.59 393.407,267.397 394.169,263.091 394.727,258.751 395.053,254.326 395.164,249.841 395.053,245.386 394.727,240.989 
	394.169,236.653 393.407,232.4 392.446,228.213 391.266,224.106 389.891,220.064 388.34,216.135 386.579,212.299 384.673,208.543 
	382.569,204.941 380.31,201.396 377.878,197.995 375.297,194.741 372.571,191.579 369.672,188.557 366.651,185.684 363.484,182.96 
	360.205,180.379 356.804,177.948 353.256,175.69 349.623,173.61 345.869,171.708 342.005,169.944 338.046,168.392 334.004,167.016 
	329.867,165.843 325.678,164.876 321.372,164.116 317.032,163.558 312.603,163.232 308.124,163.115 303.663,163.232 
	299.238,163.558 294.906,164.116 290.622,164.876 286.432,165.843 282.304,167.016 278.285,168.392 274.326,169.944 
	270.486,171.708 266.766,173.61 263.133,175.69 259.617,177.948 256.22,180.379 252.933,182.96 249.798,185.684 246.776,188.557 
	243.907,191.579 241.179,194.741 238.601,197.995 236.201,201.396 233.943,204.941 231.86,208.543 229.927,212.299 228.197,216.135 
	226.641,220.064 225.297,224.106 224.12,228.213 223.155,232.4 222.393,236.653 221.839,240.989 221.511,245.386 221.394,249.841 
	221.511,254.326 221.839,258.751 222.393,263.091 223.155,267.397 224.12,271.59 225.297,275.716 226.641,279.763 228.197,283.724 
	229.927,287.588 231.86,291.338 233.943,294.979 236.201,298.523 238.601,301.924 241.179,305.201 243.907,308.37 246.776,311.392 
	249.798,314.292 252.933,317.018 256.22,319.599 259.617,322.029 263.133,324.284 266.766,326.397 270.486,328.302 274.326,330.059 
	278.285,331.612 282.304,332.99 286.432,334.163 290.622,335.128 294.906,335.896 299.238,336.448 303.663,336.77 308.124,336.885 
	308.124,336.885 "/>
<polygon style="fill-rule:evenodd;clip-rule:evenodd;fill:#5C5C5C;" points="191.886,336.885 196.335,336.77 200.761,336.448 
	205.103,335.896 209.381,335.128 213.572,334.163 217.701,332.99 221.72,331.612 225.676,330.059 229.514,328.302 233.238,326.397 
	236.872,324.284 240.385,322.029 243.79,319.599 247.072,317.018 250.206,314.292 253.226,311.392 256.099,308.37 258.825,305.201 
	261.402,301.924 263.804,298.523 266.067,294.979 268.146,291.338 270.078,287.588 271.805,283.724 273.363,279.763 
	274.707,275.716 275.88,271.59 276.85,267.397 277.61,263.091 278.168,258.751 278.487,254.326 278.607,249.841 278.487,245.386 
	278.168,240.989 277.61,236.653 276.85,232.4 275.88,228.213 274.707,224.106 273.363,220.064 271.805,216.135 270.078,212.299 
	268.146,208.543 266.067,204.941 263.804,201.396 261.402,197.995 258.825,194.741 256.099,191.579 253.226,188.557 
	250.206,185.684 247.072,182.96 243.79,180.379 240.385,177.948 236.872,175.69 233.238,173.61 229.514,171.708 225.676,169.944 
	221.72,168.392 217.701,167.016 213.572,165.843 209.381,164.876 205.103,164.116 200.761,163.558 196.335,163.232 191.886,163.115 
	187.397,163.232 182.974,163.558 178.635,164.116 174.324,164.876 170.133,165.843 166,167.016 161.956,168.392 158.003,169.944 
	154.134,171.708 150.381,173.61 146.747,175.69 143.199,177.948 139.798,180.379 136.518,182.96 133.352,185.684 130.338,188.557 
	127.435,191.579 124.708,194.741 122.129,197.995 119.695,201.396 117.44,204.941 115.327,208.543 113.425,212.299 111.664,216.135 
	110.111,220.064 108.736,224.106 107.563,228.213 106.596,232.4 105.833,236.653 105.274,240.989 104.952,245.386 104.836,249.841 
	104.952,254.326 105.274,258.751 105.833,263.091 106.596,267.397 107.563,271.59 108.736,275.716 110.111,279.763 111.664,283.724 
	113.425,287.588 115.327,291.338 117.44,294.979 119.695,298.523 122.129,301.924 124.708,305.201 127.435,308.37 130.338,311.392 
	133.352,314.292 136.518,317.018 139.798,319.599 143.199,322.029 146.747,324.284 150.381,326.397 154.134,328.302 
	158.003,330.059 161.956,331.612 166,332.99 170.133,334.163 174.324,335.128 178.635,335.896 182.974,336.448 187.397,336.77 
	191.886,336.885 191.886,336.885 "/>
<polygon style="fill-rule:evenodd;clip-rule:evenodd;fill:#BABABA;" points="239.834,196.441 285.994,196.441 285.994,191.721 
	243.82,191.721 239.834,196.441 239.834,196.441 "/>
<polygon style="fill-rule:evenodd;clip-rule:evenodd;fill:#BABABA;" points="232.915,206.931 285.994,206.931 285.994,202.21 
	235.7,202.21 232.915,206.931 232.915,206.931 "/>
<polygon style="fill-rule:evenodd;clip-rule:evenodd;fill:#BABABA;" points="227.759,217.396 285.994,217.396 285.994,212.676 
	229.81,212.676 227.759,217.396 227.759,217.396 "/>
<polygon style="fill-rule:evenodd;clip-rule:evenodd;fill:#BABABA;" points="224.211,227.888 285.994,227.888 285.994,223.171 
	225.676,223.171 224.211,227.888 224.211,227.888 "/>
<polygon style="fill-rule:evenodd;clip-rule:evenodd;fill:#BABABA;" points="226.264,278.594 286.139,278.594 286.139,273.875 
	224.795,273.875 226.264,278.594 226.264,278.594 "/>
<polygon style="fill-rule:evenodd;clip-rule:evenodd;fill:#BABABA;" points="230.687,289.085 286.139,289.085 286.139,284.367 
	228.488,284.367 230.687,289.085 230.687,289.085 "/>
<polygon style="fill-rule:evenodd;clip-rule:evenodd;fill:#BABABA;" points="236.897,299.549 286.139,299.549 286.139,294.83 
	233.943,294.83 236.897,299.549 236.897,299.549 "/>
<polygon style="fill-rule:evenodd;clip-rule:evenodd;fill:#BABABA;" points="245.46,310.041 286.139,310.041 286.139,305.291 
	241.329,305.291 245.46,310.041 245.46,310.041 "/>
<polygon style="fill-rule:evenodd;clip-rule:evenodd;fill:#BABABA;" points="222.132,238.352 285.994,238.352 285.994,233.633 
	223.038,233.633 222.132,238.352 222.132,238.352 "/>
<polygon style="fill-rule:evenodd;clip-rule:evenodd;fill:#BABABA;" points="261.05,268.132 285.406,268.132 285.406,263.409 
	261.932,263.409 261.05,268.132 261.05,268.132 "/>
<polygon style="fill-rule:evenodd;clip-rule:evenodd;fill:#BABABA;" points="262.988,257.665 285.406,257.665 285.406,252.918 
	263.866,252.918 262.988,257.665 262.988,257.665 "/>
<polygon style="fill-rule:evenodd;clip-rule:evenodd;fill:#BABABA;" points="220.518,252.918 226.852,252.918 226.852,257.665 
	220.814,257.665 220.518,252.918 220.518,252.918 "/>
<polygon style="fill-rule:evenodd;clip-rule:evenodd;fill:#FFFFFF;" points="208.702,247.2 208.295,247.171 207.886,247.115 
	207.503,247.058 207.126,246.998 206.77,246.941 206.391,246.881 206.014,246.824 205.597,246.762 205.19,246.708 204.721,246.676 
	204.193,246.645 203.638,246.615 203.02,246.615 202.347,246.645 201.583,246.708 200.735,246.762 200.151,246.852 199.593,246.941 
	199.091,247.115 198.654,247.288 198.241,247.496 197.866,247.729 197.568,248.027 197.3,248.287 197.129,248.61 196.983,248.932 
	196.923,249.283 196.923,249.636 197.01,250.018 197.129,250.397 197.36,250.78 197.656,251.161 198.241,251.715 198.95,252.156 
	199.766,252.535 200.646,252.857 201.583,253.153 202.549,253.476 203.518,253.83 204.455,254.207 205.335,254.705 206.155,255.319 
	206.887,256.057 207.503,256.964 207.973,258.076 208.269,259.396 208.382,260.981 208.269,262.827 208.063,264.203 
	207.711,265.404 207.239,266.518 206.655,267.483 205.984,268.338 205.216,269.067 204.396,269.712 203.493,270.272 
	202.549,270.709 201.583,271.088 200.586,271.382 199.562,271.616 198.563,271.797 197.602,271.882 196.634,271.942 
	195.724,271.967 194.457,271.967 193.288,271.942 192.262,271.942 191.297,271.914 190.417,271.882 189.627,271.821 
	188.926,271.763 188.251,271.676 187.632,271.616 187.078,271.501 186.52,271.409 186.022,271.267 185.521,271.148 185.057,270.969 
	184.584,270.798 184.086,270.621 185.404,264.145 185.67,264.203 185.988,264.292 186.401,264.405 186.902,264.527 187.427,264.642 
	188.015,264.759 188.66,264.904 189.359,265.023 190.094,265.138 190.858,265.257 191.648,265.344 192.47,265.432 193.315,265.461 
	194.174,265.491 195.015,265.491 195.867,265.461 196.719,265.287 197.394,265.049 197.919,264.731 198.331,264.32 198.624,263.909 
	198.859,263.436 199.008,262.972 199.121,262.533 199.185,261.681 198.919,260.947 198.416,260.359 197.686,259.863 
	196.806,259.426 195.781,258.984 194.638,258.572 193.496,258.106 192.323,257.58 191.211,256.964 190.185,256.202 189.244,255.293 
	188.512,254.177 187.985,252.857 187.719,251.279 187.749,249.403 187.896,248.259 188.106,247.171 188.397,246.178 
	188.745,245.241 189.214,244.362 189.742,243.599 190.36,242.863 191.094,242.224 191.948,241.666 192.881,241.195 193.933,240.757 
	195.106,240.435 196.429,240.167 197.866,239.964 199.444,239.847 201.178,239.815 202.256,239.815 203.254,239.847 
	204.166,239.879 204.984,239.907 205.718,239.964 206.391,240.022 206.976,240.08 207.503,240.141 208.003,240.197 208.416,240.286 
	208.793,240.346 209.149,240.403 209.441,240.46 209.703,240.494 209.966,240.552 210.201,240.582 208.702,247.2 208.702,247.2 "/>
<polyline style="fill:none;stroke:#FFFFFF;stroke-width:0.216;stroke-miterlimit:2.6131;" points="208.702,247.2 208.702,247.2 
	208.295,247.171 207.886,247.115 207.503,247.058 207.126,246.998 206.77,246.941 206.391,246.881 206.014,246.824 205.597,246.762 
	205.19,246.708 204.721,246.676 204.193,246.645 203.638,246.615 203.02,246.615 202.347,246.645 201.583,246.708 200.735,246.762 
	200.735,246.762 200.151,246.852 199.593,246.941 199.091,247.115 198.654,247.288 198.241,247.496 197.866,247.729 
	197.568,248.027 197.3,248.287 197.129,248.61 196.983,248.932 196.923,249.283 196.923,249.636 197.01,250.018 197.129,250.397 
	197.36,250.78 197.656,251.161 197.656,251.161 198.241,251.715 198.95,252.156 199.766,252.535 200.646,252.857 201.583,253.153 
	202.549,253.476 203.518,253.83 204.455,254.207 205.335,254.705 206.155,255.319 206.887,256.057 207.503,256.964 207.973,258.076 
	208.269,259.396 208.382,260.981 208.269,262.827 208.269,262.827 208.063,264.203 207.711,265.404 207.239,266.518 
	206.655,267.483 205.984,268.338 205.216,269.067 204.396,269.712 203.493,270.272 202.549,270.709 201.583,271.088 
	200.586,271.382 199.562,271.616 198.563,271.797 197.602,271.882 196.634,271.942 195.724,271.967 195.724,271.967 
	194.457,271.967 193.288,271.942 192.262,271.942 191.297,271.914 190.417,271.882 189.627,271.821 188.926,271.763 
	188.251,271.676 187.632,271.616 187.078,271.501 186.52,271.409 186.022,271.267 185.521,271.148 185.057,270.969 184.584,270.798 
	184.086,270.621 185.404,264.145 185.404,264.145 185.67,264.203 185.988,264.292 186.401,264.405 186.902,264.527 187.427,264.642 
	188.015,264.759 188.66,264.904 189.359,265.023 190.094,265.138 190.858,265.257 191.648,265.344 192.47,265.432 193.315,265.461 
	194.174,265.491 195.015,265.491 195.867,265.461 195.867,265.461 196.719,265.287 197.394,265.049 197.919,264.731 198.331,264.32 
	198.624,263.909 198.859,263.436 199.008,262.972 199.121,262.533 199.121,262.533 199.185,261.681 198.919,260.947 
	198.416,260.359 197.686,259.863 196.806,259.426 195.781,258.984 194.638,258.572 193.496,258.106 192.323,257.58 191.211,256.964 
	190.185,256.202 189.244,255.293 188.512,254.177 187.985,252.857 187.719,251.279 187.749,249.403 187.749,249.403 
	187.896,248.259 188.106,247.171 188.397,246.178 188.745,245.241 189.214,244.362 189.742,243.599 190.36,242.863 191.094,242.224 
	191.948,241.666 192.881,241.195 193.933,240.757 195.106,240.435 196.429,240.167 197.866,239.964 199.444,239.847 
	201.178,239.815 201.178,239.815 202.256,239.815 203.254,239.847 204.166,239.879 204.984,239.907 205.718,239.964 
	206.391,240.022 206.976,240.08 207.503,240.141 208.003,240.197 208.416,240.286 208.793,240.346 209.149,240.403 209.441,240.46 
	209.703,240.494 209.966,240.552 210.201,240.582 208.702,247.2 "/>
<polygon style="fill-rule:evenodd;clip-rule:evenodd;fill:#FFFFFF;" points="215.651,233.342 223.774,233.342 222.571,240.435 
	227.465,240.435 226.409,247.058 221.247,246.911 218.438,263.262 218.408,263.851 218.551,264.35 218.847,264.731 219.23,265.049 
	219.758,265.257 220.342,265.432 220.985,265.547 221.69,265.611 222.333,265.581 222.918,265.523 223.449,265.432 223.919,265.315 
	224.301,265.198 224.563,265.112 224.739,265.049 224.795,265.023 223.774,270.475 223.566,270.621 223.361,270.738 
	223.155,270.855 222.952,270.969 222.746,271.058 222.51,271.148 222.248,271.235 221.982,271.324 221.69,271.409 221.394,271.471 
	221.045,271.53 220.697,271.59 220.316,271.65 219.873,271.707 219.401,271.763 218.902,271.821 216.673,271.821 215.501,271.733 
	214.479,271.616 213.544,271.443 212.752,271.235 212.073,270.969 211.519,270.683 211.021,270.328 210.64,269.946 210.346,269.536 
	210.137,269.039 209.996,268.536 209.905,267.983 209.879,267.366 209.879,266.724 209.966,266.051 210.056,265.315 
	215.651,233.342 215.651,233.342 "/>
<polyline style="fill:none;stroke:#FFFFFF;stroke-width:0.216;stroke-miterlimit:2.6131;" points="215.651,233.342 223.774,233.342 
	222.571,240.435 227.465,240.435 226.409,247.058 221.247,246.911 218.438,263.262 218.438,263.262 218.408,263.851 218.551,264.35 
	218.847,264.731 219.23,265.049 219.758,265.257 220.342,265.432 220.985,265.547 221.69,265.611 221.69,265.611 222.333,265.581 
	222.918,265.523 223.449,265.432 223.919,265.315 224.301,265.198 224.563,265.112 224.739,265.049 224.795,265.023 
	223.774,270.475 223.774,270.475 223.566,270.621 223.361,270.738 223.155,270.855 222.952,270.969 222.746,271.058 222.51,271.148 
	222.248,271.235 221.982,271.324 221.69,271.409 221.394,271.471 221.045,271.53 220.697,271.59 220.316,271.65 219.873,271.707 
	219.401,271.763 218.902,271.821 216.673,271.821 216.673,271.821 215.501,271.733 214.479,271.616 213.544,271.443 
	212.752,271.235 212.073,270.969 211.519,270.683 211.021,270.328 210.64,269.946 210.346,269.536 210.137,269.039 209.996,268.536 
	209.905,267.983 209.879,267.366 209.879,266.724 209.966,266.051 210.056,265.315 215.651,233.342 "/>
<polyline style="fill:none;stroke:#FFFFFF;stroke-width:0.216;stroke-miterlimit:2.6131;" points="233.943,258.106 233.943,258.106 
	233.852,258.602 233.826,259.128 233.882,259.686 233.999,260.244 234.205,260.802 234.444,261.335 234.763,261.888 
	235.112,262.384 235.523,262.885 235.96,263.328 236.433,263.764 236.957,264.113 237.489,264.439 238.074,264.699 238.658,264.904 
	239.246,265.023 239.246,265.023 240.006,265.138 240.741,265.229 241.505,265.315 242.264,265.376 243.026,265.404 243.82,265.404 
	244.58,265.376 245.371,265.315 246.161,265.198 246.955,265.049 247.775,264.876 248.565,264.612 249.391,264.292 250.236,263.935 
	251.058,263.471 251.906,262.972 250.735,270.183 250.735,270.183 250.262,270.415 249.798,270.653 249.327,270.824 
	248.891,271.005 248.45,271.148 247.977,271.297 247.509,271.409 247.012,271.501 246.484,271.59 245.899,271.65 245.285,271.707 
	244.61,271.763 243.846,271.797 243.06,271.797 242.146,271.821 241.179,271.821 241.179,271.821 239.744,271.797 238.283,271.65 
	236.812,271.443 235.347,271.088 233.913,270.653 232.538,270.091 231.215,269.361 229.984,268.509 228.841,267.514 
	227.847,266.313 226.997,264.963 226.288,263.409 225.795,261.681 225.474,259.714 225.383,257.548 225.532,255.146 
	225.532,255.146 225.649,254.207 225.821,253.121 226.059,251.983 226.379,250.746 226.822,249.492 227.346,248.229 
	228.019,246.941 228.841,245.71 229.776,244.536 230.919,243.423 232.212,242.428 233.677,241.549 235.374,240.814 237.284,240.286 
	239.388,239.937 241.767,239.815 241.767,239.815 242.909,239.847 244.112,239.964 245.315,240.167 246.518,240.46 247.687,240.904 
	248.833,241.431 249.889,242.134 250.854,242.952 251.731,243.951 252.466,245.126 253.049,246.472 253.461,248.027 
	253.697,249.779 253.727,251.771 253.521,254 253.079,256.466 252.933,258.253 231.571,258.253 232.915,252.477 245.752,252.477 
	245.752,252.477 245.813,251.747 245.779,251.044 245.719,250.397 245.607,249.814 245.402,249.256 245.198,248.753 
	244.902,248.316 244.61,247.907 244.263,247.556 243.876,247.262 243.437,246.998 242.996,246.762 242.529,246.591 242.059,246.472 
	241.561,246.383 241.034,246.323 241.034,246.323 240.475,246.353 239.949,246.442 239.452,246.562 238.954,246.734 
	238.452,246.967 238.019,247.234 237.572,247.556 237.197,247.907 236.812,248.316 236.46,248.753 236.141,249.226 235.875,249.728 
	235.609,250.254 235.406,250.838 235.23,251.424 235.112,252.039 233.943,258.106 "/>
<polygon style="fill-rule:evenodd;clip-rule:evenodd;fill:#FFFFFF;" points="303.839,242.192 303.461,241.989 303.083,241.809 
	302.666,241.604 302.229,241.399 301.785,241.225 301.295,241.048 300.794,240.87 300.27,240.697 299.711,240.552 299.148,240.435 
	298.539,240.316 297.924,240.228 297.249,240.167 296.576,240.111 295.871,240.111 295.138,240.111 294.406,240.111 
	293.643,240.167 292.849,240.26 292.033,240.403 291.211,240.637 290.393,240.961 289.571,241.372 288.747,241.896 287.957,242.543 
	287.192,243.304 286.458,244.243 285.762,245.327 285.114,246.615 284.499,248.08 283.941,249.728 283.477,251.602 283.293,252.652 
	283.181,253.677 283.121,254.705 283.155,255.704 283.236,256.699 283.44,257.638 283.705,258.517 284.028,259.396 284.469,260.189 
	284.993,260.947 285.615,261.622 286.317,262.239 287.107,262.766 288.013,263.206 289.012,263.586 290.125,263.851 
	290.507,263.935 290.951,264.024 291.478,264.086 292.063,264.145 292.702,264.203 293.381,264.203 294.111,264.203 
	294.846,264.145 295.606,264.052 296.369,263.909 297.101,263.703 297.834,263.471 298.566,263.146 299.238,262.766 
	299.853,262.299 300.441,261.771 299.127,269.597 298.946,269.742 298.775,269.919 298.539,270.127 298.277,270.294 297.955,270.53 
	297.542,270.738 297.07,270.943 296.546,271.116 295.871,271.324 295.108,271.471 294.231,271.59 293.202,271.707 292.063,271.763 
	290.739,271.797 289.25,271.763 287.604,271.676 286.256,271.53 284.908,271.235 283.562,270.798 282.214,270.21 280.923,269.51 
	279.69,268.624 278.521,267.602 277.435,266.433 276.464,265.112 275.648,263.647 274.944,262.007 274.42,260.218 274.068,258.253 
	273.947,256.172 274.007,253.887 274.326,251.453 274.565,250.254 274.824,249.081 275.12,247.937 275.416,246.852 275.731,245.825 
	276.113,244.801 276.498,243.834 276.907,242.926 277.352,242.017 277.787,241.165 278.285,240.346 278.809,239.585 279.341,238.85 
	279.925,238.148 280.51,237.504 281.128,236.889 281.799,236.3 282.476,235.744 283.181,235.245 283.915,234.775 284.705,234.336 
	285.495,233.959 286.317,233.607 287.167,233.28 288.078,232.988 288.979,232.754 289.919,232.547 290.921,232.375 291.912,232.225 
	292.968,232.11 294.024,232.055 295.138,232.019 296.082,232.055 296.984,232.11 297.864,232.198 298.741,232.317 299.565,232.43 
	300.354,232.607 301.116,232.754 301.819,232.93 302.494,233.105 303.083,233.28 303.641,233.459 304.104,233.633 304.517,233.778 
	304.868,233.899 305.132,234.015 305.311,234.076 303.839,242.192 303.839,242.192 "/>
<polyline style="fill:none;stroke:#FFFFFF;stroke-width:0.216;stroke-miterlimit:2.6131;" points="303.839,242.192 303.839,242.192 
	303.461,241.989 303.083,241.809 302.666,241.604 302.229,241.399 301.785,241.225 301.295,241.048 300.794,240.87 300.27,240.697 
	299.711,240.552 299.148,240.435 298.539,240.316 297.924,240.228 297.249,240.167 296.576,240.111 295.871,240.111 
	295.138,240.111 295.138,240.111 294.406,240.111 293.643,240.167 292.849,240.26 292.033,240.403 291.211,240.637 290.393,240.961 
	289.571,241.372 288.747,241.896 287.957,242.543 287.192,243.304 286.458,244.243 285.762,245.327 285.114,246.615 284.499,248.08 
	283.941,249.728 283.477,251.602 283.477,251.602 283.293,252.652 283.181,253.677 283.121,254.705 283.155,255.704 
	283.236,256.699 283.44,257.638 283.705,258.517 284.028,259.396 284.469,260.189 284.993,260.947 285.615,261.622 286.317,262.239 
	287.107,262.766 288.013,263.206 289.012,263.586 290.125,263.851 290.125,263.851 290.507,263.935 290.951,264.024 
	291.478,264.086 292.063,264.145 292.702,264.203 293.381,264.203 294.111,264.203 294.846,264.145 295.606,264.052 
	296.369,263.909 297.101,263.703 297.834,263.471 298.566,263.146 299.238,262.766 299.853,262.299 300.441,261.771 
	299.127,269.597 299.127,269.597 298.946,269.742 298.775,269.919 298.539,270.127 298.277,270.294 297.955,270.53 297.542,270.738 
	297.07,270.943 296.546,271.116 295.871,271.324 295.108,271.471 294.231,271.59 293.202,271.707 292.063,271.763 290.739,271.797 
	289.25,271.763 287.604,271.676 287.604,271.676 286.256,271.53 284.908,271.235 283.562,270.798 282.214,270.21 280.923,269.51 
	279.69,268.624 278.521,267.602 277.435,266.433 276.464,265.112 275.648,263.647 274.944,262.007 274.42,260.218 274.068,258.253 
	273.947,256.172 274.007,253.887 274.326,251.453 274.326,251.453 274.565,250.254 274.824,249.081 275.12,247.937 275.416,246.852 
	275.731,245.825 276.113,244.801 276.498,243.834 276.907,242.926 277.352,242.017 277.787,241.165 278.285,240.346 
	278.809,239.585 279.341,238.85 279.925,238.148 280.51,237.504 281.128,236.889 281.799,236.3 282.476,235.744 283.181,235.245 
	283.915,234.775 284.705,234.336 285.495,233.959 286.317,233.607 287.167,233.28 288.078,232.988 288.979,232.754 289.919,232.547 
	290.921,232.375 291.912,232.225 292.968,232.11 294.024,232.055 295.138,232.019 295.138,232.019 296.082,232.055 296.984,232.11 
	297.864,232.198 298.741,232.317 299.565,232.43 300.354,232.607 301.116,232.754 301.819,232.93 302.494,233.105 303.083,233.28 
	303.641,233.459 304.104,233.633 304.517,233.778 304.868,233.899 305.132,234.015 305.311,234.076 303.839,242.192 "/>
<polygon style="fill-rule:evenodd;clip-rule:evenodd;fill:#FFFFFF;" points="375.998,271.821 367.88,271.821 368.469,268.571 
	368.469,268.275 367.997,268.865 367.498,269.388 367.004,269.857 366.476,270.272 365.948,270.653 365.42,270.969 364.892,271.235 
	364.334,271.501 363.78,271.707 363.222,271.852 362.664,271.997 362.076,272.082 361.495,272.174 360.937,272.233 360.352,272.263 
	359.768,272.263 358.243,272.144 356.835,271.821 355.545,271.324 354.37,270.653 353.316,269.799 352.378,268.807 351.556,267.717 
	350.853,266.49 350.272,265.166 349.8,263.794 349.478,262.357 349.242,260.861 349.156,259.365 349.182,257.844 349.327,256.349 
	349.593,254.856 350.032,253.121 350.56,251.483 351.178,249.988 351.908,248.581 352.668,247.262 353.55,246.087 354.455,245.037 
	355.426,244.068 356.452,243.216 357.536,242.484 358.652,241.84 359.768,241.342 360.937,240.929 362.108,240.669 363.276,240.494 
	364.48,240.435 365.333,240.46 366.153,240.552 366.917,240.697 367.618,240.904 368.293,241.14 368.882,241.399 369.466,241.725 
	369.994,242.047 370.462,242.392 370.899,242.779 371.282,243.159 371.634,243.54 371.926,243.921 372.192,244.302 372.428,244.656 
	372.599,245.007 372.599,245.007 374.656,233.488 382.624,233.488 375.998,271.821 375.998,271.821 "/>
<polyline style="fill:none;stroke:#FFFFFF;stroke-width:0.216;stroke-miterlimit:2.6131;" points="375.998,271.821 367.88,271.821 
	368.469,268.571 368.469,268.275 368.469,268.275 367.997,268.865 367.498,269.388 367.004,269.857 366.476,270.272 
	365.948,270.653 365.42,270.969 364.892,271.235 364.334,271.501 363.78,271.707 363.222,271.852 362.664,271.997 362.076,272.082 
	361.495,272.174 360.937,272.233 360.352,272.263 359.768,272.263 359.768,272.263 358.243,272.144 356.835,271.821 
	355.545,271.324 354.37,270.653 353.316,269.799 352.378,268.807 351.556,267.717 350.853,266.49 350.272,265.166 349.8,263.794 
	349.478,262.357 349.242,260.861 349.156,259.365 349.182,257.844 349.327,256.349 349.593,254.856 349.593,254.856 
	350.032,253.121 350.56,251.483 351.178,249.988 351.908,248.581 352.668,247.262 353.55,246.087 354.455,245.037 355.426,244.068 
	356.452,243.216 357.536,242.484 358.652,241.84 359.768,241.342 360.937,240.929 362.108,240.669 363.276,240.494 364.48,240.435 
	364.48,240.435 365.333,240.46 366.153,240.552 366.917,240.697 367.618,240.904 368.293,241.14 368.882,241.399 369.466,241.725 
	369.994,242.047 370.462,242.392 370.899,242.779 371.282,243.159 371.634,243.54 371.926,243.921 372.192,244.302 372.428,244.656 
	372.599,245.007 372.599,245.007 374.656,233.488 382.624,233.488 375.998,271.821 "/>
<polygon style="fill-rule:evenodd;clip-rule:evenodd;fill:#BABABA;" points="362.722,264.731 363.542,264.673 364.304,264.497 
	365.011,264.292 365.686,263.969 366.3,263.62 366.885,263.176 367.443,262.682 367.941,262.148 368.378,261.562 368.791,260.917 
	369.17,260.244 369.496,259.545 369.787,258.807 370.024,258.048 370.226,257.256 370.375,256.466 370.518,255.648 370.609,254.797 
	370.609,254 370.582,253.183 370.492,252.422 370.375,251.687 370.169,250.983 369.933,250.31 369.642,249.728 369.289,249.168 
	368.912,248.695 368.469,248.287 367.971,247.937 367.443,247.701 366.885,247.556 366.274,247.496 365.477,247.556 
	364.745,247.673 364.07,247.907 363.397,248.199 362.813,248.581 362.225,249.051 361.727,249.549 361.227,250.107 360.79,250.746 
	360.379,251.424 359.992,252.126 359.674,252.887 359.381,253.677 359.15,254.475 358.914,255.319 358.74,256.172 358.588,257.463 
	358.652,258.87 358.854,260.302 359.24,261.681 359.823,262.885 360.584,263.851 361.55,264.497 362.722,264.731 362.722,264.731 
	"/>
<polygon style="fill-rule:evenodd;clip-rule:evenodd;fill:#FFFFFF;" points="182.742,265.315 181.565,271.821 174.179,271.821 
	174.384,270.621 174.537,269.536 174.646,268.716 174.767,268.275 174.358,268.745 173.886,269.216 173.332,269.655 
	172.714,270.063 172.012,270.475 171.279,270.824 170.514,271.177 169.724,271.471 168.87,271.733 168.027,271.942 167.173,272.118 
	166.298,272.233 165.446,272.293 164.6,272.321 163.776,272.233 162.982,272.118 161.956,271.852 161.019,271.558 160.199,271.177 
	159.466,270.738 158.825,270.272 158.24,269.742 157.767,269.182 157.356,268.6 157.007,267.983 156.711,267.334 156.479,266.695 
	156.302,266.051 156.183,265.376 156.097,264.699 156.038,264.052 156.038,263.409 156.123,262.265 156.302,261.183 
	156.596,260.157 156.977,259.16 157.445,258.223 157.971,257.374 158.587,256.556 159.292,255.819 160.028,255.146 160.846,254.528 
	161.698,253.973 162.573,253.502 163.51,253.099 164.481,252.771 165.476,252.509 166.503,252.331 166.558,252.331 166.705,252.301 
	166.915,252.273 167.233,252.244 167.586,252.186 167.995,252.156 168.432,252.097 168.934,252.039 169.431,251.983 
	169.933,251.924 170.463,251.892 170.926,251.834 171.4,251.805 171.833,251.771 172.248,251.747 172.567,251.747 173.245,251.747 
	173.949,251.771 174.59,251.805 175.235,251.805 175.762,251.834 176.175,251.862 176.464,251.892 176.552,251.892 176.613,251.687 
	176.788,251.161 176.931,250.542 176.991,249.988 176.875,249.345 176.613,248.753 176.26,248.229 175.789,247.788 175.235,247.413 
	174.62,247.145 173.915,246.967 173.155,246.911 172.335,246.881 171.451,246.852 170.544,246.852 169.609,246.881 168.641,246.941 
	167.701,247.026 166.766,247.115 165.859,247.234 164.974,247.349 164.124,247.496 163.364,247.639 162.663,247.788 
	162.018,247.969 161.487,248.14 161.08,248.346 160.753,248.521 162.837,241.459 163.483,241.195 164.124,240.961 164.831,240.757 
	165.533,240.607 166.242,240.46 167.001,240.346 167.761,240.228 168.553,240.167 169.371,240.111 170.223,240.08 171.102,240.048 
	172.012,240.048 172.95,240.048 173.915,240.048 174.942,240.08 175.97,240.111 176.788,240.167 177.67,240.316 178.575,240.522 
	179.512,240.786 180.423,241.14 181.303,241.549 182.18,242.047 183.008,242.601 183.73,243.25 184.382,243.951 184.97,244.739 
	185.404,245.62 185.7,246.562 185.872,247.556 185.872,248.668 185.7,249.841 182.742,265.315 182.742,265.315 "/>
<polyline style="fill:none;stroke:#FFFFFF;stroke-width:0.216;stroke-miterlimit:2.6131;" points="182.742,265.315 181.565,271.821 
	174.179,271.821 174.179,271.821 174.384,270.621 174.537,269.536 174.646,268.716 174.767,268.275 174.767,268.275 
	174.358,268.745 173.886,269.216 173.332,269.655 172.714,270.063 172.012,270.475 171.279,270.824 170.514,271.177 
	169.724,271.471 168.87,271.733 168.027,271.942 167.173,272.118 166.298,272.233 165.446,272.293 164.6,272.321 163.776,272.233 
	162.982,272.118 162.982,272.118 161.956,271.852 161.019,271.558 160.199,271.177 159.466,270.738 158.825,270.272 158.24,269.742 
	157.767,269.182 157.356,268.6 157.007,267.983 156.711,267.334 156.479,266.695 156.302,266.051 156.183,265.376 156.097,264.699 
	156.038,264.052 156.038,263.409 156.038,263.409 156.123,262.265 156.302,261.183 156.596,260.157 156.977,259.16 157.445,258.223 
	157.971,257.374 158.587,256.556 159.292,255.819 160.028,255.146 160.846,254.528 161.698,253.973 162.573,253.502 163.51,253.099 
	164.481,252.771 165.476,252.509 166.503,252.331 166.503,252.331 166.558,252.331 166.705,252.301 166.915,252.273 
	167.233,252.244 167.586,252.186 167.995,252.156 168.432,252.097 168.934,252.039 169.431,251.983 169.933,251.924 
	170.463,251.892 170.926,251.834 171.4,251.805 171.833,251.771 172.248,251.747 172.567,251.747 172.567,251.747 173.245,251.747 
	173.949,251.771 174.59,251.805 175.235,251.805 175.762,251.834 176.175,251.862 176.464,251.892 176.552,251.892 176.552,251.892 
	176.613,251.687 176.788,251.161 176.931,250.542 176.991,249.988 176.991,249.988 176.875,249.345 176.613,248.753 176.26,248.229 
	175.789,247.788 175.235,247.413 174.62,247.145 173.915,246.967 173.155,246.911 173.155,246.911 172.335,246.881 171.451,246.852 
	170.544,246.852 169.609,246.881 168.641,246.941 167.701,247.026 166.766,247.115 165.859,247.234 164.974,247.349 
	164.124,247.496 163.364,247.639 162.663,247.788 162.018,247.969 161.487,248.14 161.08,248.346 160.753,248.521 162.837,241.459 
	162.837,241.459 163.483,241.195 164.124,240.961 164.831,240.757 165.533,240.607 166.242,240.46 167.001,240.346 167.761,240.228 
	168.553,240.167 169.371,240.111 170.223,240.08 171.102,240.048 172.012,240.048 172.95,240.048 173.915,240.048 174.942,240.08 
	175.97,240.111 175.97,240.111 176.788,240.167 177.67,240.316 178.575,240.522 179.512,240.786 180.423,241.14 181.303,241.549 
	182.18,242.047 183.008,242.601 183.73,243.25 184.382,243.951 184.97,244.739 185.404,245.62 185.7,246.562 185.872,247.556 
	185.872,248.668 185.7,249.841 182.742,265.315 "/>
<polygon style="fill-rule:evenodd;clip-rule:evenodd;fill:#5C5C5C;" points="175.675,257.665 175.645,257.52 175.527,257.374 
	175.351,257.284 175.061,257.228 174.737,257.171 174.358,257.137 173.915,257.137 173.474,257.137 173.01,257.171 172.512,257.228 
	172.043,257.284 171.571,257.346 171.132,257.405 170.721,257.489 170.372,257.58 170.046,257.665 169.844,257.723 169.609,257.816 
	169.286,257.931 168.96,258.076 168.581,258.253 168.2,258.46 167.791,258.662 167.41,258.898 167.001,259.19 166.619,259.482 
	166.264,259.837 165.946,260.189 165.649,260.566 165.446,260.981 165.274,261.447 165.18,261.916 165.156,262.913 165.297,263.703 
	165.593,264.292 165.974,264.731 166.413,265.023 166.915,265.198 167.384,265.287 167.852,265.315 168.728,265.287 
	169.522,265.198 170.283,265.078 170.96,264.904 171.541,264.699 172.099,264.439 172.597,264.173 173.04,263.851 173.421,263.556 
	173.766,263.206 174.062,262.885 174.297,262.533 174.499,262.18 174.684,261.83 174.827,261.505 174.908,261.183 175.148,260.336 
	175.351,259.365 175.527,258.43 175.675,257.665 175.675,257.665 "/>
<polygon style="fill-rule:evenodd;clip-rule:evenodd;fill:#FFFFFF;" points="121.069,271.821 113.102,271.821 119.756,233.342 
	133.615,233.342 134.938,256.172 144.523,233.342 159,233.342 152.198,271.821 144.227,271.821 149.268,243.072 148.95,243.072 
	137.015,271.821 128.023,271.821 127.962,270.621 127.757,267.425 127.495,262.885 127.199,257.665 126.903,252.422 
	126.641,247.824 126.435,244.481 126.375,243.072 126.292,243.072 126.115,243.072 125.939,243.072 125.939,243.072 
	121.069,271.821 121.069,271.821 "/>
<polyline style="fill:none;stroke:#FFFFFF;stroke-width:0.216;stroke-miterlimit:2.6131;" points="121.069,271.821 113.102,271.821 
	119.756,233.342 133.615,233.342 134.938,256.172 144.523,233.342 159,233.342 152.198,271.821 144.227,271.821 149.268,243.072 
	148.95,243.072 137.015,271.821 128.023,271.821 128.023,271.821 127.962,270.621 127.757,267.425 127.495,262.885 127.199,257.665 
	126.903,252.422 126.641,247.824 126.435,244.481 126.375,243.072 126.375,243.072 126.292,243.072 126.115,243.072 
	125.939,243.072 125.939,243.072 121.069,271.821 "/>
<polygon style="fill-rule:evenodd;clip-rule:evenodd;fill:#FFFFFF;" points="328.204,265.315 326.999,271.821 319.641,271.821 
	319.698,270.621 319.728,269.567 319.728,268.777 319.785,268.426 319.407,268.865 318.965,269.303 318.44,269.712 317.852,270.127 
	317.241,270.504 316.534,270.855 315.799,271.209 315.067,271.501 314.276,271.733 313.454,271.967 312.637,272.118 
	311.817,272.233 310.963,272.293 310.147,272.321 309.353,272.233 308.559,272.118 307.505,271.852 306.572,271.558 
	305.746,271.177 304.981,270.738 304.34,270.272 303.782,269.742 303.314,269.182 302.907,268.6 302.555,267.983 302.289,267.334 
	302.055,266.695 301.91,266.051 301.785,265.376 301.705,264.699 301.64,264.052 301.64,263.409 301.705,262.265 301.88,261.183 
	302.142,260.157 302.525,259.16 302.962,258.223 303.52,257.374 304.134,256.556 304.809,255.819 305.573,255.146 306.363,254.528 
	307.213,253.973 308.124,253.502 309.031,253.099 309.996,252.771 310.963,252.509 311.96,252.331 312.021,252.331 312.162,252.301 
	312.371,252.273 312.664,252.244 313.047,252.186 313.454,252.156 313.897,252.097 314.361,252.039 314.864,251.983 
	315.392,251.924 315.889,251.892 316.387,251.834 316.855,251.805 317.264,251.771 317.677,251.747 317.997,251.747 
	318.702,251.747 319.407,251.771 320.08,251.805 320.725,251.805 321.283,251.834 321.751,251.862 322.013,251.892 322.134,251.892 
	322.194,251.687 322.281,251.161 322.365,250.542 322.422,249.988 322.309,249.345 322.077,248.753 321.696,248.229 
	321.249,247.788 320.725,247.413 320.11,247.145 319.466,246.967 318.759,246.911 317.937,246.881 317.062,246.852 316.151,246.852 
	315.211,246.881 314.249,246.941 313.308,247.026 312.371,247.115 311.461,247.234 310.58,247.349 309.736,247.496 308.97,247.639 
	308.269,247.788 307.622,247.969 307.098,248.14 306.682,248.346 306.363,248.521 308.416,241.459 309.057,241.195 309.736,240.961 
	310.409,240.757 311.108,240.607 311.843,240.46 312.579,240.346 313.335,240.228 314.132,240.167 314.949,240.111 315.799,240.08 
	316.649,240.048 317.56,240.048 318.467,240.048 319.407,240.048 320.403,240.08 321.398,240.111 322.22,240.167 323.099,240.316 
	324.006,240.522 324.947,240.786 325.857,241.14 326.76,241.549 327.638,242.047 328.46,242.601 329.198,243.25 329.867,243.951 
	330.452,244.739 330.895,245.62 331.217,246.562 331.426,247.556 331.426,248.668 331.277,249.841 328.204,265.315 328.204,265.315 
	"/>
<polygon style="fill-rule:evenodd;clip-rule:evenodd;fill:#FFFFFF;" points="326.999,272.029 327.171,271.852 328.374,265.344 
	328.021,265.287 326.82,271.797 326.999,271.616 326.999,272.029 327.141,271.997 327.171,271.852 326.999,272.029 326.999,272.029 
	"/>
<polygon style="fill-rule:evenodd;clip-rule:evenodd;fill:#FFFFFF;" points="319.466,271.821 319.641,272.029 326.999,272.029 
	326.999,271.616 319.641,271.616 319.819,271.821 319.466,271.821 319.437,272.029 319.641,272.029 319.466,271.821 
	319.466,271.821 "/>
<polygon style="fill-rule:evenodd;clip-rule:evenodd;fill:#FFFFFF;" points="319.935,268.536 319.668,268.305 319.553,268.777 
	319.519,269.567 319.519,270.621 319.466,271.821 319.819,271.821 319.875,270.621 319.935,269.567 319.905,268.777 
	319.905,268.536 319.641,268.305 319.935,268.536 319.935,268.536 "/>
<polygon style="fill-rule:evenodd;clip-rule:evenodd;fill:#FFFFFF;" points="308.533,272.293 308.533,272.293 309.353,272.41 
	310.147,272.495 310.963,272.47 311.817,272.41 312.664,272.293 313.484,272.144 314.308,271.914 315.124,271.676 315.859,271.382 
	316.619,271.033 317.328,270.683 317.937,270.272 318.555,269.857 319.08,269.452 319.553,268.978 319.935,268.536 319.641,268.305 
	319.26,268.745 318.849,269.156 318.32,269.567 317.765,269.978 317.149,270.328 316.447,270.683 315.742,271.033 315.009,271.324 
	314.249,271.558 313.427,271.797 312.603,271.942 311.817,272.055 310.963,272.118 310.147,272.144 309.353,272.055 
	308.593,271.942 308.593,271.942 308.533,272.293 308.533,272.293 "/>
<polygon style="fill-rule:evenodd;clip-rule:evenodd;fill:#FFFFFF;" points="301.44,263.409 301.44,263.409 301.467,264.052 
	301.527,264.699 301.618,265.404 301.735,266.079 301.88,266.724 302.115,267.397 302.378,268.07 302.76,268.686 303.168,269.303 
	303.641,269.857 304.225,270.415 304.898,270.885 305.66,271.356 306.514,271.733 307.475,272.029 308.533,272.293 308.593,271.942 
	307.536,271.676 306.629,271.382 305.835,271.005 305.071,270.59 304.457,270.127 303.929,269.623 303.461,269.067 303.049,268.509 
	302.73,267.896 302.468,267.28 302.229,266.669 302.085,266.02 301.97,265.344 301.88,264.699 301.819,264.052 301.849,263.409 
	301.849,263.409 301.44,263.409 301.44,263.409 "/>
<polygon style="fill-rule:evenodd;clip-rule:evenodd;fill:#FFFFFF;" points="311.96,252.156 311.96,252.156 310.937,252.331 
	309.941,252.597 308.97,252.918 308.035,253.329 307.123,253.796 306.248,254.384 305.453,255.003 304.693,255.704 303.989,256.436 
	303.371,257.256 302.786,258.136 302.347,259.105 301.97,260.099 301.705,261.153 301.527,262.265 301.44,263.409 301.849,263.409 
	301.88,262.265 302.055,261.213 302.319,260.218 302.7,259.22 303.137,258.309 303.663,257.489 304.283,256.669 304.924,255.94 
	305.686,255.293 306.48,254.675 307.296,254.151 308.214,253.677 309.087,253.272 310.056,252.95 310.993,252.684 311.96,252.509 
	311.96,252.509 311.96,252.156 311.96,252.156 "/>
<polygon style="fill-rule:evenodd;clip-rule:evenodd;fill:#FFFFFF;" points="317.997,251.539 317.997,251.539 317.677,251.539 
	317.264,251.602 316.855,251.636 316.387,251.658 315.889,251.715 315.392,251.747 314.864,251.805 314.361,251.862 
	313.897,251.924 313.454,251.983 313.047,252.009 312.664,252.071 312.371,252.097 312.136,252.126 312.021,252.156 311.96,252.156 
	311.96,252.509 312.021,252.509 312.196,252.477 312.371,252.452 312.664,252.422 313.047,252.363 313.454,252.331 313.897,252.273 
	314.361,252.212 314.864,252.156 315.392,252.097 315.889,252.071 316.387,252.009 316.855,251.983 317.264,251.951 
	317.677,251.951 317.997,251.951 317.997,251.951 317.997,251.539 317.997,251.539 "/>
<polygon style="fill-rule:evenodd;clip-rule:evenodd;fill:#FFFFFF;" points="321.956,251.862 322.134,251.715 322.013,251.715 
	321.751,251.687 321.283,251.658 320.725,251.602 320.08,251.602 319.407,251.602 318.702,251.539 317.997,251.539 317.997,251.951 
	318.702,251.951 319.407,251.951 320.08,252.009 320.725,252.009 321.283,252.009 321.751,252.039 322.013,252.071 322.134,252.071 
	322.309,251.924 322.134,252.071 322.281,252.097 322.309,251.924 321.956,251.862 321.956,251.862 "/>
<polygon style="fill-rule:evenodd;clip-rule:evenodd;fill:#FFFFFF;" points="322.25,249.988 322.22,249.988 322.194,250.542 
	322.1,251.131 322.013,251.658 321.956,251.862 322.309,251.924 322.365,251.715 322.452,251.183 322.537,250.542 322.628,249.988 
	322.601,249.988 322.25,249.988 322.25,249.988 "/>
<polygon style="fill-rule:evenodd;clip-rule:evenodd;fill:#FFFFFF;" points="318.759,247.086 318.759,247.115 319.437,247.145 
	320.05,247.322 320.635,247.584 321.134,247.937 321.541,248.346 321.894,248.844 322.134,249.371 322.25,249.988 322.601,249.988 
	322.48,249.317 322.25,248.668 321.838,248.114 321.372,247.639 320.814,247.234 320.167,246.967 319.492,246.796 318.759,246.708 
	318.759,246.734 318.759,247.086 318.759,247.086 "/>
<polygon style="fill-rule:evenodd;clip-rule:evenodd;fill:#FFFFFF;" points="306.188,248.495 306.48,248.668 306.772,248.521 
	307.153,248.316 307.656,248.14 308.295,247.969 309.004,247.824 309.76,247.673 310.611,247.526 311.461,247.413 312.371,247.288 
	313.308,247.2 314.249,247.115 315.211,247.058 316.151,247.058 317.062,247.058 317.937,247.058 318.759,247.086 318.759,246.734 
	317.937,246.708 317.062,246.645 316.151,246.645 315.211,246.708 314.249,246.762 313.308,246.852 312.371,246.941 
	311.461,247.058 310.554,247.171 309.702,247.322 308.944,247.469 308.237,247.616 307.592,247.788 307.038,247.969 
	306.599,248.169 306.248,248.376 306.54,248.551 306.188,248.495 306.188,248.495 "/>
<polygon style="fill-rule:evenodd;clip-rule:evenodd;fill:#FFFFFF;" points="308.36,241.282 308.237,241.431 306.188,248.495 
	306.54,248.551 308.593,241.485 308.473,241.636 308.36,241.282 308.269,241.312 308.237,241.431 308.36,241.282 308.36,241.282 "/>
<polygon style="fill-rule:evenodd;clip-rule:evenodd;fill:#FFFFFF;" points="321.398,239.937 321.398,239.937 320.403,239.879 
	319.407,239.847 318.467,239.847 317.56,239.847 316.649,239.847 315.799,239.907 314.949,239.937 314.132,239.998 313.335,240.048 
	312.545,240.167 311.817,240.286 311.084,240.435 310.375,240.582 309.675,240.786 309.004,241.019 308.36,241.282 308.473,241.636 
	309.121,241.372 309.791,241.14 310.435,240.929 311.142,240.786 311.877,240.637 312.603,240.522 313.335,240.403 314.132,240.346 
	314.949,240.286 315.799,240.26 316.649,240.26 317.56,240.26 318.467,240.26 319.407,240.26 320.403,240.286 321.398,240.286 
	321.398,240.286 321.398,239.937 321.398,239.937 "/>
<polygon style="fill-rule:evenodd;clip-rule:evenodd;fill:#FFFFFF;" points="331.452,249.871 331.452,249.871 331.598,248.668 
	331.598,247.556 331.396,246.527 331.07,245.561 330.602,244.656 330.01,243.834 329.309,243.103 328.579,242.456 327.729,241.896 
	326.849,241.372 325.912,240.961 325.003,240.607 324.04,240.346 323.125,240.141 322.22,239.998 321.398,239.937 321.398,240.286 
	322.22,240.346 323.069,240.494 323.977,240.697 324.882,240.961 325.797,241.312 326.673,241.725 327.554,242.192 328.344,242.748 
	329.079,243.391 329.722,244.068 330.306,244.826 330.715,245.684 331.04,246.591 331.247,247.556 331.247,248.668 331.1,249.814 
	331.1,249.814 331.452,249.871 331.452,249.871 "/>
<polygon style="fill-rule:evenodd;clip-rule:evenodd;fill:#FFFFFF;" points="328.374,265.344 328.374,265.344 331.452,249.871 
	331.1,249.814 328.021,265.287 328.021,265.287 328.374,265.344 328.374,265.344 "/>
<polygon style="fill-rule:evenodd;clip-rule:evenodd;fill:#BABABA;" points="321.104,257.665 321.048,257.489 320.934,257.346 
	320.725,257.256 320.433,257.171 320.11,257.137 319.728,257.107 319.287,257.107 318.849,257.137 318.38,257.197 317.91,257.256 
	317.443,257.316 316.998,257.374 316.568,257.463 316.182,257.52 315.799,257.608 315.507,257.665 315.305,257.695 315.067,257.784 
	314.777,257.872 314.451,257.989 314.068,258.161 313.721,258.342 313.308,258.547 312.93,258.807 312.545,259.073 312.162,259.396 
	311.843,259.714 311.521,260.099 311.255,260.508 311.05,260.947 310.878,261.418 310.792,261.916 310.762,262.913 310.899,263.703 
	311.142,264.292 311.491,264.731 311.93,265.023 312.432,265.198 312.93,265.287 313.427,265.315 314.308,265.287 315.124,265.198 
	315.889,265.049 316.568,264.848 317.207,264.612 317.765,264.35 318.291,264.052 318.759,263.703 319.174,263.381 319.519,263.002 
	319.845,262.648 320.11,262.265 320.312,261.916 320.463,261.562 320.58,261.213 320.665,260.891 320.784,260.069 320.934,259.22 
	321.048,258.4 321.104,257.665 321.104,257.665 "/>
<polygon style="fill-rule:evenodd;clip-rule:evenodd;fill:#FFFFFF;" points="381.477,267.812 381.545,267.133 381.77,266.341 
	382.182,265.638 382.68,265.023 383.299,264.527 384.006,264.173 384.767,263.935 385.584,263.851 386.408,263.935 387.167,264.173 
	387.872,264.527 388.491,265.023 388.988,265.638 389.398,266.341 389.629,267.133 389.691,267.812 388.809,267.812 388.783,267.28 
	388.602,266.633 388.31,266.051 387.929,265.547 387.463,265.138 386.905,264.848 386.26,264.642 385.584,264.582 384.912,264.642 
	384.269,264.848 383.711,265.138 383.238,265.547 382.859,266.051 382.569,266.633 382.392,267.28 382.331,267.812 381.477,267.812 
	381.477,267.812 "/>
<polygon style="fill-rule:evenodd;clip-rule:evenodd;fill:#FFFFFF;" points="384.119,267.812 384.119,266.051 385.729,266.051 
	386.085,266.079 386.408,266.136 386.639,266.224 386.845,266.341 386.992,266.518 387.109,266.695 387.167,266.897 
	387.197,267.105 387.167,267.366 387.109,267.572 387.022,267.749 386.962,267.812 385.729,267.812 385.845,267.778 
	386.055,267.749 386.228,267.693 386.377,267.633 386.494,267.546 386.554,267.453 386.609,267.312 386.609,267.105 
	386.579,266.958 386.52,266.839 386.438,266.782 386.347,266.724 386.198,266.695 386.055,266.669 385.906,266.669 385.729,266.669 
	384.854,266.669 384.854,267.812 384.119,267.812 384.119,267.812 "/>
<polygon style="fill-rule:evenodd;clip-rule:evenodd;fill:#FFFFFF;" points="381.477,267.812 381.454,267.983 381.545,268.833 
	381.77,269.623 382.182,270.328 382.68,270.915 383.299,271.409 384.006,271.797 384.767,272.029 385.584,272.118 386.408,272.029 
	387.167,271.797 387.872,271.409 388.491,270.915 388.988,270.328 389.398,269.623 389.629,268.833 389.714,267.983 
	389.691,267.812 388.809,267.812 388.839,267.983 388.783,268.686 388.602,269.333 388.31,269.891 387.929,270.383 387.463,270.798 
	386.905,271.116 386.26,271.324 385.584,271.382 384.912,271.324 384.269,271.116 383.711,270.798 383.238,270.383 382.859,269.891 
	382.569,269.333 382.392,268.686 382.331,267.983 382.331,267.812 381.477,267.812 381.477,267.812 "/>
<polygon style="fill-rule:evenodd;clip-rule:evenodd;fill:#FFFFFF;" points="384.119,267.812 384.119,269.597 384.854,269.597 
	384.854,268.132 385.584,268.132 386.46,269.597 387.052,269.597 386.172,268.132 386.377,268.132 386.579,268.07 386.756,268.011 
	386.905,267.896 386.962,267.812 385.729,267.812 385.584,267.838 384.854,267.838 384.854,267.812 384.119,267.812 
	384.119,267.812 "/>
<path style="fill:none;stroke:#FFFFFF;stroke-width:0.216;stroke-miterlimit:2.6131;" d="M381.454,267.983L381.454,267.983
	l0.091-0.85l0.224-0.792l0.413-0.703l0.498-0.615l0.619-0.496l0.707-0.354l0.761-0.237l0.817-0.085l0,0l0.824,0.085l0.76,0.237
	l0.705,0.354l0.619,0.496l0.498,0.615l0.409,0.703l0.232,0.792l0.085,0.85l0,0l-0.085,0.85l-0.232,0.79l-0.409,0.705l-0.498,0.587
	l-0.619,0.494l-0.705,0.388l-0.76,0.232l-0.824,0.088l0,0l-0.817-0.088l-0.761-0.232l-0.707-0.388l-0.619-0.494l-0.498-0.587
	l-0.413-0.705l-0.224-0.79L381.454,267.983 M384.854,269.597h-0.735v-3.546h1.61l0,0l0.356,0.028l0.322,0.057l0.232,0.088
	l0.205,0.117l0.147,0.177l0.117,0.177l0.058,0.202l0.03,0.207l0,0l-0.03,0.262l-0.058,0.206l-0.087,0.177l-0.117,0.147l-0.149,0.115
	l-0.177,0.059l-0.202,0.062h-0.205l0.88,1.465h-0.592l-0.876-1.465h-0.73V269.597 M385.584,267.838L385.584,267.838l0.262-0.06
	l0.209-0.028l0.174-0.057l0.149-0.06l0.117-0.087l0.06-0.092l0.055-0.141v-0.207l0,0l-0.03-0.147l-0.059-0.119l-0.083-0.056
	l-0.091-0.059l-0.149-0.028l-0.144-0.026h-0.149h-0.177h-0.875v1.169H385.584 M385.584,271.382L385.584,271.382l0.677-0.059
	l0.645-0.207l0.558-0.319l0.466-0.415l0.381-0.492l0.292-0.558l0.181-0.647l0.056-0.703l0,0l-0.056-0.703l-0.181-0.647l-0.292-0.583
	l-0.381-0.503l-0.466-0.409l-0.558-0.29l-0.645-0.205l-0.677-0.061l0,0l-0.671,0.061l-0.643,0.205l-0.558,0.29l-0.473,0.409
	l-0.379,0.503l-0.29,0.583l-0.177,0.647l-0.06,0.703l0,0l0.06,0.703l0.177,0.647l0.29,0.558l0.379,0.492l0.473,0.415l0.558,0.319
	l0.643,0.207L385.584,271.382"/>
<polygon style="fill-rule:evenodd;clip-rule:evenodd;fill:#FFFFFF;" points="330.401,271.821 338.668,271.821 338.668,271.821 
	341.624,255.146 341.739,254.505 341.918,253.856 342.091,253.212 342.327,252.567 342.619,251.924 342.97,251.306 343.353,250.721 
	343.822,250.163 344.35,249.668 344.934,249.196 345.609,248.753 346.369,248.402 347.219,248.114 348.158,247.878 349.182,247.701 
	350.324,247.639 350.739,247.639 350.971,247.639 351.058,247.639 351.058,247.639 352.378,240.111 351.556,240.167 350.766,240.26 
	350.032,240.403 349.327,240.607 348.684,240.84 348.07,241.14 347.481,241.459 346.923,241.809 346.401,242.224 345.9,242.631 
	345.432,243.103 344.965,243.569 344.522,244.068 344.084,244.622 343.645,245.15 343.238,245.738 344.116,240.435 335.877,240.435 
	330.401,271.821 330.401,271.821 330.401,271.821 "/>
<polyline style="fill:none;stroke:#FFFFFF;stroke-width:0.216;stroke-miterlimit:2.6131;" points="330.401,271.821 338.668,271.821 
	338.668,271.821 341.624,255.146 341.624,255.146 341.739,254.505 341.918,253.856 342.091,253.212 342.327,252.567 
	342.619,251.924 342.97,251.306 343.353,250.721 343.822,250.163 344.35,249.668 344.934,249.196 345.609,248.753 346.369,248.402 
	347.219,248.114 348.158,247.878 349.182,247.701 350.324,247.639 350.324,247.639 350.739,247.639 350.971,247.639 
	351.058,247.639 351.058,247.639 352.378,240.111 352.378,240.111 351.556,240.167 350.766,240.26 350.032,240.403 349.327,240.607 
	348.684,240.84 348.07,241.14 347.481,241.459 346.923,241.809 346.401,242.224 345.9,242.631 345.432,243.103 344.965,243.569 
	344.522,244.068 344.084,244.622 343.645,245.15 343.238,245.738 344.116,240.435 335.877,240.435 330.401,271.821 330.401,271.821 
	"/>
<polygon style="fill-rule:evenodd;clip-rule:evenodd;fill:#FFFFFF;" points="252.788,271.821 261.05,271.821 261.197,271.821 
	264.013,255.146 264.13,254.505 264.275,253.887 264.421,253.272 264.628,252.684 264.86,252.097 265.156,251.539 265.505,251.014 
	265.916,250.516 266.385,250.071 266.913,249.636 267.562,249.283 268.261,248.962 269.081,248.695 269.992,248.466 
	270.989,248.316 272.128,248.229 272.22,248.229 272.337,248.259 272.482,248.287 272.629,248.287 272.775,248.316 272.895,248.346 
	272.976,248.376 273.01,248.376 273.04,248.259 273.127,247.907 273.244,247.381 273.393,246.734 273.595,245.972 273.802,245.15 
	274.068,244.33 274.326,243.506 274.565,242.952 274.858,242.392 275.15,241.84 275.442,241.342 275.704,240.904 275.91,240.552 
	276.057,240.346 276.113,240.26 276.091,240.26 275.97,240.228 275.827,240.197 275.617,240.167 275.416,240.167 275.18,240.141 
	274.975,240.111 274.767,240.111 273.858,240.167 273.04,240.26 272.277,240.403 271.577,240.582 270.902,240.814 270.284,241.11 
	269.726,241.399 269.198,241.749 268.704,242.134 268.231,242.573 267.793,243.014 267.354,243.506 266.913,244.01 266.504,244.569 
	266.067,245.15 265.623,245.738 266.677,240.435 258.267,240.435 252.788,271.821 252.788,271.821 252.788,271.821 "/>
<polyline style="fill:none;stroke:#FFFFFF;stroke-width:0.216;stroke-miterlimit:2.6131;" points="252.788,271.821 261.05,271.821 
	261.197,271.821 264.013,255.146 264.013,255.146 264.13,254.505 264.275,253.887 264.421,253.272 264.628,252.684 264.86,252.097 
	265.156,251.539 265.505,251.014 265.916,250.516 266.385,250.071 266.913,249.636 267.562,249.283 268.261,248.962 
	269.081,248.695 269.992,248.466 270.989,248.316 272.128,248.229 272.128,248.229 272.22,248.229 272.337,248.259 272.482,248.287 
	272.629,248.287 272.775,248.316 272.895,248.346 272.976,248.376 273.01,248.376 273.01,248.376 273.04,248.259 273.127,247.907 
	273.244,247.381 273.393,246.734 273.595,245.972 273.802,245.15 274.068,244.33 274.326,243.506 274.326,243.506 274.565,242.952 
	274.858,242.392 275.15,241.84 275.442,241.342 275.704,240.904 275.91,240.552 276.057,240.346 276.113,240.26 276.113,240.26 
	276.091,240.26 275.97,240.228 275.827,240.197 275.617,240.167 275.416,240.167 275.18,240.141 274.975,240.111 274.767,240.111 
	274.767,240.111 273.858,240.167 273.04,240.26 272.277,240.403 271.577,240.582 270.902,240.814 270.284,241.11 269.726,241.399 
	269.198,241.749 268.704,242.134 268.231,242.573 267.793,243.014 267.354,243.506 266.913,244.01 266.504,244.569 266.067,245.15 
	265.623,245.738 266.677,240.435 258.267,240.435 252.788,271.821 252.788,271.821 "/>
<polygon style="fill-rule:evenodd;clip-rule:evenodd;fill:#BABABA;" points="381.545,302.656 381.545,302.537 381.77,301.777 
	382.182,301.102 382.68,300.518 383.299,300.048 384.006,299.694 384.767,299.492 385.584,299.402 386.408,299.492 387.167,299.694 
	387.872,300.048 388.491,300.518 388.988,301.102 389.398,301.777 389.629,302.537 389.629,302.656 388.783,302.656 
	388.602,302.045 388.31,301.485 387.929,300.984 387.463,300.576 386.905,300.252 386.26,300.048 385.584,299.988 384.912,300.048 
	384.269,300.252 383.711,300.576 383.238,300.984 382.859,301.485 382.569,302.045 382.392,302.656 381.545,302.656 
	381.545,302.656 "/>
<polygon style="fill-rule:evenodd;clip-rule:evenodd;fill:#BABABA;" points="384.119,302.656 384.119,301.634 385.729,301.634 
	386.085,301.634 386.408,301.691 386.639,301.743 386.845,301.86 386.992,302.011 387.109,302.188 387.167,302.392 387.197,302.656 
	386.609,302.656 386.609,302.509 386.579,302.362 386.52,302.245 386.438,302.188 386.347,302.128 386.198,302.098 386.055,302.071 
	385.906,302.071 385.729,302.071 384.854,302.071 384.854,302.656 384.119,302.656 384.119,302.656 "/>
<polygon style="fill-rule:evenodd;clip-rule:evenodd;fill:#BABABA;" points="381.454,303.299 381.545,302.656 382.392,302.656 
	382.392,302.682 382.331,303.299 381.454,303.299 381.454,303.299 "/>
<polygon style="fill-rule:evenodd;clip-rule:evenodd;fill:#BABABA;" points="384.119,303.299 384.119,302.656 384.854,302.656 
	384.854,303.24 385.584,303.24 385.845,303.186 386.055,303.155 386.228,303.093 386.377,303.036 386.494,302.95 386.554,302.859 
	386.609,302.718 386.609,302.656 387.197,302.656 387.197,302.656 387.167,302.859 387.109,303.036 387.022,303.186 
	386.905,303.299 384.119,303.299 384.119,303.299 "/>
<polygon style="fill-rule:evenodd;clip-rule:evenodd;fill:#BABABA;" points="388.839,303.299 388.783,302.682 388.783,302.656 
	389.629,302.656 389.714,303.299 388.839,303.299 388.839,303.299 "/>
<polygon style="fill-rule:evenodd;clip-rule:evenodd;fill:#BABABA;" points="381.454,303.299 381.454,303.387 381.545,304.236 
	381.77,305.027 382.182,305.733 382.68,306.347 383.299,306.849 384.006,307.196 384.767,307.433 385.584,307.52 386.408,307.433 
	387.167,307.196 387.872,306.849 388.491,306.347 388.988,305.733 389.398,305.027 389.629,304.236 389.714,303.387 
	389.714,303.299 388.839,303.299 388.839,303.387 388.783,304.092 388.602,304.737 388.31,305.291 387.929,305.785 387.463,306.204 
	386.905,306.524 386.26,306.73 385.584,306.788 384.912,306.73 384.269,306.524 383.711,306.204 383.238,305.785 382.859,305.291 
	382.569,304.737 382.392,304.092 382.331,303.387 382.331,303.299 381.454,303.299 381.454,303.299 "/>
<polygon style="fill-rule:evenodd;clip-rule:evenodd;fill:#BABABA;" points="384.119,303.299 384.119,305.001 384.854,305.001 
	384.854,303.532 385.584,303.532 386.46,305.001 387.052,305.001 386.172,303.532 386.377,303.532 386.579,303.478 386.756,303.418 
	386.905,303.299 386.905,303.299 384.119,303.299 384.119,303.299 "/>
<path style="fill-rule:evenodd;clip-rule:evenodd;fill:#FFFFFF;" d="M253.697,249.779l-0.236-1.752l-0.413-1.555l-0.583-1.346
	l-0.735-1.175l-0.877-0.999l-0.965-0.818l-1.056-0.703l-1.146-0.526l-1.169-0.445l-1.203-0.292l-1.203-0.203l-1.203-0.117
	l-1.143-0.032l-2.379,0.122l-2.104,0.349l-1.91,0.528l-1.697,0.735l-1.465,0.879l-1.293,0.995l-1.143,1.112l-0.935,1.175
	l-0.822,1.231l-0.673,1.288l-0.524,1.263l-0.443,1.254l-0.32,1.237l-0.238,1.139l-0.171,1.086l-0.117,0.939l-0.149,2.402
	l0.091,2.166l0.32,1.966l0.494,1.729l0.709,1.554l0.85,1.35l0.994,1.201l1.142,0.995l1.231,0.852l1.324,0.73l1.374,0.562
	l1.435,0.436l1.465,0.354l1.471,0.207l1.461,0.147l1.435,0.024h0.967l0.914-0.024h0.786l0.763-0.034l0.675-0.056l0.615-0.057
	l0.585-0.06l0.528-0.089l0.498-0.092l0.468-0.111l0.473-0.149l0.441-0.143l0.436-0.181l0.471-0.171l0.464-0.237l0.473-0.232
	l1.171-7.211l-0.848,0.499l-0.822,0.464l-0.845,0.356l-0.826,0.32l-0.79,0.264l-0.82,0.173l-0.794,0.149l-0.79,0.117l-0.792,0.06
	l-0.759,0.028h-0.794l-0.762-0.028l-0.76-0.06l-0.763-0.087l-0.735-0.09l-0.76-0.115l-0.588-0.119l-0.584-0.205l-0.585-0.26
	l-0.532-0.326l-0.524-0.349l-0.473-0.436l-0.437-0.443l-0.411-0.502l-0.349-0.496l-0.319-0.553l-0.239-0.534l-0.205-0.558
	l-0.117-0.558l-0.056-0.558l0.022-0.494l0.072-0.381h19.013l0.145-1.787l0.443-2.466l0.206-2.228L253.697,249.779z M245.752,252.477
	h-10.708l0.011-0.025l-0.019-0.003l0.076-0.409l0.119-0.615l0.176-0.586l0.203-0.585l0.266-0.526l0.266-0.502l0.319-0.473
	l0.353-0.437l0.385-0.409l0.375-0.351l0.447-0.322l0.434-0.266l0.502-0.234l0.498-0.171l0.498-0.121l0.526-0.088l0.558-0.031
	l0.528,0.061l0.498,0.088l0.469,0.119l0.468,0.171l0.441,0.236l0.439,0.264l0.386,0.294l0.347,0.351l0.292,0.409l0.296,0.437
	l0.203,0.503l0.205,0.558l0.112,0.583l0.06,0.647l0.034,0.703L245.752,252.477z"/>
</svg>
