<?xml version="1.0" encoding="iso-8859-1"?>
<!-- Generator: Adobe Illustrator 19.0.0, SVG Export Plug-In . SVG Version: 6.00 Build 0)  -->
<svg version="1.1" xmlns="http://www.w3.org/2000/svg" xmlns:xlink="http://www.w3.org/1999/xlink" x="0px" y="0px"
	 viewBox="0 0 500 500" style="enable-background:new 0 0 500 500;" xml:space="preserve">
<g id="Layer_2">
	<rect x="165.586" y="261.902" width="34.787" height="57.763"/>
	<path d="M203,233.022c0,10.874-8.817,19.696-19.691,19.696c-10.874,0-19.692-8.821-19.692-19.696
		c0-10.875,8.817-19.692,19.692-19.692C194.183,213.33,203,222.147,203,233.022z"/>
	<g>
		<g>
			<path d="M266.266,155.359H141.455v189.282h124.811v-0.036c27.263-0.371,48.861-7.144,64.188-20.184
				c18.64-15.858,28.091-40.898,28.091-74.421c0-16.025-2.486-30.398-7.389-42.722c-4.69-11.789-11.621-21.812-20.6-29.792
				c-15.814-14.054-38.013-21.654-64.29-22.085C266.266,155.401,266.266,155.359,266.266,155.359z M263.904,167.931
				c24.189,0,44.349,6.554,58.301,18.953c15.772,14.016,23.768,35.252,23.768,63.117c0,55.224-26.845,82.069-82.069,82.069
				c-4.292,0-98.842,0-109.878,0c0-11.262,0-152.877,0-164.139C165.063,167.931,259.613,167.931,263.904,167.931z"/>
		</g>
	</g>
	<g>
		<g>
			<path style="fill:#494949;" d="M260.471,319.729h-44.126V183.235h44.126h-1.781c36.799,0,75.969,14.523,75.969,68.427
				c0,56.986-39.17,68.068-75.969,68.068H260.471z"/>
		</g>
	</g>
</g>
<g id="Layer_3">
	<path style="fill:#FFFFFF;" d="M232.703,221.504c-1.478-1.558-3.277-2.658-5.347-3.268c-1.532-0.447-3.658-0.664-6.502-0.664
		h-13.013v34.639h13.372c2.529,0,4.594-0.248,6.138-0.736c2.083-0.668,3.769-1.621,5.014-2.834c1.617-1.57,2.875-3.64,3.738-6.154
		c0.701-2.042,1.057-4.492,1.057-7.282c0-3.161-0.378-5.87-1.123-8.053C235.281,224.94,234.16,223.04,232.703,221.504z
		 M227.905,240.642c-0.398,1.303-0.897,2.232-1.483,2.759c-0.597,0.538-1.37,0.928-2.298,1.159c-0.751,0.19-2.028,0.286-3.801,0.286
		c0,0-2.859,0-4.063,0c0-1.579,0-18.333,0-19.912c0.878,0,2.088,0,2.088,0c3.274,0,4.667,0.158,5.258,0.291
		c1.082,0.234,1.973,0.678,2.657,1.321c0.694,0.653,1.249,1.596,1.649,2.802c0.417,1.259,0.628,3.127,0.628,5.553
		C228.54,237.335,228.326,239.266,227.905,240.642z"/>
	<path style="fill:#FFFFFF;" d="M251.276,237.776c1.605,0,16.455,0,16.455,0v-7.363c0,0-14.85,0-16.455,0c0-1.185,0-4.292,0-5.478
		c1.618,0,17.69,0,17.69,0v-7.363h-26.108v34.639h26.737v-7.363c0,0-16.694,0-18.318,0
		C251.276,243.56,251.276,239.063,251.276,237.776z"/>
	<path style="fill:#FFFFFF;" d="M284.976,217.572l-13.46,34.639h8.976c0,0,2.353-6.452,2.718-7.453c1.083,0,10.812,0,11.876,0
		c0.377,0.98,2.866,7.453,2.866,7.453h9.158l-13.853-34.639H284.976z M285.894,237.394c0.564-1.548,2.195-6.021,3.161-8.672
		c0.984,2.645,2.648,7.117,3.227,8.672C290.706,237.394,287.461,237.394,285.894,237.394z"/>
	<path style="fill:#FFFFFF;" d="M318.843,244.847c0-1.678,0-27.006,0-27.006h-8.418v34.37h24.918v-7.363
		C335.343,244.847,320.449,244.847,318.843,244.847z"/>
</g>
</svg>
