<?xml version="1.0" encoding="iso-8859-1"?>
<!-- Generator: Adobe Illustrator 19.0.0, SVG Export Plug-In . SVG Version: 6.00 Build 0)  -->
<svg version="1.1" id="Layer_1" xmlns="http://www.w3.org/2000/svg" xmlns:xlink="http://www.w3.org/1999/xlink" x="0px" y="0px"
	 viewBox="0 0 500 500" style="enable-background:new 0 0 500 500;" xml:space="preserve">
<g>
	<path style="fill:#393939;" d="M87.928,214.644l-15.974,21.704c0,0,82.815,0,87.063,0c4.401,0,4.343,1.672,2.192,4.586
		c-2.184,2.959-5.84,8.103-8.065,11.106c-1.129,1.525-3.17,4.303,3.595,4.303c7.153,0,35.604,0,35.604,0s5.739-7.809,10.549-14.338
		c6.545-8.881,0.567-27.361-22.828-27.361C159.122,214.644,87.928,214.644,87.928,214.644L87.928,214.644z"/>
	<path style="fill:#393939;" d="M65.49,285.35l32.086-43.598c0,0,35.57,0,39.818,0c4.401,0,4.343,1.672,2.192,4.586
		c-2.184,2.959-5.901,8.048-8.126,11.053c-1.13,1.524-3.171,4.307,3.594,4.307c7.153,0,53.342,0,53.342,0
		c-4.436,6.077-18.825,23.651-44.664,23.651C122.79,285.35,65.49,285.35,65.49,285.35L65.49,285.35z"/>
	<path style="fill:#393939;" d="M249.248,261.695l-17.399,23.656H185.95c0,0,17.39-23.651,17.406-23.651L249.248,261.695
		L249.248,261.695z"/>
	<polygon style="fill:#393939;" points="319.563,256.343 207.299,256.343 237.998,214.644 283.882,214.644 266.287,238.554 
		286.77,238.554 304.372,214.644 350.252,214.644 319.563,256.343 	"/>
	<path style="fill:#393939;" d="M315.622,261.7l-17.408,23.651h-45.882c0,0,17.391-23.651,17.406-23.651H315.622L315.622,261.7z"/>
	<polygon style="fill:#393939;" points="0,271.026 67.615,271.026 63.921,276.051 0,276.051 0,271.026 	"/>
	<polygon style="fill:#393939;" points="0,261.7 74.485,261.7 70.784,266.717 0,266.717 0,261.7 	"/>
	<polygon style="fill:#393939;" points="0,280.357 60.749,280.357 57.073,285.35 0,285.35 0,280.357 	"/>
	<polygon style="fill:#393939;" points="500,276.051 432.643,276.051 436.34,271.026 500,271.026 500,276.051 	"/>
	<polygon style="fill:#393939;" points="500,285.35 425.796,285.356 429.472,280.357 500,280.357 500,285.35 	"/>
	<polygon style="fill:#393939;" points="443.201,261.7 500,261.7 500,266.72 439.509,266.724 443.201,261.7 	"/>
	<path style="fill:#393939;" d="M413.799,214.644l-30.696,41.699h-48.619c0,0,30.701-41.699,30.716-41.699H413.799L413.799,214.644z
		"/>
	<path style="fill:#393939;" d="M330.548,261.7c0,0-3.354,4.584-4.983,6.787c-5.764,7.788-0.668,16.864,18.14,16.864
		c21.721,0,73.689,0,73.689,0L434.8,261.7H330.548L330.548,261.7z"/>
</g>
</svg>
