<?xml version="1.0" encoding="iso-8859-1"?>
<!-- Generator: Adobe Illustrator 19.0.0, SVG Export Plug-In . SVG Version: 6.00 Build 0)  -->
<svg version="1.1" id="Layer_1" xmlns="http://www.w3.org/2000/svg" xmlns:xlink="http://www.w3.org/1999/xlink" x="0px" y="0px"
	 viewBox="0 0 500 500" style="enable-background:new 0 0 500 500;" xml:space="preserve">
<path style="fill-rule:evenodd;clip-rule:evenodd;fill:#FBB231;" d="M308.124,336.885c4.443-0.114,8.854-0.317,13.254-0.991
	c4.301-0.659,8.609-1.622,12.755-2.948c4.207-1.346,8.381-2.942,12.323-4.942c4.035-2.047,7.968-4.274,11.654-6.908
	c3.7-2.644,7.19-5.507,10.471-8.657c3.271-3.141,6.178-6.555,8.981-10.113c2.681-3.404,5.025-7.16,7.096-10.962
	c2.051-3.765,3.847-7.728,5.289-11.765c1.473-4.124,2.784-8.382,3.549-12.701c0.777-4.391,1.464-8.807,1.575-13.274
	c0.11-4.42,0.139-8.88-0.426-13.275c-0.572-4.446-1.264-8.884-2.505-13.2c-1.243-4.325-2.679-8.568-4.557-12.662
	c-1.91-4.162-4.097-8.107-6.558-11.968c-2.404-3.772-5.236-7.224-8.161-10.599c-2.817-3.25-6.06-6.224-9.376-8.955
	c-3.293-2.713-6.79-5.248-10.471-7.41c-3.852-2.262-7.849-4.37-12.013-6.002c-4.203-1.647-8.45-3.088-12.854-4.105
	c-4.394-1.015-8.834-1.721-13.333-2.052c-4.425-0.326-8.844-0.333-13.269-0.007c-4.523,0.334-8.982,1.039-13.4,2.059
	c-4.424,1.021-8.682,2.482-12.904,4.137c-4.129,1.618-8.101,3.739-11.914,5.993c-3.648,2.157-7.143,4.688-10.406,7.39
	c-3.314,2.745-6.539,5.739-9.352,8.999c-2.926,3.391-5.725,6.847-8.136,10.63c-2.456,3.854-4.656,7.81-6.536,11.978
	c-1.885,4.179-3.304,8.487-4.565,12.888c-1.224,4.273-1.889,8.685-2.44,13.086c-0.551,4.402-0.513,8.861-0.397,13.285
	c0.116,4.443,0.784,8.881,1.6,13.242c0.802,4.287,2.055,8.557,3.533,12.658c1.456,4.039,3.241,8.003,5.318,11.761
	c2.131,3.857,4.473,7.658,7.2,11.125c2.818,3.582,5.776,6.996,9.068,10.154c3.275,3.143,6.783,5.952,10.472,8.591
	c3.625,2.593,7.524,4.791,11.503,6.786c3.876,1.943,7.98,3.549,12.118,4.84c4.136,1.291,8.411,2.278,12.697,2.917
	C299.366,336.558,303.724,336.772,308.124,336.885z"/>
<path style="fill-rule:evenodd;clip-rule:evenodd;fill:#EC1C2E;" d="M191.886,336.885c4.432-0.115,8.835-0.316,13.223-0.991
	c4.291-0.66,8.593-1.623,12.728-2.951c4.236-1.361,8.431-2.981,12.395-5.009c4.031-2.062,7.928-4.317,11.617-6.95
	c3.699-2.64,7.144-5.528,10.421-8.675c3.243-3.114,6.138-6.537,8.894-10.083c2.635-3.389,4.93-7.115,6.978-10.883
	c2.059-3.788,3.895-7.77,5.308-11.846c1.454-4.197,2.765-8.506,3.538-12.886c0.778-4.408,1.405-8.823,1.525-13.305
	c0.119-4.421,0.097-8.875-0.469-13.27c-0.575-4.469-1.329-8.894-2.568-13.233c-1.259-4.408-2.774-8.673-4.656-12.855
	c-1.865-4.144-4.138-8.043-6.581-11.869c-2.356-3.69-5.135-7.131-8.049-10.393c-2.81-3.146-5.917-6.097-9.178-8.773
	c-3.359-2.756-6.933-5.388-10.708-7.548c-3.929-2.248-7.928-4.362-12.147-6.017c-4.268-1.674-8.591-3.045-13.059-4.076
	c-4.386-1.012-8.831-1.603-13.316-1.934c-4.425-0.326-8.848-0.22-13.269,0.106c-4.519,0.333-8.967,1.149-13.376,2.167
	c-4.338,1.001-8.513,2.518-12.649,4.142c-4.048,1.589-7.993,3.681-11.715,5.922c-3.638,2.19-7.131,4.68-10.391,7.401
	c-3.396,2.835-6.688,5.882-9.58,9.236c-2.956,3.428-5.75,6.95-8.182,10.773c-2.458,3.863-4.566,7.842-6.476,12.002
	c-1.871,4.075-3.217,8.346-4.446,12.65c-1.209,4.235-1.9,8.661-2.396,13.031c-0.5,4.404-0.524,8.873-0.358,13.296
	c0.166,4.427,0.773,8.852,1.627,13.196c0.833,4.241,2.056,8.439,3.537,12.497c1.474,4.043,3.245,8.067,5.357,11.82
	c2.184,3.881,4.559,7.672,7.315,11.175c2.833,3.6,5.832,6.981,9.135,10.158c3.266,3.142,6.811,5.923,10.495,8.556
	c3.615,2.583,7.539,4.772,11.52,6.733c3.876,1.909,7.951,3.509,12.076,4.793c4.148,1.292,8.432,2.279,12.731,2.917
	C183.107,336.557,187.475,336.772,191.886,336.885z"/>
<path style="fill-rule:evenodd;clip-rule:evenodd;fill:#FBB231;" d="M239.834,196.441c5.88,0,11.759,0,17.639,0
	c8.47,0,16.94,0,25.41,0c0.885,0,1.831,0.096,2.711,0c0.068-0.007,0.348,0.048,0.399,0c0.234-0.219,0.001-1.947,0.001-2.262
	c0-0.339,0.252-2.223,0-2.459c-0.052-0.048-0.324,0.008-0.392,0c-0.947-0.105-1.967,0-2.919,0c-8.623,0-17.246,0-25.868,0
	c-3.594,0-7.188,0-10.782,0c-0.57,0-1.6-0.206-2.142,0c-0.247,0.094-0.445,0.445-0.623,0.655c-0.709,0.84-1.418,1.68-2.127,2.519
	C240.705,195.41,240.27,195.926,239.834,196.441z"/>
<path style="fill-rule:evenodd;clip-rule:evenodd;fill:#FBB231;" d="M232.915,206.931c6.704,0,13.408,0,20.112,0
	c9.733,0,19.467,0,29.2,0c1.086,0,2.172,0,3.258,0c0.074,0,0.442,0.054,0.502,0c0.24-0.216,0.006-2.039,0.006-2.36
	c0-0.34,0.236-2.142-0.009-2.36c-0.071-0.063-0.484,0-0.573,0c-1.161,0-2.321,0-3.482,0c-9.902,0-19.804,0-29.706,0
	c-4.303,0-8.606,0-12.909,0c-1.059,0-2.152-0.079-3.208,0c-0.106,0.008-0.321-0.045-0.412,0.008c-0.173,0.1-0.374,0.635-0.468,0.794
	c-0.323,0.548-0.646,1.095-0.969,1.643C233.81,205.414,233.363,206.173,232.915,206.931z"/>
<path style="fill-rule:evenodd;clip-rule:evenodd;fill:#FBB231;" d="M227.759,217.396c7.361,0,14.723,0,22.084,0
	c10.643,0,21.286,0,31.93,0c1.202,0,2.403,0,3.605,0c0.081,0,0.537,0.062,0.602,0c0.276-0.265,0.015-2.138,0.015-2.557
	c0-0.335,0.2-1.963-0.034-2.164c-0.089-0.077-0.617,0-0.726,0c-1.272,0-2.545,0-3.817,0c-10.789,0-21.577,0-32.366,0
	c-4.869,0-9.738,0-14.606,0c-1.292,0-2.584,0-3.876,0c-0.161,0-0.583-0.081-0.726,0c-0.375,0.214-0.695,1.522-0.863,1.909
	C228.573,215.522,228.166,216.459,227.759,217.396z"/>
<path style="fill-rule:evenodd;clip-rule:evenodd;fill:#FBB231;" d="M224.211,227.888c7.79,0,15.58,0,23.37,0
	c11.291,0,22.583,0,33.874,0c1.297,0,2.595,0,3.892,0c0.105,0,0.549,0.07,0.634,0c0.062-0.051,0.011-0.381,0.014-0.466
	c0.02-0.76,0-1.524,0-2.284c0-0.35,0.195-1.766-0.056-1.967c-0.108-0.087-0.67,0-0.805,0c-1.412,0-2.824,0-4.235,0
	c-11.47,0-22.941,0-34.411,0c-5.199,0-10.398,0-15.597,0c-1.415,0-2.83,0-4.245,0c-0.195,0-0.702-0.096-0.881,0
	c-0.301,0.161-0.43,1.106-0.537,1.449C224.887,225.71,224.549,226.799,224.211,227.888z"/>
<path style="fill-rule:evenodd;clip-rule:evenodd;fill:#FBB231;" d="M226.264,278.594c7.346,0,14.692,0,22.038,0
	c10.944,0,21.888,0,32.833,0c1.343,0,2.687,0,4.03,0c0.173,0,0.717,0.095,0.868,0c0.252-0.158,0.106-0.87,0.106-1.223
	c0-0.728,0-1.455,0-2.183c0-0.171,0.131-1.191,0-1.307c-0.061-0.054-0.363-0.002-0.443-0.005c-1.084-0.052-2.184,0-3.269,0
	c-10.545,0-21.09,0-31.635,0c-5.483,0-10.967,0-16.45,0c-3.024,0-6.083-0.133-9.105,0c-0.147,0.006-0.296,0-0.443,0
	C225.285,275.448,225.774,277.021,226.264,278.594z"/>
<path style="fill-rule:evenodd;clip-rule:evenodd;fill:#FBB231;" d="M230.687,289.085c6.931,0,13.863,0,20.794,0
	c10.159,0,20.318,0,30.476,0c1.171,0,2.341,0,3.511,0c0.101,0,0.564,0.07,0.641,0c0.23-0.207,0.029-1.63,0.029-1.968
	c0-0.646,0-1.292,0-1.937c0-0.108,0.085-0.736-0.004-0.814c-0.059-0.052-0.392,0.001-0.467,0c-1.046-0.012-2.093,0-3.139,0
	c-9.898,0-19.795,0-29.693,0c-5.151,0-10.301,0-15.452,0c-1.83,0-3.66,0-5.49,0c-0.97,0-2.049-0.133-3.012,0
	c-0.126,0.017-0.266,0-0.394,0C229.221,285.939,229.954,287.512,230.687,289.085z"/>
<path style="fill-rule:evenodd;clip-rule:evenodd;fill:#FBB231;" d="M236.897,299.549c6.293,0,12.586,0,18.879,0
	c9.037,0,18.075,0,27.112,0c0.919,0,1.965,0.14,2.874,0c0.069-0.011,0.322,0.048,0.376,0c0.078-0.069,0-0.731,0-0.814
	c0-0.613,0-1.227,0-1.84c0-0.265,0.194-1.898-0.009-2.065c-0.065-0.053-0.409,0-0.487,0c-0.985,0-1.97,0-2.955,0
	c-8.942,0-17.884,0-26.825,0c-4.638,0-9.276,0-13.914,0c-1.639,0-3.278,0-4.917,0c-0.871,0-1.872-0.139-2.734,0
	c-0.112,0.018-0.241,0-0.356,0C234.927,296.403,235.912,297.976,236.897,299.549z"/>
<path style="fill-rule:evenodd;clip-rule:evenodd;fill:#FBB231;" d="M245.46,310.041c5.425,0,10.851,0,16.276,0
	c7.469,0,14.938,0,22.408,0c0.371,0,1.593,0.216,1.913,0c0.167-0.113,0.082-0.491,0.082-0.742c0-1.01,0-2.02,0-3.03
	c0-0.874,0.214-0.977-0.573-0.977c-0.891,0-1.782,0-2.673,0c-7.677,0-15.354,0-23.031,0c-3.93,0-7.861,0-11.791,0
	c-1.375,0-2.75,0-4.125,0c-0.712,0-1.605-0.147-2.305,0c-0.095,0.02-0.214,0-0.312,0
	C242.706,306.874,244.083,308.457,245.46,310.041z"/>
<path style="fill-rule:evenodd;clip-rule:evenodd;fill:#FBB231;" d="M222.132,238.352c2.396,0,4.792,0,7.188,0
	c5.638,0,11.277,0,16.915,0c6.557,0,13.113,0,19.67,0c5.15,0,10.301,0,15.451,0c1.322,0,2.643,0,3.964,0
	c0.103,0,0.579,0.072,0.661,0c0.079-0.07,0.013-0.556,0.013-0.666c0-0.759,0-1.518,0-2.277c0-0.377,0.179-1.589-0.092-1.775
	c-0.149-0.103-0.743,0-0.919,0c-1.472,0-2.945,0-4.417,0c-5.342,0-10.684,0-16.026,0c-6.556,0-13.111,0-19.667,0
	c-5.39,0-10.779,0-16.169,0c-1.514,0-3.028,0-4.542,0c-0.234,0-0.781-0.106-0.995,0c-0.321,0.16-0.295,0.86-0.37,1.253
	C222.575,236.041,222.353,237.196,222.132,238.352z"/>
<path style="fill-rule:evenodd;clip-rule:evenodd;fill:#FBB231;" d="M261.05,268.132c3.628,0,7.255,0,10.883,0
	c2.676,0,5.351,0,8.027,0c1.651,0,3.396,0.162,5.041,0c0.471-0.046,0.393,0.081,0.406-0.466c0.029-1.219,0-2.442,0-3.661
	c0-0.633,0.116-0.537-0.389-0.596c-0.627-0.073-1.308,0-1.939,0c-5.079,0-10.157,0-15.236,0c-1.215,0-2.429,0-3.644,0
	c-0.582,0-1.442-0.162-2.005,0c-0.069,0.02-0.209-0.032-0.263,0.01c-0.173,0.136-0.209,1.118-0.248,1.329
	C261.471,265.876,261.261,267.004,261.05,268.132z"/>
<path style="fill-rule:evenodd;clip-rule:evenodd;fill:#FBB231;" d="M262.988,257.665c3.372,0,6.744,0,10.116,0
	c2.498,0,4.995,0,7.493,0c0.941,0,1.882,0,2.823,0c0.489,0,1.243,0.145,1.714,0c0.406-0.125,0.273-0.067,0.273-0.67
	c0-1.159,0-2.318,0-3.477c0-0.6,0.12-0.514-0.337-0.599c-0.554-0.103-1.228,0-1.79,0c-4.727,0-9.453,0-14.18,0
	c-1.097,0-2.194,0-3.291,0c-0.411,0-1.435-0.196-1.808,0c-0.355,0.186-0.353,1.18-0.434,1.616
	C263.374,255.578,263.181,256.621,262.988,257.665z"/>
<path style="fill-rule:evenodd;clip-rule:evenodd;fill:#FBB231;" d="M220.518,252.918c1.593,0,3.186,0,4.779,0
	c0.255,0,1.373-0.167,1.556,0.005c0.222,0.21,0,1.874,0,2.17c0,0.475,0,0.951,0,1.426c0,0.203,0.115,0.872,0,1.051
	c-0.137,0.214-0.873,0.093-1.174,0.093c-1,0-2,0-3,0c-0.316,0-1.603,0.205-1.86,0c-0.245-0.195-0.127-1.968-0.146-2.275
	C220.62,254.566,220.569,253.742,220.518,252.918z"/>
<path style="fill-rule:evenodd;clip-rule:evenodd;fill:#FFFFFF;" d="M208.702,247.2c-2.107-0.096-4.108-0.686-6.243-0.559
	c-1.753,0.104-4.864,0.159-5.476,2.292c-0.68,2.37,2.549,3.57,4.218,4.1c2.117,0.673,4.401,1.357,5.805,3.199
	c1.417,1.859,1.5,4.36,1.263,6.596c-0.236,2.23-1.074,4.393-2.739,5.942c-3.56,3.312-8.479,3.21-13.025,3.173
	c-2.134-0.017-4.332-0.12-6.405-0.653c-0.535-0.138-1.034-0.319-1.555-0.505c-0.584-0.21-0.441-0.253-0.322-0.837
	c0.315-1.547,0.63-3.093,0.945-4.64c0.079-0.387,0.158-0.775,0.237-1.162c1.958,0.389,3.856,0.923,5.849,1.156
	c1.842,0.215,4.214,0.562,5.966-0.189c1.815-0.778,2.718-3.489,1.052-4.85c-1.578-1.289-3.878-1.706-5.696-2.567
	c-1.84-0.872-3.518-2.152-4.292-4.087c-0.78-1.951-0.671-4.125-0.233-6.153c0.427-1.98,1.363-3.949,3.011-5.202
	c1.587-1.206,3.552-1.784,5.492-2.102c2.332-0.382,4.703-0.372,7.059-0.29c2.238,0.078,4.376,0.5,6.588,0.723
	C209.701,242.788,209.202,244.994,208.702,247.2z"/>
<path style="fill:none;stroke:#FFFFFF;stroke-width:0.216;stroke-miterlimit:2.6131;" d="M208.702,247.2
	c-2.107-0.096-4.108-0.686-6.243-0.559c-1.753,0.104-4.864,0.159-5.476,2.292c-0.68,2.37,2.549,3.57,4.218,4.1
	c2.117,0.673,4.401,1.357,5.805,3.199c1.417,1.859,1.5,4.36,1.263,6.596c-0.236,2.23-1.074,4.393-2.739,5.942
	c-3.56,3.312-8.479,3.21-13.025,3.173c-2.134-0.017-4.332-0.12-6.405-0.653c-0.535-0.138-1.034-0.319-1.555-0.505
	c-0.584-0.21-0.441-0.253-0.322-0.837c0.315-1.547,0.63-3.093,0.945-4.64c0.079-0.387,0.158-0.775,0.237-1.162
	c1.958,0.389,3.856,0.923,5.849,1.156c1.842,0.215,4.214,0.562,5.966-0.189c1.815-0.778,2.718-3.489,1.052-4.85
	c-1.578-1.289-3.878-1.706-5.696-2.567c-1.84-0.872-3.518-2.152-4.292-4.087c-0.78-1.951-0.671-4.125-0.233-6.153
	c0.427-1.98,1.363-3.949,3.011-5.202c1.587-1.206,3.552-1.784,5.492-2.102c2.332-0.382,4.703-0.372,7.059-0.29
	c2.238,0.078,4.376,0.5,6.588,0.723C209.701,242.788,209.202,244.994,208.702,247.2"/>
<path style="fill-rule:evenodd;clip-rule:evenodd;fill:#FFFFFF;" d="M215.651,233.342c2.707,0,5.415,0,8.122,0
	c-0.401,2.364-0.802,4.728-1.203,7.092c1.631,0,3.263,0,4.894,0c-0.197,1.233-0.393,2.467-0.59,3.7
	c-0.096,0.605-0.124,2.671-0.618,2.919c-0.445,0.223-1.638-0.047-2.132-0.061c-0.792-0.023-1.585-0.045-2.377-0.068
	c-0.757-0.022-0.57,0.386-0.694,1.108c-0.543,3.158-1.085,6.316-1.628,9.474c-0.249,1.452-0.499,2.904-0.749,4.356
	c-0.104,0.606-0.343,1.361-0.27,1.988c0.289,2.5,4.875,1.798,6.387,1.173c-0.182,0.974-0.365,1.947-0.547,2.921
	c-0.128,0.684-0.118,2.085-0.578,2.604c-0.928,1.047-3.42,1.177-4.69,1.264c-2.876,0.198-8.365,0.212-9.016-3.471
	c-0.442-2.499,0.539-5.58,0.966-8.021c0.924-5.279,1.848-10.557,2.771-15.836C214.352,240.77,215.001,237.056,215.651,233.342z"/>
<path style="fill:none;stroke:#FFFFFF;stroke-width:0.216;stroke-miterlimit:2.6131;" d="M215.651,233.342c2.707,0,5.415,0,8.122,0
	c-0.401,2.364-0.802,4.728-1.203,7.092c1.631,0,3.263,0,4.894,0c-0.197,1.233-0.393,2.467-0.59,3.7
	c-0.096,0.605-0.124,2.671-0.618,2.919c-0.445,0.223-1.638-0.047-2.132-0.061c-0.792-0.023-1.585-0.045-2.377-0.068
	c-0.757-0.022-0.57,0.386-0.694,1.108c-0.543,3.158-1.085,6.316-1.628,9.474c-0.249,1.452-0.499,2.904-0.749,4.356
	c-0.104,0.606-0.343,1.361-0.27,1.988c0.289,2.5,4.875,1.798,6.387,1.173c-0.182,0.974-0.365,1.947-0.547,2.921
	c-0.128,0.684-0.118,2.085-0.578,2.604c-0.928,1.047-3.42,1.177-4.69,1.264c-2.876,0.198-8.365,0.212-9.016-3.471
	c-0.442-2.499,0.539-5.58,0.966-8.021c0.924-5.279,1.848-10.557,2.771-15.836C214.352,240.77,215.001,237.056,215.651,233.342"/>
<path style="fill:none;stroke:#FFFFFF;stroke-width:0.216;stroke-miterlimit:2.6131;" d="M233.943,258.106
	c-0.534,2.929,1.827,5.925,4.582,6.751c2.76,0.827,6.059,0.72,8.841,0.105c1.64-0.362,3.106-1.146,4.541-1.991
	c-0.35,2.154-0.699,4.307-1.049,6.461c-0.027,0.168-0.012,0.606-0.122,0.75c-0.216,0.284-1.013,0.486-1.335,0.614
	c-0.799,0.317-1.595,0.566-2.444,0.713c-3.456,0.597-7.465,0.581-10.877-0.245c-3.724-0.901-7.093-2.775-9.02-6.202
	c-1.821-3.24-1.919-7.26-1.411-10.856c0.51-3.61,1.799-7.328,4.423-9.96c2.851-2.859,6.519-4.166,10.505-4.371
	c3.623-0.186,7.577,0.429,10.277,3.076c2.853,2.797,3.101,6.997,2.696,10.736c-0.1,0.928-0.347,1.834-0.468,2.758
	c-0.061,0.463,0.076,1.612-0.266,1.807c-0.33,0.188-1.344,0-1.712,0c-1.081,0-2.162,0-3.243,0c-5.067,0-10.135,0-15.202,0
	c-0.363,0-0.725,0-1.088,0c0.369-1.588,0.739-3.176,1.108-4.763c0.062-0.266,0.099-0.874,0.299-1.013c0.229-0.159,1.144,0,1.415,0
	c3.61,0,7.298,0.228,10.901,0c0.566-0.036,0.501-0.007,0.516-0.703c0.014-0.631-0.034-1.349-0.204-1.96
	c-0.368-1.325-1.228-2.377-2.466-2.975c-2.538-1.225-5.42-0.053-6.888,2.22c-0.734,1.137-1.026,2.378-1.278,3.687
	C234.631,254.533,234.287,256.319,233.943,258.106"/>
<path style="fill-rule:evenodd;clip-rule:evenodd;fill:#FFFFFF;" d="M303.839,242.192c-2.971-1.658-6.256-2.24-9.63-2.067
	c-3.683,0.189-6.718,2.074-8.503,5.314c-3.15,5.716-4.622,15.87,3.447,18.18c3.795,1.087,8.253,0.876,11.288-1.849
	c-0.305,1.814-0.609,3.627-0.914,5.441c-0.113,0.671-0.087,1.713-0.391,2.328c-0.232,0.469-1.006,0.89-1.46,1.129
	c-2.714,1.428-6.38,1.202-9.345,1.045c-6.715-0.354-12.221-4.78-13.867-11.342c-1.503-5.991,0.183-12.942,2.886-18.356
	c1.41-2.824,3.528-5.302,6.196-7.007c2.711-1.733,5.911-2.551,9.086-2.864c3.08-0.304,6.193,0.022,9.185,0.784
	c0.75,0.191,1.484,0.415,2.213,0.676c0.297,0.106,0.621,0.187,0.905,0.323c0.36,0.173,0.272,0.066,0.336,0.36
	c0.055,0.253-0.132,0.729-0.178,0.982c-0.097,0.535-0.194,1.07-0.291,1.605c-0.216,1.193-0.433,2.385-0.649,3.578
	C304.049,241.034,303.944,241.613,303.839,242.192z"/>
<path style="fill:none;stroke:#FFFFFF;stroke-width:0.216;stroke-miterlimit:2.6131;" d="M303.839,242.192
	c-2.971-1.658-6.256-2.24-9.63-2.067c-3.683,0.189-6.718,2.074-8.503,5.314c-3.15,5.716-4.622,15.87,3.447,18.18
	c3.795,1.087,8.253,0.876,11.288-1.849c-0.305,1.814-0.609,3.627-0.914,5.441c-0.113,0.671-0.087,1.713-0.391,2.328
	c-0.232,0.469-1.006,0.89-1.46,1.129c-2.714,1.428-6.38,1.202-9.345,1.045c-6.715-0.354-12.221-4.78-13.867-11.342
	c-1.503-5.991,0.183-12.942,2.886-18.356c1.41-2.824,3.528-5.302,6.196-7.007c2.711-1.733,5.911-2.551,9.086-2.864
	c3.08-0.304,6.193,0.022,9.185,0.784c0.75,0.191,1.484,0.415,2.213,0.676c0.297,0.106,0.621,0.187,0.905,0.323
	c0.36,0.173,0.272,0.066,0.336,0.36c0.055,0.253-0.132,0.729-0.178,0.982c-0.097,0.535-0.194,1.07-0.291,1.605
	c-0.216,1.193-0.433,2.385-0.649,3.578C304.049,241.034,303.944,241.613,303.839,242.192"/>
<path style="fill-rule:evenodd;clip-rule:evenodd;fill:#FFFFFF;" d="M375.998,271.821c-2.706,0-5.412,0-8.118,0
	c0.202-1.114,0.67-2.413,0.588-3.546c-2.706,3.387-6.929,4.623-11.119,3.664c-4.449-1.019-7.028-5.301-7.857-9.515
	c-0.818-4.161-0.082-8.636,1.7-12.464c1.827-3.926,4.92-7.328,9.073-8.794c3.929-1.387,8.797-0.881,11.514,2.564
	c0.308,0.39,0.623,0.818,0.819,1.276c0.496-2.776,0.991-5.551,1.487-8.327c0.13-0.729,0.26-1.459,0.391-2.188
	c0.03-0.165,0.044-0.876,0.177-0.993c0.131-0.114,0.786-0.011,0.962-0.011c0.809,0,1.619,0,2.428,0c1.526,0,3.053,0,4.579,0
	c-0.747,4.322-1.494,8.644-2.241,12.966c-1.19,6.883-2.379,13.767-3.569,20.65C376.542,268.677,376.27,270.249,375.998,271.821z"/>
<path style="fill:none;stroke:#FFFFFF;stroke-width:0.216;stroke-miterlimit:2.6131;" d="M375.998,271.821c-2.706,0-5.412,0-8.118,0
	c0.202-1.114,0.67-2.413,0.588-3.546c-2.706,3.387-6.929,4.623-11.119,3.664c-4.449-1.019-7.028-5.301-7.857-9.515
	c-0.818-4.161-0.082-8.636,1.7-12.464c1.827-3.926,4.92-7.328,9.073-8.794c3.929-1.387,8.797-0.881,11.514,2.564
	c0.308,0.39,0.623,0.818,0.819,1.276c0.496-2.776,0.991-5.551,1.487-8.327c0.13-0.729,0.26-1.459,0.391-2.188
	c0.03-0.165,0.044-0.876,0.177-0.993c0.131-0.114,0.786-0.011,0.962-0.011c0.809,0,1.619,0,2.428,0c1.526,0,3.053,0,4.579,0
	c-0.747,4.322-1.494,8.644-2.241,12.966c-1.19,6.883-2.379,13.767-3.569,20.65C376.542,268.677,376.27,270.249,375.998,271.821"/>
<path style="fill-rule:evenodd;clip-rule:evenodd;fill:#FBB231;" d="M362.722,264.731c6.37-0.453,9.188-8.485,7.386-13.922
	c-0.468-1.412-1.442-2.787-2.944-3.18c-1.428-0.375-3.126,0.077-4.308,0.925c-2.39,1.714-3.654,4.794-4.116,7.619
	c-0.289,1.767-0.13,3.696,0.466,5.389c0.266,0.755,0.668,1.491,1.214,2.082C361.088,264.364,361.788,264.545,362.722,264.731z"/>
<path style="fill-rule:evenodd;clip-rule:evenodd;fill:#FFFFFF;" d="M182.742,265.315c-0.22,1.214-0.439,2.428-0.659,3.642
	c-0.132,0.729-0.264,1.458-0.395,2.187c-0.037,0.207-0.036,0.577-0.184,0.677c-0.239,0.16-1.121,0-1.403,0c-0.809,0-1.618,0-2.427,0
	c-1.165,0-2.33,0-3.496,0c0.199-1.161,0.25-2.42,0.588-3.546c-2.997,3.438-8.587,4.81-12.904,3.547
	c-5.02-1.468-6.815-6.821-5.304-11.536c1.532-4.778,5.926-7.479,10.72-8.05c2.228-0.266,4.454-0.564,6.703-0.464
	c0.615,0.027,1.23,0.023,1.845,0.065c0.703,0.047,0.737,0.089,0.943-0.623c0.353-1.221,0.172-2.394-0.815-3.272
	c-1.683-1.497-4.556-1.16-6.652-1.043c-2.339,0.131-4.78,0.36-7.039,1c-0.54,0.153-1.018,0.351-1.51,0.621
	c0.557-1.887,1.113-3.775,1.67-5.662c0.215-0.728,0.175-1.313,0.892-1.596c0.726-0.286,1.454-0.495,2.217-0.657
	c3.251-0.686,6.618-0.609,9.923-0.511c3.249,0.096,6.756,1.265,8.898,3.825c2.077,2.483,1.457,5.339,0.904,8.229
	C184.419,256.539,183.581,260.927,182.742,265.315z"/>
<path style="fill:none;stroke:#FFFFFF;stroke-width:0.216;stroke-miterlimit:2.6131;" d="M182.742,265.315
	c-0.22,1.214-0.439,2.428-0.659,3.642c-0.132,0.729-0.264,1.458-0.395,2.187c-0.037,0.207-0.036,0.577-0.184,0.677
	c-0.239,0.16-1.121,0-1.403,0c-0.809,0-1.618,0-2.427,0c-1.165,0-2.33,0-3.496,0c0.199-1.161,0.25-2.42,0.588-3.546
	c-2.997,3.438-8.587,4.81-12.904,3.547c-5.02-1.468-6.815-6.821-5.304-11.536c1.532-4.778,5.926-7.479,10.72-8.05
	c2.228-0.266,4.454-0.564,6.703-0.464c0.615,0.027,1.23,0.023,1.845,0.065c0.703,0.047,0.737,0.089,0.943-0.623
	c0.353-1.221,0.172-2.394-0.815-3.272c-1.683-1.497-4.556-1.16-6.652-1.043c-2.339,0.131-4.78,0.36-7.039,1
	c-0.54,0.153-1.018,0.351-1.51,0.621c0.557-1.887,1.113-3.775,1.67-5.662c0.215-0.728,0.175-1.313,0.892-1.596
	c0.726-0.286,1.454-0.495,2.217-0.657c3.251-0.686,6.618-0.609,9.923-0.511c3.249,0.096,6.756,1.265,8.898,3.825
	c2.077,2.483,1.457,5.339,0.904,8.229C184.419,256.539,183.581,260.927,182.742,265.315"/>
<path style="fill-rule:evenodd;clip-rule:evenodd;fill:#EC1C2E;" d="M175.675,257.665c-0.168-1.195-4.535-0.281-5.303-0.085
	c-1.722,0.441-3.817,1.468-4.755,3.051c-1.055,1.781-0.429,4.428,1.84,4.661c1.956,0.201,4.242-0.329,5.773-1.588
	C175.051,262.205,175.253,259.839,175.675,257.665z"/>
<path style="fill-rule:evenodd;clip-rule:evenodd;fill:#FFFFFF;" d="M121.069,271.821c-2.656,0-5.311,0-7.967,0
	c0.714-4.128,1.427-8.255,2.141-12.383c1.176-6.804,2.353-13.608,3.529-20.412c0.198-1.147,0.397-2.294,0.595-3.44
	c0.103-0.598,0.111-1.364,0.334-1.931c0.159-0.405,0.05-0.312,0.607-0.312c1.34,0,2.68,0,4.02,0c1.818,0,3.636,0,5.453,0
	c0.745,0,1.489,0,2.234,0c0.381,0,0.97-0.115,1.335,0c0.415,0.13,0.279,0.271,0.311,0.814c0.065,1.123,0.13,2.245,0.195,3.368
	c0.352,6.064,0.531,12.166,1.056,18.218c0.012,0.143,0.017,0.286,0.025,0.429c2.154-5.13,4.308-10.26,6.461-15.389
	c0.626-1.491,1.252-2.982,1.878-4.473c0.358-0.853,0.646-1.816,1.101-2.623c0.265-0.47,0.319-0.344,0.94-0.344
	c1.459,0,2.918,0,4.377,0c3.102,0,6.203,0,9.305,0c-1.03,5.825-2.059,11.65-3.089,17.475c-0.76,4.297-1.519,8.593-2.279,12.89
	c-0.448,2.534-0.7,5.211-1.361,7.699c-0.027,0.101-0.017,0.351-0.09,0.415c-0.278,0.245-1.876,0-2.23,0c-1.908,0-3.817,0-5.725,0
	c1.474-8.404,2.947-16.807,4.421-25.211c0.207-1.179,0.414-2.359,0.62-3.538c-0.536-0.196-0.863,1.313-1.001,1.644
	c-0.638,1.537-1.276,3.075-1.915,4.612c-1.8,4.335-3.599,8.67-5.399,13.006c-1.252,3.015-2.438,6.068-3.758,9.054
	c-0.05,0.114-0.103,0.37-0.203,0.433c-0.329,0.208-1.475,0-1.853,0c-2.162,0-4.325,0-6.487,0c-0.81,0-0.632-0.094-0.677-0.941
	c-0.043-0.807-0.1-1.614-0.152-2.42c-0.106-1.657-0.198-3.314-0.294-4.971c-0.183-3.166-0.36-6.332-0.538-9.499
	c-0.178-3.151-0.386-6.301-0.553-9.453c-0.015-0.29,0.172-1.782-0.412-1.465c-0.157,0.085-0.139,0.301-0.176,0.522
	c-0.218,1.287-0.436,2.573-0.654,3.86c-1.345,7.939-2.69,15.878-4.034,23.816C121.132,271.454,121.101,271.638,121.069,271.821z"/>
<path style="fill:none;stroke:#FFFFFF;stroke-width:0.216;stroke-miterlimit:2.6131;" d="M121.069,271.821c-2.656,0-5.311,0-7.967,0
	c0.714-4.128,1.427-8.255,2.141-12.383c1.176-6.804,2.353-13.608,3.529-20.412c0.198-1.147,0.397-2.294,0.595-3.44
	c0.103-0.598,0.111-1.364,0.334-1.931c0.159-0.405,0.05-0.312,0.607-0.312c1.34,0,2.68,0,4.02,0c1.818,0,3.636,0,5.453,0
	c0.745,0,1.489,0,2.234,0c0.381,0,0.97-0.115,1.335,0c0.415,0.13,0.279,0.271,0.311,0.814c0.065,1.123,0.13,2.245,0.195,3.368
	c0.352,6.064,0.531,12.166,1.056,18.218c0.012,0.143,0.017,0.286,0.025,0.429c2.154-5.13,4.308-10.26,6.461-15.389
	c0.626-1.491,1.252-2.982,1.878-4.473c0.358-0.853,0.646-1.816,1.101-2.623c0.265-0.47,0.319-0.344,0.94-0.344
	c1.459,0,2.918,0,4.377,0c3.102,0,6.203,0,9.305,0c-1.03,5.825-2.059,11.65-3.089,17.475c-0.76,4.297-1.519,8.593-2.279,12.89
	c-0.448,2.534-0.7,5.211-1.361,7.699c-0.027,0.101-0.017,0.351-0.09,0.415c-0.278,0.245-1.876,0-2.23,0c-1.908,0-3.817,0-5.725,0
	c1.474-8.404,2.947-16.807,4.421-25.211c0.207-1.179,0.414-2.359,0.62-3.538c-0.536-0.196-0.863,1.313-1.001,1.644
	c-0.638,1.537-1.276,3.075-1.915,4.612c-1.8,4.335-3.599,8.67-5.399,13.006c-1.252,3.015-2.438,6.068-3.758,9.054
	c-0.05,0.114-0.103,0.37-0.203,0.433c-0.329,0.208-1.475,0-1.853,0c-2.162,0-4.325,0-6.487,0c-0.81,0-0.632-0.094-0.677-0.941
	c-0.043-0.807-0.1-1.614-0.152-2.42c-0.106-1.657-0.198-3.314-0.294-4.971c-0.183-3.166-0.36-6.332-0.538-9.499
	c-0.178-3.151-0.386-6.301-0.553-9.453c-0.015-0.29,0.172-1.782-0.412-1.465c-0.157,0.085-0.139,0.301-0.176,0.522
	c-0.218,1.287-0.436,2.573-0.654,3.86c-1.345,7.939-2.69,15.878-4.034,23.816C121.132,271.454,121.101,271.638,121.069,271.821"/>
<path style="fill-rule:evenodd;clip-rule:evenodd;fill:#FFFFFF;" d="M328.204,265.315c-0.225,1.214-0.45,2.428-0.674,3.642
	c-0.135,0.729-0.27,1.458-0.405,2.187c-0.038,0.206-0.038,0.578-0.186,0.677c-0.24,0.16-1.115,0-1.398,0c-0.806,0-1.612,0-2.417,0
	c-1.161,0-2.321,0-3.482,0c0.051-1.079-0.099-2.347,0.143-3.395c-3.006,3.499-8.457,4.631-12.746,3.278
	c-4.875-1.537-6.359-7.117-4.866-11.627c1.566-4.733,6.079-7.357,10.824-7.884c2.173-0.241,4.331-0.514,6.523-0.417
	c0.588,0.026,1.176,0.022,1.764,0.057c0.783,0.046,0.872,0.157,0.997-0.673c0.192-1.275,0.096-2.364-0.929-3.272
	c-1.66-1.471-4.562-1.106-6.621-0.977c-2.303,0.144-4.72,0.355-6.94,1.011c-0.508,0.15-0.966,0.336-1.427,0.599
	c0.549-1.887,1.097-3.775,1.646-5.662c0.209-0.718,0.171-1.319,0.882-1.596c0.723-0.282,1.458-0.499,2.218-0.657
	c3.265-0.678,6.656-0.634,9.975-0.505c3.194,0.123,6.658,1.331,8.77,3.835c2.094,2.482,1.541,5.318,0.966,8.214
	C329.947,256.539,329.076,260.927,328.204,265.315z"/>
<path style="fill-rule:evenodd;clip-rule:evenodd;fill:#FFFFFF;" d="M326.999,272.029c0.284-0.206,0.263-0.67,0.321-0.984
	c0.139-0.751,0.278-1.502,0.416-2.253c0.212-1.15,0.425-2.299,0.637-3.449c-0.487-0.259-0.418,0.301-0.477,0.621
	c-0.141,0.762-0.281,1.524-0.422,2.285c-0.218,1.182-0.436,2.365-0.655,3.547c0.06-0.06,0.119-0.121,0.179-0.181
	C326.973,271.748,327.021,271.896,326.999,272.029c0.134-0.095,0.1-0.011,0.172-0.177
	C327.114,271.911,327.057,271.97,326.999,272.029z"/>
<path style="fill-rule:evenodd;clip-rule:evenodd;fill:#FFFFFF;" d="M319.466,271.821c0.169,0.353,0.726,0.208,1.044,0.208
	c0.871,0,1.742,0,2.613,0c0.909,0,1.818,0,2.726,0c0.212,0,1.04,0.109,1.15-0.032c0.393-0.508-0.574-0.381-0.74-0.381
	c-0.848,0-1.697,0-2.545,0c-1.358,0-2.715,0-4.073,0c0.068,0.057,0.108,0.149,0.177,0.205c-0.225-0.069-0.393-0.028-0.381,0.208
	c0.068,0,0.136,0,0.204,0C319.584,271.961,319.516,271.895,319.466,271.821z"/>
<path style="fill-rule:evenodd;clip-rule:evenodd;fill:#FFFFFF;" d="M319.935,268.536c-0.066-0.086-0.185-0.159-0.268-0.23
	c-0.274,1.124-0.151,2.361-0.202,3.516c0.613,0.181,0.404-1.097,0.428-1.534c0.027-0.496,0.27-1.722-0.253-1.982
	C319.739,268.382,319.838,268.458,319.935,268.536z"/>
<path style="fill-rule:evenodd;clip-rule:evenodd;fill:#FFFFFF;" d="M308.533,272.293c4.035,0.576,8.66-0.583,11.402-3.757
	c-0.351-0.517-0.791,0.361-1.086,0.62c-0.344,0.303-0.746,0.6-1.13,0.848c-0.942,0.608-2.026,1.097-3.09,1.437
	c-1.033,0.33-2.067,0.547-3.148,0.639c-0.512,0.044-1.028,0.075-1.54,0.041C309.541,272.094,308.459,271.675,308.533,272.293z"/>
<path style="fill-rule:evenodd;clip-rule:evenodd;fill:#FFFFFF;" d="M301.44,263.409c0.086,2.115,0.44,4.188,1.745,5.914
	c1.321,1.748,3.304,2.46,5.348,2.97c0.292-0.547-0.686-0.528-1.036-0.629c-0.527-0.151-1.015-0.34-1.504-0.584
	c-0.968-0.482-1.773-1.072-2.453-1.92c-1.274-1.589-1.784-3.739-1.69-5.751C301.727,263.409,301.557,263.375,301.44,263.409z"/>
<path style="fill-rule:evenodd;clip-rule:evenodd;fill:#FFFFFF;" d="M311.96,252.156c-4.407,0.755-8.466,3.391-9.931,7.787
	c-0.375,1.126-0.499,2.288-0.589,3.466c0.677,0.156,0.398-0.71,0.443-1.167c0.059-0.6,0.202-1.211,0.373-1.789
	c0.31-1.046,0.771-2.049,1.395-2.946c1.281-1.841,3.045-3.155,5.079-4.07c0.552-0.248,1.126-0.427,1.708-0.596
	C310.861,252.719,312.13,252.702,311.96,252.156z"/>
<path style="fill-rule:evenodd;clip-rule:evenodd;fill:#FFFFFF;" d="M317.997,251.539c-1.053-0.065-2.25,0.163-3.298,0.285
	c-0.54,0.063-1.081,0.119-1.62,0.183c-0.362,0.043-1.286-0.035-1.118,0.502c1.053-0.131,2.109-0.279,3.167-0.382
	c0.575-0.056,1.151-0.109,1.727-0.144C317.302,251.956,318.141,252.158,317.997,251.539z"/>
<path style="fill-rule:evenodd;clip-rule:evenodd;fill:#FFFFFF;" d="M321.956,251.862c0.059-0.049,0.118-0.098,0.177-0.147
	c-0.725-0.028-1.438-0.113-2.165-0.113c-0.41,0-0.805-0.038-1.214-0.058c-0.185-0.009-1.09-0.12-0.757,0.342
	c0.145,0.201,1.727,0.106,2.083,0.123c0.433,0.02,1.965,0.243,2.229-0.085c-0.058,0.049-0.117,0.098-0.175,0.147
	c0.049,0.009,0.098,0.018,0.147,0.026C322.322,251.893,322.181,251.842,321.956,251.862z"/>
<path style="fill-rule:evenodd;clip-rule:evenodd;fill:#FFFFFF;" d="M322.25,249.988c-0.177,0.537-0.116,1.279-0.294,1.874
	c0.481,0.23,0.445-0.336,0.496-0.679c0.059-0.399,0.11-0.797,0.175-1.195C322.511,249.988,322.36,249.956,322.25,249.988z"/>
<path style="fill-rule:evenodd;clip-rule:evenodd;fill:#FFFFFF;" d="M318.759,247.086c0.346,0.115,0.83,0.075,1.228,0.217
	c0.424,0.151,0.826,0.359,1.169,0.654c0.324,0.279,0.595,0.63,0.793,1.006c0.187,0.355,0.134,1.188,0.652,1.024
	c-0.377-2.094-1.812-3.036-3.843-3.28C318.759,246.824,318.726,246.977,318.759,247.086z"/>
<path style="fill-rule:evenodd;clip-rule:evenodd;fill:#FFFFFF;" d="M306.188,248.495c0.338,0.364,1.003-0.201,1.39-0.327
	c0.484-0.158,0.984-0.255,1.483-0.355c1.102-0.222,2.214-0.399,3.331-0.526c2.117-0.242,4.24-0.273,6.367-0.2
	c0.18-0.58-0.955-0.393-1.352-0.417c-0.518-0.031-1.034-0.032-1.553-0.005c-1.114,0.059-2.227,0.144-3.336,0.262
	c-1.998,0.213-4.53,0.347-6.27,1.449c0.098,0.049,0.189,0.14,0.292,0.175C306.424,248.533,306.302,248.522,306.188,248.495z"/>
<path style="fill-rule:evenodd;clip-rule:evenodd;fill:#FFFFFF;" d="M308.36,241.282c-0.255,0.277-0.302,0.766-0.403,1.114
	c-0.23,0.793-0.46,1.585-0.69,2.378c-0.36,1.24-0.72,2.481-1.079,3.721c0.494,0.265,0.5-0.452,0.595-0.778
	c0.234-0.805,0.468-1.61,0.702-2.415c0.37-1.272,0.739-2.544,1.109-3.817c-0.04,0.05-0.08,0.101-0.12,0.151
	C308.457,241.515,308.374,241.403,308.36,241.282c-0.079,0.071-0.073,0.035-0.123,0.149
	C308.278,241.381,308.319,241.331,308.36,241.282z"/>
<path style="fill-rule:evenodd;clip-rule:evenodd;fill:#FFFFFF;" d="M321.398,239.937c-2.256-0.132-4.516-0.128-6.771,0.024
	c-1.18,0.08-2.329,0.225-3.489,0.463c-0.512,0.105-1.014,0.219-1.512,0.379c-0.377,0.121-1.513,0.319-1.153,0.833
	c2.074-0.845,4.244-1.232,6.476-1.35c1.153-0.061,2.314-0.027,3.468-0.027c0.558,0,1.114,0.006,1.671,0.018
	C320.484,240.286,321.578,240.522,321.398,239.937z"/>
<path style="fill-rule:evenodd;clip-rule:evenodd;fill:#FFFFFF;" d="M331.452,249.871c0.265-2.194,0.042-4.23-1.417-6.002
	c-1.298-1.576-3.198-2.677-5.129-3.289c-1.14-0.361-2.32-0.556-3.509-0.644c-0.169,0.564,0.762,0.405,1.156,0.467
	c0.526,0.083,1.05,0.196,1.565,0.334c1.051,0.281,2.036,0.711,2.995,1.22c1.836,0.975,3.342,2.594,3.919,4.613
	c0.174,0.607,0.232,1.181,0.214,1.809C331.234,248.821,330.815,249.956,331.452,249.871z"/>
<path style="fill-rule:evenodd;clip-rule:evenodd;fill:#FFFFFF;" d="M328.374,265.344c1.026-5.158,2.052-10.315,3.078-15.473
	c-0.605-0.328-0.711,1.747-0.784,2.11c-0.35,1.759-0.7,3.518-1.05,5.277c-0.533,2.676-1.065,5.353-1.597,8.029
	C328.12,265.303,328.276,265.358,328.374,265.344z"/>
<path style="fill-rule:evenodd;clip-rule:evenodd;fill:#FBB231;" d="M321.104,257.665c-0.2-1.278-4.577-0.214-5.381-0.042
	c-1.779,0.381-3.745,1.397-4.57,3.105c-0.432,0.892-0.526,2.017-0.254,2.976c0.308,1.085,1.218,1.527,2.279,1.598
	c1.943,0.13,4.027-0.415,5.58-1.598C320.698,262.227,320.928,259.944,321.104,257.665z"/>
<path style="fill-rule:evenodd;clip-rule:evenodd;fill:#FFFFFF;" d="M381.477,267.812c0.217-2.17,1.802-3.959,4.106-3.961
	c2.293-0.002,3.909,1.789,4.108,3.961c-0.179,0-0.742,0.095-0.858,0c-0.078-0.064-0.053-0.491-0.081-0.639
	c-0.101-0.529-0.351-1.033-0.69-1.448c-0.612-0.749-1.54-1.141-2.504-1.14c-1.004,0.001-1.983,0.472-2.566,1.289
	c-0.291,0.408-0.489,0.866-0.588,1.359C382.262,267.944,382.236,267.812,381.477,267.812z"/>
<path style="fill-rule:evenodd;clip-rule:evenodd;fill:#FFFFFF;" d="M384.119,267.812c0-0.419-0.169-1.569,0.103-1.761
	c0.293-0.207,1.622-0.035,2.025,0.057c0.614,0.139,1.064,0.584,0.921,1.259c-0.149,0.702-0.852,0.445-1.438,0.445
	c0.339-0.06,0.777-0.111,0.88-0.5c0.107-0.401-0.173-0.552-0.483-0.63c-0.248-0.062-1.178-0.088-1.273,0.026
	c-0.175,0.212,0.173,0.851,0,1.064C384.762,267.886,384.298,267.812,384.119,267.812z"/>
<path style="fill-rule:evenodd;clip-rule:evenodd;fill:#FFFFFF;" d="M381.477,267.812c-0.393,2.464,2.265,4.499,4.518,4.262
	c1.2-0.126,2.305-0.772,3.004-1.765c0.321-0.456,0.53-0.976,0.634-1.523c0.03-0.157,0.176-0.737,0.069-0.889
	c-0.126-0.179-0.633-0.086-0.894-0.086c0.423,2.054-1.762,3.771-3.642,3.534c-0.974-0.123-1.822-0.673-2.338-1.513
	c-0.253-0.412-0.384-0.855-0.453-1.329c-0.009-0.06,0.014-0.637-0.045-0.692C382.245,267.731,381.606,267.812,381.477,267.812z"/>
<path style="fill-rule:evenodd;clip-rule:evenodd;fill:#FFFFFF;" d="M384.119,267.812c0,0.322-0.199,1.581,0,1.785
	c0.072,0.074,0.712-0.012,0.735-0.034c0.147-0.146-0.053-0.867,0-1.077c0.097-0.382-0.094-0.348,0.365-0.354
	c0.452-0.006,0.307,0.02,0.563,0.331c0.539,0.654,0.363,1.134,1.271,1.134c-0.293-0.488-0.587-0.977-0.88-1.465
	c0.285,0.014,0.623-0.075,0.79-0.32C385.993,267.812,385.059,267.812,384.119,267.812z"/>
<path style="fill:none;stroke:#FFFFFF;stroke-width:0.216;stroke-miterlimit:2.6131;" d="M381.454,267.983
	c0.191-1.787,0.98-3.225,2.748-3.872c1.706-0.624,3.701-0.007,4.748,1.481c2.099,2.982-0.588,7.152-4.184,6.437
	C382.72,271.622,381.661,269.916,381.454,267.983 M384.854,269.597c-0.45,0-0.595,0.112-0.735-0.21c-0.167-0.384,0-1.246,0-1.661
	c0-0.315-0.174-1.292,0-1.553c0.145-0.217,0.561-0.122,0.898-0.122c0.681,0,1.687-0.116,2.063,0.6
	c0.363,0.692-0.129,1.519-0.908,1.481c0.293,0.488,0.587,0.977,0.88,1.465c-0.503,0-0.469,0.044-0.75-0.264
	c-0.252-0.277-0.39-0.999-0.711-1.188c-0.226-0.133-0.657-0.017-0.737,0.115C384.697,268.521,384.854,269.282,384.854,269.597
	 M385.584,267.838c0.347-0.082,0.841-0.074,0.998-0.455c0.161-0.39-0.099-0.6-0.419-0.694c-0.265-0.077-1.191-0.104-1.309,0.02
	c-0.063,0.067-0.033,1.053,0,1.089C384.958,267.908,385.395,267.838,385.584,267.838 M385.584,271.382
	c1.441-0.125,2.635-0.855,3.087-2.295c0.413-1.314,0.057-2.925-1.043-3.805c-2.469-1.975-5.744,0.429-5.24,3.352
	C382.674,270.295,383.979,271.242,385.584,271.382"/>
<path style="fill-rule:evenodd;clip-rule:evenodd;fill:#FFFFFF;" d="M330.401,271.821c1.639,0,3.278,0,4.916,0
	c0.669,0,3.051,0.352,3.384-0.187c0.217-0.351,0.201-1.133,0.272-1.535c0.157-0.886,0.314-1.773,0.471-2.659
	c0.393-2.216,0.786-4.432,1.179-6.649c0.463-2.612,0.664-5.564,1.643-8.058c1.106-2.818,3.388-4.4,6.31-4.928
	c0.43-0.078,0.835-0.118,1.272-0.141c0.209-0.011,0.967,0.083,1.123-0.026c0.3-0.209,0.319-1.325,0.389-1.725
	c0.339-1.934,0.678-3.869,1.017-5.803c-1.917,0.131-3.715,0.516-5.327,1.619c-1.52,1.04-2.771,2.503-3.813,4.009
	c0.293-1.768,0.586-3.536,0.878-5.304c-1.274,0-2.547,0-3.821,0c-0.913,0-1.825,0-2.738,0c-0.307,0-1.362-0.183-1.624,0
	c-0.183,0.128-0.194,0.79-0.236,1.034c-0.19,1.086-0.379,2.172-0.569,3.258c-1.235,7.079-2.47,14.157-3.705,21.236
	C331.082,267.916,330.741,269.869,330.401,271.821z"/>
<path style="fill:none;stroke:#FFFFFF;stroke-width:0.216;stroke-miterlimit:2.6131;" d="M330.401,271.821c1.639,0,3.278,0,4.916,0
	c0.669,0,3.051,0.352,3.384-0.187c0.217-0.351,0.201-1.133,0.272-1.535c0.157-0.886,0.314-1.773,0.471-2.659
	c0.393-2.216,0.786-4.432,1.179-6.649c0.463-2.612,0.664-5.564,1.643-8.058c1.106-2.818,3.388-4.4,6.31-4.928
	c0.43-0.078,0.835-0.118,1.272-0.141c0.209-0.011,0.967,0.083,1.123-0.026c0.3-0.209,0.319-1.325,0.389-1.725
	c0.339-1.934,0.678-3.869,1.017-5.803c-1.917,0.131-3.715,0.516-5.327,1.619c-1.52,1.04-2.771,2.503-3.813,4.009
	c0.293-1.768,0.586-3.536,0.878-5.304c-1.274,0-2.547,0-3.821,0c-0.913,0-1.825,0-2.738,0c-0.307,0-1.362-0.183-1.624,0
	c-0.183,0.128-0.194,0.79-0.236,1.034c-0.19,1.086-0.379,2.172-0.569,3.258c-1.235,7.079-2.47,14.157-3.705,21.236
	C331.082,267.916,330.741,269.869,330.401,271.821"/>
<path style="fill-rule:evenodd;clip-rule:evenodd;fill:#FFFFFF;" d="M252.788,271.821c1.772,0,3.543,0,5.315,0
	c0.88,0,1.775,0.048,2.654,0c0.397-0.022,0.326,0.059,0.479-0.239c0.234-0.454,0.214-1.269,0.299-1.768
	c0.167-0.99,0.335-1.981,0.502-2.971c0.394-2.33,0.787-4.66,1.181-6.99c0.433-2.562,0.548-5.883,1.87-8.187
	c1.385-2.412,4.699-3.768,7.431-3.379c0.266,0.038,0.382,0.103,0.521-0.028c0.175-0.165,0.2-0.861,0.256-1.106
	c0.2-0.867,0.421-1.733,0.693-2.58c0.49-1.527,1.18-3.005,2.124-4.313c-1.865-0.454-4.168,0.022-5.858,0.865
	c-2.019,1.008-3.31,2.859-4.632,4.614c0.351-1.768,0.703-3.536,1.054-5.304c-1.238,0-2.476,0-3.714,0c-0.943,0-1.886,0-2.83,0
	c-0.395,0-1.361-0.184-1.721,0c-0.275,0.141-0.242,0.549-0.307,0.922c-0.184,1.054-0.368,2.107-0.552,3.161
	c-1.243,7.122-2.486,14.244-3.73,21.366C253.479,267.863,253.134,269.842,252.788,271.821z"/>
<path style="fill:none;stroke:#FFFFFF;stroke-width:0.216;stroke-miterlimit:2.6131;" d="M252.788,271.821c1.772,0,3.543,0,5.315,0
	c0.88,0,1.775,0.048,2.654,0c0.397-0.022,0.326,0.059,0.479-0.239c0.234-0.454,0.214-1.269,0.299-1.768
	c0.167-0.99,0.335-1.981,0.502-2.971c0.394-2.33,0.787-4.66,1.181-6.99c0.433-2.562,0.548-5.883,1.87-8.187
	c1.385-2.412,4.699-3.768,7.431-3.379c0.266,0.038,0.382,0.103,0.521-0.028c0.175-0.165,0.2-0.861,0.256-1.106
	c0.2-0.867,0.421-1.733,0.693-2.58c0.49-1.527,1.18-3.005,2.124-4.313c-1.865-0.454-4.168,0.022-5.858,0.865
	c-2.019,1.008-3.31,2.859-4.632,4.614c0.351-1.768,0.703-3.536,1.054-5.304c-1.238,0-2.476,0-3.714,0c-0.943,0-1.886,0-2.83,0
	c-0.395,0-1.361-0.184-1.721,0c-0.275,0.141-0.242,0.549-0.307,0.922c-0.184,1.054-0.368,2.107-0.552,3.161
	c-1.243,7.122-2.486,14.244-3.73,21.366C253.479,267.863,253.134,269.842,252.788,271.821"/>
<path style="fill-rule:evenodd;clip-rule:evenodd;fill:#FBB231;" d="M381.545,302.656c0.076-1.926,2.298-3.253,4.038-3.254
	c1.72-0.001,3.994,1.329,4.046,3.254c-0.73,0-0.756,0.11-1.009-0.547c-0.153-0.399-0.4-0.809-0.692-1.125
	c-0.595-0.643-1.476-0.996-2.345-0.995c-0.869,0.001-1.747,0.358-2.346,0.995c-0.283,0.302-0.527,0.71-0.678,1.093
	c-0.066,0.167-0.081,0.496-0.215,0.579C382.195,302.749,381.73,302.656,381.545,302.656z"/>
<path style="fill-rule:evenodd;clip-rule:evenodd;fill:#FBB231;" d="M384.119,302.656c0-0.315-0.104-0.884,0.103-1.022
	c0.241-0.162,1.136-0.005,1.443,0c0.729,0.012,1.516,0.118,1.533,1.022c-0.129,0-0.492,0.064-0.588,0
	c-0.05-0.033,0.022-0.288-0.059-0.353c-0.206-0.164-0.326-0.2-0.607-0.232c-0.216-0.024-0.996-0.084-1.089,0.03
	c-0.094,0.115,0.082,0.459-0.027,0.554C384.748,302.724,384.229,302.656,384.119,302.656z"/>
<path style="fill-rule:evenodd;clip-rule:evenodd;fill:#FBB231;" d="M381.454,303.299c0.11-0.779,0.167-0.643,0.937-0.643
	C382.329,303.446,382.215,303.299,381.454,303.299z"/>
<path style="fill-rule:evenodd;clip-rule:evenodd;fill:#FBB231;" d="M384.119,303.299c0-0.156-0.066-0.56,0.027-0.643
	c0.039-0.035,0.674-0.035,0.708,0c0.097,0.1-0.098,0.485,0,0.585c0.068,0.07,0.592,0.009,0.703,0
	c0.298-0.025,0.62-0.098,0.879-0.247c0.1-0.057,0.101-0.234,0.174-0.275c0.12-0.068,0.374-0.062,0.588-0.062
	C387.126,303.821,384.932,303.299,384.119,303.299z"/>
<path style="fill-rule:evenodd;clip-rule:evenodd;fill:#FBB231;" d="M388.839,303.299c-0.02-0.214-0.041-0.428-0.056-0.643
	c0.767,0,0.83-0.126,0.931,0.643C389.423,303.299,389.131,303.299,388.839,303.299z"/>
<path style="fill-rule:evenodd;clip-rule:evenodd;fill:#FBB231;" d="M381.454,303.299c0.111,2.274,1.72,4.22,4.129,4.221
	c2.381,0.002,4.06-1.946,4.131-4.221c-0.886,0-0.797-0.137-0.922,0.676c-0.076,0.492-0.247,0.951-0.522,1.368
	c-0.6,0.907-1.599,1.446-2.686,1.446c-1.083-0.001-2.088-0.543-2.685-1.446c-0.261-0.394-0.431-0.837-0.511-1.302
	C382.239,303.183,382.417,303.299,381.454,303.299z"/>
<path style="fill-rule:evenodd;clip-rule:evenodd;fill:#FBB231;" d="M384.119,303.299c0,0.332-0.159,1.552,0.054,1.702
	c0.184,0.13,0.621-0.022,0.681-0.109c0.153-0.222-0.075-0.79,0-1.055c0.102-0.356-0.075-0.288,0.365-0.305
	c0.448-0.017,0.313,0.028,0.563,0.332c0.539,0.655,0.362,1.137,1.271,1.137c-0.293-0.49-0.587-0.979-0.88-1.469
	c0.259,0.016,0.541-0.056,0.734-0.234C385.976,303.299,385.048,303.299,384.119,303.299z"/>
<path style="fill-rule:evenodd;clip-rule:evenodd;fill:#FFFFFF;" d="M253.697,249.779l-0.236-1.752l-0.413-1.555l-0.583-1.346
	l-0.735-1.175l-0.877-0.999l-0.965-0.818l-1.056-0.703l-1.146-0.526l-1.169-0.445l-1.203-0.292l-1.203-0.203l-1.203-0.117
	l-1.143-0.032l-2.379,0.122l-2.104,0.349l-1.91,0.528l-1.697,0.735l-1.465,0.879l-1.293,0.995l-1.143,1.112l-0.935,1.175
	l-0.822,1.231l-0.673,1.288l-0.524,1.263l-0.443,1.254l-0.32,1.237l-0.238,1.139l-0.171,1.086l-0.117,0.939l-0.149,2.402
	l0.091,2.166l0.32,1.966l0.494,1.729l0.709,1.554l0.85,1.35l0.994,1.201l1.142,0.995l1.231,0.852l1.324,0.73l1.374,0.562
	l1.435,0.436l1.465,0.354l1.471,0.207l1.461,0.147l1.435,0.024h0.967l0.914-0.024h0.786l0.763-0.034l0.675-0.056l0.615-0.057
	l0.585-0.06l0.528-0.089l0.498-0.092l0.468-0.111l0.473-0.149l0.441-0.143l0.436-0.181l0.471-0.171l0.464-0.237l0.473-0.232
	l1.171-7.211l-0.848,0.499l-0.822,0.464l-0.845,0.356l-0.826,0.32l-0.79,0.264l-0.82,0.173l-0.794,0.149l-0.79,0.117l-0.792,0.06
	l-0.759,0.028h-0.794l-0.762-0.028l-0.76-0.06l-0.763-0.087l-0.735-0.09l-0.76-0.115l-0.588-0.119l-0.584-0.205l-0.585-0.26
	l-0.532-0.326l-0.524-0.349l-0.473-0.436l-0.437-0.443l-0.411-0.502l-0.349-0.496l-0.319-0.553l-0.239-0.534l-0.205-0.558
	l-0.117-0.558l-0.056-0.558l0.022-0.494l0.072-0.381h19.013l0.145-1.787l0.443-2.466l0.206-2.228L253.697,249.779z M245.752,252.477
	h-10.708l0.011-0.025l-0.019-0.003l0.076-0.409l0.119-0.615l0.176-0.586l0.203-0.585l0.266-0.526l0.266-0.502l0.319-0.473
	l0.353-0.437l0.385-0.409l0.375-0.351l0.447-0.322l0.434-0.266l0.502-0.234l0.498-0.171l0.498-0.121l0.526-0.088l0.558-0.031
	l0.528,0.061l0.498,0.088l0.469,0.119l0.468,0.171l0.441,0.236l0.439,0.264l0.386,0.294l0.347,0.351l0.292,0.409l0.296,0.437
	l0.203,0.503l0.205,0.558l0.112,0.583l0.06,0.647l0.034,0.703L245.752,252.477z"/>
</svg>
