<?xml version="1.0" encoding="iso-8859-1"?>
<!-- Generator: Adobe Illustrator 19.0.0, SVG Export Plug-In . SVG Version: 6.00 Build 0)  -->
<svg version="1.1" id="Layer_1" xmlns="http://www.w3.org/2000/svg" xmlns:xlink="http://www.w3.org/1999/xlink" x="0px" y="0px"
	 viewBox="0 0 500 500" style="enable-background:new 0 0 500 500;" xml:space="preserve">
<g>
	<path style="fill:#336699;" d="M404.949,212.773c-5.093-2.831-13.046-4.27-23.936-4.27c-5.381,0-10.784,0.429-16.218,1.275
		c-3.987,0.604-4.391,0.708-6.869,1.24c-5.089,1.116-5.882,6.211-5.882,6.211l-1.629,6.734c-0.927,4.297,1.519,4.119,2.606,3.787
		c2.227-0.67,3.429-1.343,7.971-2.371c4.338-0.977,8.914-1.72,12.566-1.688c5.363,0,9.441,0.589,12.153,1.72
		c2.706,1.184,4.053,3.195,4.053,6.073c0.013,0.686,0.025,1.331-0.219,1.898c-0.225,0.529-0.651,1.04-1.942,1.212
		c-7.642,0.451-13.13,1.15-19.751,2.121c-6.515,0.918-12.228,2.487-17.001,4.667c-5.087,2.255-8.892,5.275-11.52,9.102
		c-2.55,3.846-3.834,8.504-3.846,13.988c0,5.181,1.86,9.412,5.465,12.695c3.653,3.239,8.394,4.839,14.133,4.839
		c3.583-0.025,6.395-0.285,8.4-0.789c1.986-0.501,4.163-1.212,6.456-2.202c1.71-0.72,3.564-1.754,5.513-3.057
		c1.96-1.303,3.311-2.23,5.052-3.37l0.062,0.106l-0.491,2.164c-0.006,0.019-0.031,0.031-0.031,0.044l0.019,0.041
		c-0.567,2.599,1.003,4.755,3.57,5.024l0.038,0.037h0.219l0.019,0.013c1.704,0,7.561,0,10.305-0.013h1.904
		c0.126,0,0.144-0.037,0.194-0.072c2.618-0.319,5.14-2.459,5.738-5.03l9.782-42.209c0.216-0.992,0.398-2.139,0.498-3.467
		c0.125-1.331,0.273-2.424,0.235-3.223C412.582,220.033,410.014,215.613,404.949,212.773z M381.245,263.079
		c-1.663,1.043-3.417,1.942-5.259,2.715c-2.478,0.99-4.817,1.516-6.982,1.516c-3.339,0-5.895-0.476-7.624-1.478
		c-1.732-0.956-2.64-2.618-2.609-4.99c0-2.74,0.636-4.876,1.935-6.543c1.325-1.607,3.286-2.9,5.719-3.865
		c2.422-0.824,5.397-1.494,8.823-1.976c3.063-0.386,9.099-1.084,9.87-1.09c0.774,0,1.291-0.429,0.946,1.626
		c-0.153,0.892-1.901,8.056-2.706,11.304C383.13,261.277,381.834,262.699,381.245,263.079z"/>
	<path style="fill:#003366;" d="M236.66,209.434c-2.853,0-6.628,2.324-8.406,5.127c0,0-19.197,32.91-21.077,36.192
		c-1.027,1.772-2.067,0.651-2.249-0.006c-0.128-0.802-5.929-35.967-5.929-35.967c-0.661-2.829-3.62-5.259-7.32-5.247l-11.958,0.019
		c-2.894,0-4.699,2.305-4.053,5.102c0,0,9.149,51.856,10.934,64.047c0.89,6.741-0.09,7.943-0.09,7.943l-11.865,20.682
		c-1.735,2.794-0.783,5.099,2.092,5.099l13.866-0.009c2.869,0,6.672-2.284,8.394-5.096l53.344-90.244c0,0,5.105-7.705,0.398-7.642
		C249.537,209.487,236.66,209.434,236.66,209.434"/>
	<path style="fill:#003366;" d="M68.234,227.782c-4.047,2.951-9.635,4.435-16.905,4.435h-3.286c-2.894,0-4.723-2.299-4.075-5.118
		L48,209.725c0.611-2.797,3.492-5.125,6.393-5.093l4.382-0.031c5.121,0,9.008,0.874,11.642,2.622
		c2.584,1.692,3.903,4.37,3.846,7.975C74.342,220.618,72.284,224.816,68.234,227.782 M97.157,200.998
		c-1.667-3.245-4.157-5.882-7.348-7.871c-3.298-2.046-7.151-3.445-11.627-4.297c-4.511-0.805-9.77-1.194-15.812-1.256l-27.955,0.025
		c-2.913,0.037-5.751,2.308-6.427,5.099L9.136,274.667c-0.652,2.8,1.159,5.115,4.059,5.115h13.405c2.882,0,5.764-2.259,6.403-5.115
		l4.617-19.896c0.617-2.781,3.486-5.086,6.386-5.086h3.828c16.384-0.016,29.092-3.364,38.216-10.073
		c9.121-6.691,13.678-15.561,13.659-26.542C99.728,208.25,98.895,204.222,97.157,200.998"/>
	<path style="fill:#336699;" d="M311.419,228.111c-4.012,2.923-9.644,4.388-16.895,4.388h-3.329
		c-2.888,0.028-4.742-2.302-4.066-5.096l4.022-17.399c0.598-2.756,3.524-5.099,6.367-5.071l4.398-0.028
		c5.146,0.028,8.992,0.89,11.645,2.593c2.606,1.735,3.868,4.417,3.887,7.99C317.461,220.935,315.447,225.126,311.419,228.111
		 M340.326,201.293c-1.673-3.241-4.188-5.86-7.373-7.893c-3.27-2.036-7.151-3.452-11.646-4.279
		c-4.442-0.78-9.738-1.228-15.754-1.237l-28.024,0.01c-2.888,0.05-5.713,2.321-6.386,5.111l-18.83,81.982
		c-0.69,2.788,1.178,5.115,4.015,5.096l13.446-0.019c2.844,0.019,5.751-2.289,6.431-5.077l4.542-19.889
		c0.636-2.79,3.539-5.127,6.433-5.087H291c16.406,0,29.126-3.367,38.232-10.079c9.083-6.744,13.647-15.58,13.647-26.577
		C342.854,208.554,342.036,204.51,340.326,201.293"/>
	<path style="fill:#003366;" d="M161.71,212.707c-5.086-2.835-13.036-4.269-23.923-4.269c-5.381,0-10.791,0.426-16.222,1.268
		c-3.99,0.614-4.388,0.718-6.871,1.253c-5.09,1.115-5.873,6.211-5.873,6.211l-1.638,6.722c-0.934,4.307,1.531,4.128,2.621,3.79
		c2.215-0.667,3.427-1.325,7.959-2.359c4.325-0.99,8.911-1.719,12.569-1.694c5.359,0,9.434,0.582,12.147,1.713
		c2.71,1.187,4.047,3.205,4.047,6.083c0.019,0.683,0.037,1.337-0.213,1.888c-0.223,0.539-0.652,1.043-1.936,1.212
		c-7.646,0.464-13.124,1.162-19.758,2.121c-6.528,0.917-12.228,2.493-17.002,4.673c-5.089,2.261-8.886,5.281-11.514,9.108
		c-2.562,3.843-3.843,8.498-3.843,13.979c0,5.187,1.86,9.409,5.462,12.691c3.649,3.242,8.397,4.846,14.126,4.846
		c3.593-0.025,6.386-0.288,8.41-0.79c1.983-0.504,4.157-1.215,6.446-2.205c1.717-0.72,3.565-1.757,5.519-3.057
		c1.955-1.3,3.317-2.227,5.049-3.364l0.056,0.103l-0.489,2.155c0,0.022-0.025,0.034-0.025,0.059l0.019,0.038
		c-0.564,2.6,0.996,4.755,3.568,5.005l0.031,0.05h0.229l0.006,0.028c1.713,0,7.567-0.016,10.305-0.028h1.917
		c0.132,0,0.144-0.044,0.188-0.073c2.625-0.332,5.14-2.456,5.739-5.021l9.782-42.228c0.219-0.98,0.404-2.13,0.498-3.455
		c0.132-1.334,0.276-2.431,0.232-3.216C169.353,219.967,166.782,215.551,161.71,212.707z M138.019,263.019
		c-1.66,1.049-3.417,1.942-5.265,2.706c-2.465,0.992-4.824,1.516-6.988,1.516c-3.317,0-5.888-0.47-7.617-1.472
		c-1.729-0.955-2.637-2.618-2.612-4.993c0-2.747,0.639-4.871,1.955-6.543c1.316-1.613,3.264-2.901,5.698-3.862
		c2.427-0.827,5.409-1.491,8.839-1.98c3.054-0.388,9.093-1.074,9.87-1.087c0.764-0.003,1.281-0.432,0.94,1.622
		c-0.157,0.899-1.892,8.059-2.7,11.31C139.898,261.221,138.605,262.637,138.019,263.019z"/>
	<g>
		<g>
			<path style="fill:#336699;" d="M451.123,188.558h-11.986c-0.006,0-0.013,0.002-0.019,0.002l-0.006-0.002
				c-2.757,0-5.555,2.119-6.321,4.812c-0.029,0.097-0.076,0.189-0.1,0.287c0,0-0.242,1.102-0.665,3.032l-16.562,75.089
				c-0.392,1.73-0.648,2.835-0.726,3.124l0.032,0.044c-0.566,2.61,1.002,4.771,3.58,5.01l0.034,0.047h12.435
				c2.771,0,5.591-2.157,6.335-4.851c0.025-0.085,0.066-0.165,0.086-0.251l17.96-81.252l-0.023-0.007
				C455.777,190.868,453.994,188.558,451.123,188.558z"/>
		</g>
	</g>
	<g>
		<path style="fill:#336699;" d="M469.306,205.099c-0.411,0.11-0.852,0.2-1.337,0.263c-0.492,0.078-0.927,0.113-1.3,0.113
			c-1.337,0-2.352-0.361-3.039-1.071c-0.689-0.717-1.037-1.867-1.037-3.442v-6.932h-1.488v-1.848h1.488v-3.74h2.189v3.74h4.523
			v1.848h-4.523v5.939c0,0.683,0.025,1.215,0.044,1.597c0.037,0.395,0.14,0.749,0.328,1.087c0.169,0.314,0.404,0.536,0.708,0.683
			c0.301,0.141,0.761,0.216,1.371,0.216c0.361,0,0.733-0.056,1.119-0.163c0.385-0.098,0.673-0.191,0.842-0.263h0.11V205.099z"/>
		<path style="fill:#336699;" d="M490.996,205.221h-2.205v-7.426c0-0.551-0.019-1.096-0.075-1.622
			c-0.05-0.52-0.156-0.933-0.323-1.25c-0.182-0.332-0.429-0.586-0.774-0.752c-0.336-0.173-0.815-0.263-1.441-0.263
			c-0.617,0-1.228,0.153-1.842,0.47c-0.617,0.298-1.228,0.692-1.842,1.165c0.019,0.179,0.031,0.386,0.047,0.627
			c0.019,0.235,0.031,0.466,0.031,0.699v8.353h-2.189v-7.426c0-0.57-0.038-1.124-0.081-1.635c-0.051-0.523-0.163-0.933-0.323-1.24
			c-0.182-0.339-0.436-0.589-0.774-0.761c-0.335-0.16-0.808-0.25-1.441-0.25c-0.605,0-1.203,0.147-1.814,0.451
			c-0.598,0.288-1.193,0.664-1.804,1.121v9.741h-2.189v-13.039h2.189v1.441c0.692-0.557,1.375-1.008,2.061-1.321
			c0.676-0.319,1.394-0.482,2.177-0.482c0.877,0,1.638,0.185,2.252,0.561c0.617,0.373,1.078,0.889,1.387,1.559
			c0.877-0.751,1.695-1.293,2.422-1.622c0.736-0.329,1.519-0.498,2.339-0.498c1.438,0,2.497,0.438,3.182,1.303
			c0.677,0.87,1.028,2.089,1.028,3.633V205.221z"/>
	</g>
</g>
</svg>
