<?xml version="1.0" encoding="iso-8859-1"?>
<!-- Generator: Adobe Illustrator 19.0.0, SVG Export Plug-In . SVG Version: 6.00 Build 0)  -->
<svg version="1.1" id="Layer_1" xmlns="http://www.w3.org/2000/svg" xmlns:xlink="http://www.w3.org/1999/xlink" x="0px" y="0px"
	 viewBox="0 0 500 500" style="enable-background:new 0 0 500 500;" xml:space="preserve">
<g>
	<polygon style="fill:#0066B2;" points="224.87,309.256 194.04,309.256 213.309,190.82 244.149,190.82 	"/>
	<path style="fill:#0066B2;" d="M168.096,190.82l-29.396,81.459l-3.482-17.539v0.005l-10.374-53.26c0,0-1.248-10.665-14.625-10.665
		H61.623l-0.568,2.007c0,0,14.862,3.086,32.258,13.537L120.1,309.256h32.126l49.058-118.435H168.096z"/>
	<path style="fill:#0066B2;" d="M410.633,309.256h28.312L414.26,190.82h-24.786c-11.448,0-14.24,8.824-14.24,8.824L329.25,309.256
		h32.138l6.43-17.589h39.198L410.633,309.256z M376.704,267.365l16.198-44.331l9.119,44.331H376.704z"/>
	<path style="fill:#0066B2;" d="M331.661,219.3l4.398-25.435c0,0-13.581-5.16-27.729-5.16c-15.306,0-51.643,6.689-51.643,39.207
		c0,30.6,42.654,30.981,42.654,47.044c0,16.067-38.256,13.197-50.886,3.062l-4.582,26.584c0,0,13.765,6.694,34.809,6.694
		c21.036,0,52.79-10.898,52.79-40.544c0-30.791-43.036-33.666-43.036-47.051C288.436,210.309,318.468,212.029,331.661,219.3z"/>
	<path style="fill:#F9A533;" d="M135.219,254.745l-10.374-53.26c0,0-1.248-10.665-14.625-10.665H61.623l-0.568,2.007
		c0,0,23.363,4.841,45.766,22.973C128.246,233.139,135.219,254.745,135.219,254.745z"/>
</g>
</svg>
